M48
; DRILL file {KiCad 9.0.4} date 2025-10-14T11:36:27-0500
; FORMAT={-:-/ absolute / metric / decimal}
; #@! TF.CreationDate,2025-10-14T11:36:27-05:00
; #@! TF.GenerationSoftware,Kicad,Pcbnew,9.0.4
; #@! TF.FileFunction,Plated,1,2,PTH
FMAT,2
METRIC
; #@! TA.AperFunction,Plated,PTH,ComponentDrill
T1C0.800
; #@! TA.AperFunction,Plated,PTH,ComponentDrill
T2C0.890
; #@! TA.AperFunction,Plated,PTH,ComponentDrill
T3C1.100
; #@! TA.AperFunction,Plated,PTH,ComponentDrill
T4C1.200
; #@! TA.AperFunction,Plated,PTH,ComponentDrill
T5C1.400
; #@! TA.AperFunction,Plated,PTH,ComponentDrill
T6C1.600
; #@! TA.AperFunction,Plated,PTH,ComponentDrill
T7C2.010
; #@! TA.AperFunction,Plated,PTH,ViaDrill
T8C3.400
%
G90
G05
T1
X80.42Y-147.5
X80.92Y-135.5
X85.25Y-69.5
X85.25Y-78.5
X85.25Y-86.5
X85.25Y-93.0
X86.5Y-110.0
X87.75Y-69.5
X87.75Y-78.5
X87.75Y-86.5
X87.75Y-93.0
X89.0Y-110.0
X90.58Y-147.5
X91.08Y-135.5
X104.0Y-118.92
X104.0Y-129.08
X104.5Y-73.92
X104.5Y-84.08
X143.5Y-146.5
X143.5Y-149.0
X163.5Y-103.25
X163.5Y-105.75
T2
X58.46Y-79.55
X61.0Y-79.55
T3
X126.42Y-80.42
X126.42Y-82.96
X126.42Y-85.5
X130.0Y-107.0
X132.54Y-107.0
X135.08Y-107.0
T4
X121.755Y-132.5
X145.5Y-105.0
X145.5Y-109.0
X150.5Y-105.0
X150.5Y-109.0
X152.235Y-132.5
T5
X65.0Y-96.0
X65.0Y-101.0
X66.278Y-116.5
X66.278Y-121.5
X176.722Y-101.5
X176.722Y-106.5
T6
X61.5Y-134.0
X69.5Y-148.0
X85.5Y-57.0
X93.5Y-57.5
X104.5Y-57.5
X112.5Y-57.5
X122.5Y-57.5
X130.0Y-57.5
X140.5Y-57.5
X149.0Y-57.5
X163.5Y-57.5
X172.0Y-57.5
X195.0Y-82.5
X195.0Y-91.0
X196.5Y-119.0
X196.5Y-128.5
T7
X55.92Y-74.47
X66.08Y-74.47
T8
X59.5Y-149.0
X61.0Y-41.5
X195.0Y-148.0
X196.5Y-43.0
M30
