%TF.GenerationSoftware,KiCad,Pcbnew,9.0.4*%
%TF.CreationDate,2025-10-14T11:36:06-05:00*%
%TF.ProjectId,Prelab7,5072656c-6162-4372-9e6b-696361645f70,rev?*%
%TF.SameCoordinates,Original*%
%TF.FileFunction,Legend,Top*%
%TF.FilePolarity,Positive*%
%FSLAX46Y46*%
G04 Gerber Fmt 4.6, Leading zero omitted, Abs format (unit mm)*
G04 Created by KiCad (PCBNEW 9.0.4) date 2025-10-14 11:36:06*
%MOMM*%
%LPD*%
G01*
G04 APERTURE LIST*
%ADD10C,0.100000*%
%ADD11C,0.150000*%
%ADD12C,0.254000*%
%ADD13C,0.000000*%
%ADD14C,0.120000*%
%ADD15C,0.200000*%
G04 APERTURE END LIST*
D10*
X170756265Y-65214856D02*
X170899122Y-65262475D01*
X170899122Y-65262475D02*
X171137217Y-65262475D01*
X171137217Y-65262475D02*
X171232455Y-65214856D01*
X171232455Y-65214856D02*
X171280074Y-65167236D01*
X171280074Y-65167236D02*
X171327693Y-65071998D01*
X171327693Y-65071998D02*
X171327693Y-64976760D01*
X171327693Y-64976760D02*
X171280074Y-64881522D01*
X171280074Y-64881522D02*
X171232455Y-64833903D01*
X171232455Y-64833903D02*
X171137217Y-64786284D01*
X171137217Y-64786284D02*
X170946741Y-64738665D01*
X170946741Y-64738665D02*
X170851503Y-64691046D01*
X170851503Y-64691046D02*
X170803884Y-64643427D01*
X170803884Y-64643427D02*
X170756265Y-64548189D01*
X170756265Y-64548189D02*
X170756265Y-64452951D01*
X170756265Y-64452951D02*
X170803884Y-64357713D01*
X170803884Y-64357713D02*
X170851503Y-64310094D01*
X170851503Y-64310094D02*
X170946741Y-64262475D01*
X170946741Y-64262475D02*
X171184836Y-64262475D01*
X171184836Y-64262475D02*
X171327693Y-64310094D01*
X171756265Y-65262475D02*
X171756265Y-64262475D01*
X172184836Y-65262475D02*
X172184836Y-64738665D01*
X172184836Y-64738665D02*
X172137217Y-64643427D01*
X172137217Y-64643427D02*
X172041979Y-64595808D01*
X172041979Y-64595808D02*
X171899122Y-64595808D01*
X171899122Y-64595808D02*
X171803884Y-64643427D01*
X171803884Y-64643427D02*
X171756265Y-64691046D01*
X173089598Y-65262475D02*
X173089598Y-64738665D01*
X173089598Y-64738665D02*
X173041979Y-64643427D01*
X173041979Y-64643427D02*
X172946741Y-64595808D01*
X172946741Y-64595808D02*
X172756265Y-64595808D01*
X172756265Y-64595808D02*
X172661027Y-64643427D01*
X173089598Y-65214856D02*
X172994360Y-65262475D01*
X172994360Y-65262475D02*
X172756265Y-65262475D01*
X172756265Y-65262475D02*
X172661027Y-65214856D01*
X172661027Y-65214856D02*
X172613408Y-65119617D01*
X172613408Y-65119617D02*
X172613408Y-65024379D01*
X172613408Y-65024379D02*
X172661027Y-64929141D01*
X172661027Y-64929141D02*
X172756265Y-64881522D01*
X172756265Y-64881522D02*
X172994360Y-64881522D01*
X172994360Y-64881522D02*
X173089598Y-64833903D01*
X173422932Y-64595808D02*
X173803884Y-64595808D01*
X173565789Y-65262475D02*
X173565789Y-64405332D01*
X173565789Y-64405332D02*
X173613408Y-64310094D01*
X173613408Y-64310094D02*
X173708646Y-64262475D01*
X173708646Y-64262475D02*
X173803884Y-64262475D01*
X174137218Y-65262475D02*
X174137218Y-64595808D01*
X174137218Y-64262475D02*
X174089599Y-64310094D01*
X174089599Y-64310094D02*
X174137218Y-64357713D01*
X174137218Y-64357713D02*
X174184837Y-64310094D01*
X174184837Y-64310094D02*
X174137218Y-64262475D01*
X174137218Y-64262475D02*
X174137218Y-64357713D01*
X174613408Y-64595808D02*
X174613408Y-65262475D01*
X174613408Y-64691046D02*
X174661027Y-64643427D01*
X174661027Y-64643427D02*
X174756265Y-64595808D01*
X174756265Y-64595808D02*
X174899122Y-64595808D01*
X174899122Y-64595808D02*
X174994360Y-64643427D01*
X174994360Y-64643427D02*
X175041979Y-64738665D01*
X175041979Y-64738665D02*
X175041979Y-65262475D01*
X176280075Y-64262475D02*
X176280075Y-65071998D01*
X176280075Y-65071998D02*
X176327694Y-65167236D01*
X176327694Y-65167236D02*
X176375313Y-65214856D01*
X176375313Y-65214856D02*
X176470551Y-65262475D01*
X176470551Y-65262475D02*
X176661027Y-65262475D01*
X176661027Y-65262475D02*
X176756265Y-65214856D01*
X176756265Y-65214856D02*
X176803884Y-65167236D01*
X176803884Y-65167236D02*
X176851503Y-65071998D01*
X176851503Y-65071998D02*
X176851503Y-64262475D01*
X177470551Y-65262475D02*
X177375313Y-65214856D01*
X177375313Y-65214856D02*
X177327694Y-65119617D01*
X177327694Y-65119617D02*
X177327694Y-64262475D01*
X178280075Y-65262475D02*
X178280075Y-64738665D01*
X178280075Y-64738665D02*
X178232456Y-64643427D01*
X178232456Y-64643427D02*
X178137218Y-64595808D01*
X178137218Y-64595808D02*
X177946742Y-64595808D01*
X177946742Y-64595808D02*
X177851504Y-64643427D01*
X178280075Y-65214856D02*
X178184837Y-65262475D01*
X178184837Y-65262475D02*
X177946742Y-65262475D01*
X177946742Y-65262475D02*
X177851504Y-65214856D01*
X177851504Y-65214856D02*
X177803885Y-65119617D01*
X177803885Y-65119617D02*
X177803885Y-65024379D01*
X177803885Y-65024379D02*
X177851504Y-64929141D01*
X177851504Y-64929141D02*
X177946742Y-64881522D01*
X177946742Y-64881522D02*
X178184837Y-64881522D01*
X178184837Y-64881522D02*
X178280075Y-64833903D01*
X179946742Y-65262475D02*
X179946742Y-64738665D01*
X179946742Y-64738665D02*
X179899123Y-64643427D01*
X179899123Y-64643427D02*
X179803885Y-64595808D01*
X179803885Y-64595808D02*
X179613409Y-64595808D01*
X179613409Y-64595808D02*
X179518171Y-64643427D01*
X179946742Y-65214856D02*
X179851504Y-65262475D01*
X179851504Y-65262475D02*
X179613409Y-65262475D01*
X179613409Y-65262475D02*
X179518171Y-65214856D01*
X179518171Y-65214856D02*
X179470552Y-65119617D01*
X179470552Y-65119617D02*
X179470552Y-65024379D01*
X179470552Y-65024379D02*
X179518171Y-64929141D01*
X179518171Y-64929141D02*
X179613409Y-64881522D01*
X179613409Y-64881522D02*
X179851504Y-64881522D01*
X179851504Y-64881522D02*
X179946742Y-64833903D01*
X180422933Y-64595808D02*
X180422933Y-65262475D01*
X180422933Y-64691046D02*
X180470552Y-64643427D01*
X180470552Y-64643427D02*
X180565790Y-64595808D01*
X180565790Y-64595808D02*
X180708647Y-64595808D01*
X180708647Y-64595808D02*
X180803885Y-64643427D01*
X180803885Y-64643427D02*
X180851504Y-64738665D01*
X180851504Y-64738665D02*
X180851504Y-65262475D01*
X181756266Y-65262475D02*
X181756266Y-64262475D01*
X181756266Y-65214856D02*
X181661028Y-65262475D01*
X181661028Y-65262475D02*
X181470552Y-65262475D01*
X181470552Y-65262475D02*
X181375314Y-65214856D01*
X181375314Y-65214856D02*
X181327695Y-65167236D01*
X181327695Y-65167236D02*
X181280076Y-65071998D01*
X181280076Y-65071998D02*
X181280076Y-64786284D01*
X181280076Y-64786284D02*
X181327695Y-64691046D01*
X181327695Y-64691046D02*
X181375314Y-64643427D01*
X181375314Y-64643427D02*
X181470552Y-64595808D01*
X181470552Y-64595808D02*
X181661028Y-64595808D01*
X181661028Y-64595808D02*
X181756266Y-64643427D01*
X182994362Y-65262475D02*
X182994362Y-64262475D01*
X182994362Y-64262475D02*
X183327695Y-64976760D01*
X183327695Y-64976760D02*
X183661028Y-64262475D01*
X183661028Y-64262475D02*
X183661028Y-65262475D01*
X184565790Y-65262475D02*
X184565790Y-64738665D01*
X184565790Y-64738665D02*
X184518171Y-64643427D01*
X184518171Y-64643427D02*
X184422933Y-64595808D01*
X184422933Y-64595808D02*
X184232457Y-64595808D01*
X184232457Y-64595808D02*
X184137219Y-64643427D01*
X184565790Y-65214856D02*
X184470552Y-65262475D01*
X184470552Y-65262475D02*
X184232457Y-65262475D01*
X184232457Y-65262475D02*
X184137219Y-65214856D01*
X184137219Y-65214856D02*
X184089600Y-65119617D01*
X184089600Y-65119617D02*
X184089600Y-65024379D01*
X184089600Y-65024379D02*
X184137219Y-64929141D01*
X184137219Y-64929141D02*
X184232457Y-64881522D01*
X184232457Y-64881522D02*
X184470552Y-64881522D01*
X184470552Y-64881522D02*
X184565790Y-64833903D01*
X184946743Y-64595808D02*
X185184838Y-65262475D01*
X185422933Y-64595808D02*
X185184838Y-65262475D01*
X185184838Y-65262475D02*
X185089600Y-65500570D01*
X185089600Y-65500570D02*
X185041981Y-65548189D01*
X185041981Y-65548189D02*
X184946743Y-65595808D01*
X186232457Y-65262475D02*
X186232457Y-64738665D01*
X186232457Y-64738665D02*
X186184838Y-64643427D01*
X186184838Y-64643427D02*
X186089600Y-64595808D01*
X186089600Y-64595808D02*
X185899124Y-64595808D01*
X185899124Y-64595808D02*
X185803886Y-64643427D01*
X186232457Y-65214856D02*
X186137219Y-65262475D01*
X186137219Y-65262475D02*
X185899124Y-65262475D01*
X185899124Y-65262475D02*
X185803886Y-65214856D01*
X185803886Y-65214856D02*
X185756267Y-65119617D01*
X185756267Y-65119617D02*
X185756267Y-65024379D01*
X185756267Y-65024379D02*
X185803886Y-64929141D01*
X185803886Y-64929141D02*
X185899124Y-64881522D01*
X185899124Y-64881522D02*
X186137219Y-64881522D01*
X186137219Y-64881522D02*
X186232457Y-64833903D01*
X186708648Y-64595808D02*
X186708648Y-65262475D01*
X186708648Y-64691046D02*
X186756267Y-64643427D01*
X186756267Y-64643427D02*
X186851505Y-64595808D01*
X186851505Y-64595808D02*
X186994362Y-64595808D01*
X186994362Y-64595808D02*
X187089600Y-64643427D01*
X187089600Y-64643427D02*
X187137219Y-64738665D01*
X187137219Y-64738665D02*
X187137219Y-65262475D01*
X187613410Y-65262475D02*
X187613410Y-64262475D01*
X187708648Y-64881522D02*
X187994362Y-65262475D01*
X187994362Y-64595808D02*
X187613410Y-64976760D01*
X189184839Y-65262475D02*
X189184839Y-64262475D01*
X189756267Y-65262475D02*
X189327696Y-64691046D01*
X189756267Y-64262475D02*
X189184839Y-64833903D01*
X190327696Y-65262475D02*
X190232458Y-65214856D01*
X190232458Y-65214856D02*
X190184839Y-65167236D01*
X190184839Y-65167236D02*
X190137220Y-65071998D01*
X190137220Y-65071998D02*
X190137220Y-64786284D01*
X190137220Y-64786284D02*
X190184839Y-64691046D01*
X190184839Y-64691046D02*
X190232458Y-64643427D01*
X190232458Y-64643427D02*
X190327696Y-64595808D01*
X190327696Y-64595808D02*
X190470553Y-64595808D01*
X190470553Y-64595808D02*
X190565791Y-64643427D01*
X190565791Y-64643427D02*
X190613410Y-64691046D01*
X190613410Y-64691046D02*
X190661029Y-64786284D01*
X190661029Y-64786284D02*
X190661029Y-65071998D01*
X190661029Y-65071998D02*
X190613410Y-65167236D01*
X190613410Y-65167236D02*
X190565791Y-65214856D01*
X190565791Y-65214856D02*
X190470553Y-65262475D01*
X190470553Y-65262475D02*
X190327696Y-65262475D01*
X191518172Y-65262475D02*
X191518172Y-64262475D01*
X191518172Y-65214856D02*
X191422934Y-65262475D01*
X191422934Y-65262475D02*
X191232458Y-65262475D01*
X191232458Y-65262475D02*
X191137220Y-65214856D01*
X191137220Y-65214856D02*
X191089601Y-65167236D01*
X191089601Y-65167236D02*
X191041982Y-65071998D01*
X191041982Y-65071998D02*
X191041982Y-64786284D01*
X191041982Y-64786284D02*
X191089601Y-64691046D01*
X191089601Y-64691046D02*
X191137220Y-64643427D01*
X191137220Y-64643427D02*
X191232458Y-64595808D01*
X191232458Y-64595808D02*
X191422934Y-64595808D01*
X191422934Y-64595808D02*
X191518172Y-64643427D01*
X192422934Y-64595808D02*
X192422934Y-65262475D01*
X191994363Y-64595808D02*
X191994363Y-65119617D01*
X191994363Y-65119617D02*
X192041982Y-65214856D01*
X192041982Y-65214856D02*
X192137220Y-65262475D01*
X192137220Y-65262475D02*
X192280077Y-65262475D01*
X192280077Y-65262475D02*
X192375315Y-65214856D01*
X192375315Y-65214856D02*
X192422934Y-65167236D01*
X192899125Y-65262475D02*
X192899125Y-64595808D01*
X192899125Y-64786284D02*
X192946744Y-64691046D01*
X192946744Y-64691046D02*
X192994363Y-64643427D01*
X192994363Y-64643427D02*
X193089601Y-64595808D01*
X193089601Y-64595808D02*
X193184839Y-64595808D01*
X193518173Y-65262475D02*
X193518173Y-64595808D01*
X193518173Y-64262475D02*
X193470554Y-64310094D01*
X193470554Y-64310094D02*
X193518173Y-64357713D01*
X193518173Y-64357713D02*
X193565792Y-64310094D01*
X193565792Y-64310094D02*
X193518173Y-64262475D01*
X193518173Y-64262475D02*
X193518173Y-64357713D01*
X170803884Y-66348609D02*
X171137217Y-66348609D01*
X171280074Y-66872419D02*
X170803884Y-66872419D01*
X170803884Y-66872419D02*
X170803884Y-65872419D01*
X170803884Y-65872419D02*
X171280074Y-65872419D01*
X172280074Y-66777180D02*
X172232455Y-66824800D01*
X172232455Y-66824800D02*
X172089598Y-66872419D01*
X172089598Y-66872419D02*
X171994360Y-66872419D01*
X171994360Y-66872419D02*
X171851503Y-66824800D01*
X171851503Y-66824800D02*
X171756265Y-66729561D01*
X171756265Y-66729561D02*
X171708646Y-66634323D01*
X171708646Y-66634323D02*
X171661027Y-66443847D01*
X171661027Y-66443847D02*
X171661027Y-66300990D01*
X171661027Y-66300990D02*
X171708646Y-66110514D01*
X171708646Y-66110514D02*
X171756265Y-66015276D01*
X171756265Y-66015276D02*
X171851503Y-65920038D01*
X171851503Y-65920038D02*
X171994360Y-65872419D01*
X171994360Y-65872419D02*
X172089598Y-65872419D01*
X172089598Y-65872419D02*
X172232455Y-65920038D01*
X172232455Y-65920038D02*
X172280074Y-65967657D01*
X172708646Y-66348609D02*
X173041979Y-66348609D01*
X173184836Y-66872419D02*
X172708646Y-66872419D01*
X172708646Y-66872419D02*
X172708646Y-65872419D01*
X172708646Y-65872419D02*
X173184836Y-65872419D01*
X174280075Y-65872419D02*
X174899122Y-65872419D01*
X174899122Y-65872419D02*
X174565789Y-66253371D01*
X174565789Y-66253371D02*
X174708646Y-66253371D01*
X174708646Y-66253371D02*
X174803884Y-66300990D01*
X174803884Y-66300990D02*
X174851503Y-66348609D01*
X174851503Y-66348609D02*
X174899122Y-66443847D01*
X174899122Y-66443847D02*
X174899122Y-66681942D01*
X174899122Y-66681942D02*
X174851503Y-66777180D01*
X174851503Y-66777180D02*
X174803884Y-66824800D01*
X174803884Y-66824800D02*
X174708646Y-66872419D01*
X174708646Y-66872419D02*
X174422932Y-66872419D01*
X174422932Y-66872419D02*
X174327694Y-66824800D01*
X174327694Y-66824800D02*
X174280075Y-66777180D01*
X175518170Y-65872419D02*
X175613408Y-65872419D01*
X175613408Y-65872419D02*
X175708646Y-65920038D01*
X175708646Y-65920038D02*
X175756265Y-65967657D01*
X175756265Y-65967657D02*
X175803884Y-66062895D01*
X175803884Y-66062895D02*
X175851503Y-66253371D01*
X175851503Y-66253371D02*
X175851503Y-66491466D01*
X175851503Y-66491466D02*
X175803884Y-66681942D01*
X175803884Y-66681942D02*
X175756265Y-66777180D01*
X175756265Y-66777180D02*
X175708646Y-66824800D01*
X175708646Y-66824800D02*
X175613408Y-66872419D01*
X175613408Y-66872419D02*
X175518170Y-66872419D01*
X175518170Y-66872419D02*
X175422932Y-66824800D01*
X175422932Y-66824800D02*
X175375313Y-66777180D01*
X175375313Y-66777180D02*
X175327694Y-66681942D01*
X175327694Y-66681942D02*
X175280075Y-66491466D01*
X175280075Y-66491466D02*
X175280075Y-66253371D01*
X175280075Y-66253371D02*
X175327694Y-66062895D01*
X175327694Y-66062895D02*
X175375313Y-65967657D01*
X175375313Y-65967657D02*
X175422932Y-65920038D01*
X175422932Y-65920038D02*
X175518170Y-65872419D01*
X176232456Y-65967657D02*
X176280075Y-65920038D01*
X176280075Y-65920038D02*
X176375313Y-65872419D01*
X176375313Y-65872419D02*
X176613408Y-65872419D01*
X176613408Y-65872419D02*
X176708646Y-65920038D01*
X176708646Y-65920038D02*
X176756265Y-65967657D01*
X176756265Y-65967657D02*
X176803884Y-66062895D01*
X176803884Y-66062895D02*
X176803884Y-66158133D01*
X176803884Y-66158133D02*
X176756265Y-66300990D01*
X176756265Y-66300990D02*
X176184837Y-66872419D01*
X176184837Y-66872419D02*
X176803884Y-66872419D01*
X178470551Y-66872419D02*
X177994361Y-66872419D01*
X177994361Y-66872419D02*
X177994361Y-65872419D01*
X179232456Y-66872419D02*
X179232456Y-66348609D01*
X179232456Y-66348609D02*
X179184837Y-66253371D01*
X179184837Y-66253371D02*
X179089599Y-66205752D01*
X179089599Y-66205752D02*
X178899123Y-66205752D01*
X178899123Y-66205752D02*
X178803885Y-66253371D01*
X179232456Y-66824800D02*
X179137218Y-66872419D01*
X179137218Y-66872419D02*
X178899123Y-66872419D01*
X178899123Y-66872419D02*
X178803885Y-66824800D01*
X178803885Y-66824800D02*
X178756266Y-66729561D01*
X178756266Y-66729561D02*
X178756266Y-66634323D01*
X178756266Y-66634323D02*
X178803885Y-66539085D01*
X178803885Y-66539085D02*
X178899123Y-66491466D01*
X178899123Y-66491466D02*
X179137218Y-66491466D01*
X179137218Y-66491466D02*
X179232456Y-66443847D01*
X179708647Y-66872419D02*
X179708647Y-65872419D01*
X179708647Y-66253371D02*
X179803885Y-66205752D01*
X179803885Y-66205752D02*
X179994361Y-66205752D01*
X179994361Y-66205752D02*
X180089599Y-66253371D01*
X180089599Y-66253371D02*
X180137218Y-66300990D01*
X180137218Y-66300990D02*
X180184837Y-66396228D01*
X180184837Y-66396228D02*
X180184837Y-66681942D01*
X180184837Y-66681942D02*
X180137218Y-66777180D01*
X180137218Y-66777180D02*
X180089599Y-66824800D01*
X180089599Y-66824800D02*
X179994361Y-66872419D01*
X179994361Y-66872419D02*
X179803885Y-66872419D01*
X179803885Y-66872419D02*
X179708647Y-66824800D01*
X181280076Y-65872419D02*
X181946742Y-65872419D01*
X181946742Y-65872419D02*
X181518171Y-66872419D01*
D11*
X67499999Y-144752438D02*
X67404761Y-144704819D01*
X67404761Y-144704819D02*
X67261904Y-144704819D01*
X67261904Y-144704819D02*
X67119047Y-144752438D01*
X67119047Y-144752438D02*
X67023809Y-144847676D01*
X67023809Y-144847676D02*
X66976190Y-144942914D01*
X66976190Y-144942914D02*
X66928571Y-145133390D01*
X66928571Y-145133390D02*
X66928571Y-145276247D01*
X66928571Y-145276247D02*
X66976190Y-145466723D01*
X66976190Y-145466723D02*
X67023809Y-145561961D01*
X67023809Y-145561961D02*
X67119047Y-145657200D01*
X67119047Y-145657200D02*
X67261904Y-145704819D01*
X67261904Y-145704819D02*
X67357142Y-145704819D01*
X67357142Y-145704819D02*
X67499999Y-145657200D01*
X67499999Y-145657200D02*
X67547618Y-145609580D01*
X67547618Y-145609580D02*
X67547618Y-145276247D01*
X67547618Y-145276247D02*
X67357142Y-145276247D01*
X67976190Y-145704819D02*
X67976190Y-144704819D01*
X67976190Y-144704819D02*
X68547618Y-145704819D01*
X68547618Y-145704819D02*
X68547618Y-144704819D01*
X69023809Y-145704819D02*
X69023809Y-144704819D01*
X69023809Y-144704819D02*
X69261904Y-144704819D01*
X69261904Y-144704819D02*
X69404761Y-144752438D01*
X69404761Y-144752438D02*
X69499999Y-144847676D01*
X69499999Y-144847676D02*
X69547618Y-144942914D01*
X69547618Y-144942914D02*
X69595237Y-145133390D01*
X69595237Y-145133390D02*
X69595237Y-145276247D01*
X69595237Y-145276247D02*
X69547618Y-145466723D01*
X69547618Y-145466723D02*
X69499999Y-145561961D01*
X69499999Y-145561961D02*
X69404761Y-145657200D01*
X69404761Y-145657200D02*
X69261904Y-145704819D01*
X69261904Y-145704819D02*
X69023809Y-145704819D01*
X69785714Y-145800057D02*
X70547618Y-145800057D01*
X70642857Y-144704819D02*
X71214285Y-144704819D01*
X70928571Y-145704819D02*
X70928571Y-144704819D01*
X71690476Y-145133390D02*
X71595238Y-145085771D01*
X71595238Y-145085771D02*
X71547619Y-145038152D01*
X71547619Y-145038152D02*
X71500000Y-144942914D01*
X71500000Y-144942914D02*
X71500000Y-144895295D01*
X71500000Y-144895295D02*
X71547619Y-144800057D01*
X71547619Y-144800057D02*
X71595238Y-144752438D01*
X71595238Y-144752438D02*
X71690476Y-144704819D01*
X71690476Y-144704819D02*
X71880952Y-144704819D01*
X71880952Y-144704819D02*
X71976190Y-144752438D01*
X71976190Y-144752438D02*
X72023809Y-144800057D01*
X72023809Y-144800057D02*
X72071428Y-144895295D01*
X72071428Y-144895295D02*
X72071428Y-144942914D01*
X72071428Y-144942914D02*
X72023809Y-145038152D01*
X72023809Y-145038152D02*
X71976190Y-145085771D01*
X71976190Y-145085771D02*
X71880952Y-145133390D01*
X71880952Y-145133390D02*
X71690476Y-145133390D01*
X71690476Y-145133390D02*
X71595238Y-145181009D01*
X71595238Y-145181009D02*
X71547619Y-145228628D01*
X71547619Y-145228628D02*
X71500000Y-145323866D01*
X71500000Y-145323866D02*
X71500000Y-145514342D01*
X71500000Y-145514342D02*
X71547619Y-145609580D01*
X71547619Y-145609580D02*
X71595238Y-145657200D01*
X71595238Y-145657200D02*
X71690476Y-145704819D01*
X71690476Y-145704819D02*
X71880952Y-145704819D01*
X71880952Y-145704819D02*
X71976190Y-145657200D01*
X71976190Y-145657200D02*
X72023809Y-145609580D01*
X72023809Y-145609580D02*
X72071428Y-145514342D01*
X72071428Y-145514342D02*
X72071428Y-145323866D01*
X72071428Y-145323866D02*
X72023809Y-145228628D01*
X72023809Y-145228628D02*
X71976190Y-145181009D01*
X71976190Y-145181009D02*
X71880952Y-145133390D01*
X118813095Y-143149819D02*
X118813095Y-143959342D01*
X118813095Y-143959342D02*
X118860714Y-144054580D01*
X118860714Y-144054580D02*
X118908333Y-144102200D01*
X118908333Y-144102200D02*
X119003571Y-144149819D01*
X119003571Y-144149819D02*
X119194047Y-144149819D01*
X119194047Y-144149819D02*
X119289285Y-144102200D01*
X119289285Y-144102200D02*
X119336904Y-144054580D01*
X119336904Y-144054580D02*
X119384523Y-143959342D01*
X119384523Y-143959342D02*
X119384523Y-143149819D01*
X120384523Y-144149819D02*
X119813095Y-144149819D01*
X120098809Y-144149819D02*
X120098809Y-143149819D01*
X120098809Y-143149819D02*
X120003571Y-143292676D01*
X120003571Y-143292676D02*
X119908333Y-143387914D01*
X119908333Y-143387914D02*
X119813095Y-143435533D01*
X110023810Y-101554819D02*
X110023810Y-100554819D01*
X111071428Y-101459580D02*
X111023809Y-101507200D01*
X111023809Y-101507200D02*
X110880952Y-101554819D01*
X110880952Y-101554819D02*
X110785714Y-101554819D01*
X110785714Y-101554819D02*
X110642857Y-101507200D01*
X110642857Y-101507200D02*
X110547619Y-101411961D01*
X110547619Y-101411961D02*
X110500000Y-101316723D01*
X110500000Y-101316723D02*
X110452381Y-101126247D01*
X110452381Y-101126247D02*
X110452381Y-100983390D01*
X110452381Y-100983390D02*
X110500000Y-100792914D01*
X110500000Y-100792914D02*
X110547619Y-100697676D01*
X110547619Y-100697676D02*
X110642857Y-100602438D01*
X110642857Y-100602438D02*
X110785714Y-100554819D01*
X110785714Y-100554819D02*
X110880952Y-100554819D01*
X110880952Y-100554819D02*
X111023809Y-100602438D01*
X111023809Y-100602438D02*
X111071428Y-100650057D01*
X111452381Y-100650057D02*
X111500000Y-100602438D01*
X111500000Y-100602438D02*
X111595238Y-100554819D01*
X111595238Y-100554819D02*
X111833333Y-100554819D01*
X111833333Y-100554819D02*
X111928571Y-100602438D01*
X111928571Y-100602438D02*
X111976190Y-100650057D01*
X111976190Y-100650057D02*
X112023809Y-100745295D01*
X112023809Y-100745295D02*
X112023809Y-100840533D01*
X112023809Y-100840533D02*
X111976190Y-100983390D01*
X111976190Y-100983390D02*
X111404762Y-101554819D01*
X111404762Y-101554819D02*
X112023809Y-101554819D01*
X90533333Y-108809580D02*
X90485714Y-108857200D01*
X90485714Y-108857200D02*
X90342857Y-108904819D01*
X90342857Y-108904819D02*
X90247619Y-108904819D01*
X90247619Y-108904819D02*
X90104762Y-108857200D01*
X90104762Y-108857200D02*
X90009524Y-108761961D01*
X90009524Y-108761961D02*
X89961905Y-108666723D01*
X89961905Y-108666723D02*
X89914286Y-108476247D01*
X89914286Y-108476247D02*
X89914286Y-108333390D01*
X89914286Y-108333390D02*
X89961905Y-108142914D01*
X89961905Y-108142914D02*
X90009524Y-108047676D01*
X90009524Y-108047676D02*
X90104762Y-107952438D01*
X90104762Y-107952438D02*
X90247619Y-107904819D01*
X90247619Y-107904819D02*
X90342857Y-107904819D01*
X90342857Y-107904819D02*
X90485714Y-107952438D01*
X90485714Y-107952438D02*
X90533333Y-108000057D01*
X90866667Y-107904819D02*
X91485714Y-107904819D01*
X91485714Y-107904819D02*
X91152381Y-108285771D01*
X91152381Y-108285771D02*
X91295238Y-108285771D01*
X91295238Y-108285771D02*
X91390476Y-108333390D01*
X91390476Y-108333390D02*
X91438095Y-108381009D01*
X91438095Y-108381009D02*
X91485714Y-108476247D01*
X91485714Y-108476247D02*
X91485714Y-108714342D01*
X91485714Y-108714342D02*
X91438095Y-108809580D01*
X91438095Y-108809580D02*
X91390476Y-108857200D01*
X91390476Y-108857200D02*
X91295238Y-108904819D01*
X91295238Y-108904819D02*
X91009524Y-108904819D01*
X91009524Y-108904819D02*
X90914286Y-108857200D01*
X90914286Y-108857200D02*
X90866667Y-108809580D01*
X193666666Y-115704819D02*
X193999999Y-116704819D01*
X193999999Y-116704819D02*
X194333332Y-115704819D01*
X194428571Y-116800057D02*
X195190475Y-116800057D01*
X195952380Y-116704819D02*
X195380952Y-116704819D01*
X195666666Y-116704819D02*
X195666666Y-115704819D01*
X195666666Y-115704819D02*
X195571428Y-115847676D01*
X195571428Y-115847676D02*
X195476190Y-115942914D01*
X195476190Y-115942914D02*
X195380952Y-115990533D01*
X196857142Y-116704819D02*
X196380952Y-116704819D01*
X196380952Y-116704819D02*
X196380952Y-115704819D01*
X196952381Y-116800057D02*
X197714285Y-116800057D01*
X197809524Y-115704819D02*
X198380952Y-115704819D01*
X198095238Y-116704819D02*
X198095238Y-115704819D01*
X198619048Y-115704819D02*
X199285714Y-115704819D01*
X199285714Y-115704819D02*
X198857143Y-116704819D01*
X192238095Y-79204819D02*
X192571428Y-80204819D01*
X192571428Y-80204819D02*
X192904761Y-79204819D01*
X193380952Y-80204819D02*
X193285714Y-80157200D01*
X193285714Y-80157200D02*
X193238095Y-80109580D01*
X193238095Y-80109580D02*
X193190476Y-80014342D01*
X193190476Y-80014342D02*
X193190476Y-79728628D01*
X193190476Y-79728628D02*
X193238095Y-79633390D01*
X193238095Y-79633390D02*
X193285714Y-79585771D01*
X193285714Y-79585771D02*
X193380952Y-79538152D01*
X193380952Y-79538152D02*
X193523809Y-79538152D01*
X193523809Y-79538152D02*
X193619047Y-79585771D01*
X193619047Y-79585771D02*
X193666666Y-79633390D01*
X193666666Y-79633390D02*
X193714285Y-79728628D01*
X193714285Y-79728628D02*
X193714285Y-80014342D01*
X193714285Y-80014342D02*
X193666666Y-80109580D01*
X193666666Y-80109580D02*
X193619047Y-80157200D01*
X193619047Y-80157200D02*
X193523809Y-80204819D01*
X193523809Y-80204819D02*
X193380952Y-80204819D01*
X194571428Y-79538152D02*
X194571428Y-80204819D01*
X194142857Y-79538152D02*
X194142857Y-80061961D01*
X194142857Y-80061961D02*
X194190476Y-80157200D01*
X194190476Y-80157200D02*
X194285714Y-80204819D01*
X194285714Y-80204819D02*
X194428571Y-80204819D01*
X194428571Y-80204819D02*
X194523809Y-80157200D01*
X194523809Y-80157200D02*
X194571428Y-80109580D01*
X194904762Y-79538152D02*
X195285714Y-79538152D01*
X195047619Y-79204819D02*
X195047619Y-80061961D01*
X195047619Y-80061961D02*
X195095238Y-80157200D01*
X195095238Y-80157200D02*
X195190476Y-80204819D01*
X195190476Y-80204819D02*
X195285714Y-80204819D01*
X195380953Y-80300057D02*
X196142857Y-80300057D01*
X196238096Y-79204819D02*
X196809524Y-79204819D01*
X196523810Y-80204819D02*
X196523810Y-79204819D01*
X197571429Y-79204819D02*
X197380953Y-79204819D01*
X197380953Y-79204819D02*
X197285715Y-79252438D01*
X197285715Y-79252438D02*
X197238096Y-79300057D01*
X197238096Y-79300057D02*
X197142858Y-79442914D01*
X197142858Y-79442914D02*
X197095239Y-79633390D01*
X197095239Y-79633390D02*
X197095239Y-80014342D01*
X197095239Y-80014342D02*
X197142858Y-80109580D01*
X197142858Y-80109580D02*
X197190477Y-80157200D01*
X197190477Y-80157200D02*
X197285715Y-80204819D01*
X197285715Y-80204819D02*
X197476191Y-80204819D01*
X197476191Y-80204819D02*
X197571429Y-80157200D01*
X197571429Y-80157200D02*
X197619048Y-80109580D01*
X197619048Y-80109580D02*
X197666667Y-80014342D01*
X197666667Y-80014342D02*
X197666667Y-79776247D01*
X197666667Y-79776247D02*
X197619048Y-79681009D01*
X197619048Y-79681009D02*
X197571429Y-79633390D01*
X197571429Y-79633390D02*
X197476191Y-79585771D01*
X197476191Y-79585771D02*
X197285715Y-79585771D01*
X197285715Y-79585771D02*
X197190477Y-79633390D01*
X197190477Y-79633390D02*
X197142858Y-79681009D01*
X197142858Y-79681009D02*
X197095239Y-79776247D01*
X172977319Y-105999999D02*
X173977319Y-105666666D01*
X173977319Y-105666666D02*
X172977319Y-105333333D01*
X173977319Y-104857142D02*
X173929700Y-104952380D01*
X173929700Y-104952380D02*
X173882080Y-104999999D01*
X173882080Y-104999999D02*
X173786842Y-105047618D01*
X173786842Y-105047618D02*
X173501128Y-105047618D01*
X173501128Y-105047618D02*
X173405890Y-104999999D01*
X173405890Y-104999999D02*
X173358271Y-104952380D01*
X173358271Y-104952380D02*
X173310652Y-104857142D01*
X173310652Y-104857142D02*
X173310652Y-104714285D01*
X173310652Y-104714285D02*
X173358271Y-104619047D01*
X173358271Y-104619047D02*
X173405890Y-104571428D01*
X173405890Y-104571428D02*
X173501128Y-104523809D01*
X173501128Y-104523809D02*
X173786842Y-104523809D01*
X173786842Y-104523809D02*
X173882080Y-104571428D01*
X173882080Y-104571428D02*
X173929700Y-104619047D01*
X173929700Y-104619047D02*
X173977319Y-104714285D01*
X173977319Y-104714285D02*
X173977319Y-104857142D01*
X173310652Y-103666666D02*
X173977319Y-103666666D01*
X173310652Y-104095237D02*
X173834461Y-104095237D01*
X173834461Y-104095237D02*
X173929700Y-104047618D01*
X173929700Y-104047618D02*
X173977319Y-103952380D01*
X173977319Y-103952380D02*
X173977319Y-103809523D01*
X173977319Y-103809523D02*
X173929700Y-103714285D01*
X173929700Y-103714285D02*
X173882080Y-103666666D01*
X173310652Y-103333332D02*
X173310652Y-102952380D01*
X172977319Y-103190475D02*
X173834461Y-103190475D01*
X173834461Y-103190475D02*
X173929700Y-103142856D01*
X173929700Y-103142856D02*
X173977319Y-103047618D01*
X173977319Y-103047618D02*
X173977319Y-102952380D01*
X173977319Y-102095237D02*
X173977319Y-102666665D01*
X173977319Y-102380951D02*
X172977319Y-102380951D01*
X172977319Y-102380951D02*
X173120176Y-102476189D01*
X173120176Y-102476189D02*
X173215414Y-102571427D01*
X173215414Y-102571427D02*
X173263033Y-102666665D01*
X83238095Y-53704819D02*
X83571428Y-54704819D01*
X83571428Y-54704819D02*
X83904761Y-53704819D01*
X84238095Y-54704819D02*
X84238095Y-54038152D01*
X84238095Y-53704819D02*
X84190476Y-53752438D01*
X84190476Y-53752438D02*
X84238095Y-53800057D01*
X84238095Y-53800057D02*
X84285714Y-53752438D01*
X84285714Y-53752438D02*
X84238095Y-53704819D01*
X84238095Y-53704819D02*
X84238095Y-53800057D01*
X84714285Y-54038152D02*
X84714285Y-54704819D01*
X84714285Y-54133390D02*
X84761904Y-54085771D01*
X84761904Y-54085771D02*
X84857142Y-54038152D01*
X84857142Y-54038152D02*
X84999999Y-54038152D01*
X84999999Y-54038152D02*
X85095237Y-54085771D01*
X85095237Y-54085771D02*
X85142856Y-54181009D01*
X85142856Y-54181009D02*
X85142856Y-54704819D01*
X85380952Y-54800057D02*
X86142856Y-54800057D01*
X86238095Y-53704819D02*
X86809523Y-53704819D01*
X86523809Y-54704819D02*
X86523809Y-53704819D01*
X87666666Y-54704819D02*
X87095238Y-54704819D01*
X87380952Y-54704819D02*
X87380952Y-53704819D01*
X87380952Y-53704819D02*
X87285714Y-53847676D01*
X87285714Y-53847676D02*
X87190476Y-53942914D01*
X87190476Y-53942914D02*
X87095238Y-53990533D01*
X67654819Y-99999999D02*
X68654819Y-99666666D01*
X68654819Y-99666666D02*
X67654819Y-99333333D01*
X68654819Y-98999999D02*
X67988152Y-98999999D01*
X67654819Y-98999999D02*
X67702438Y-99047618D01*
X67702438Y-99047618D02*
X67750057Y-98999999D01*
X67750057Y-98999999D02*
X67702438Y-98952380D01*
X67702438Y-98952380D02*
X67654819Y-98999999D01*
X67654819Y-98999999D02*
X67750057Y-98999999D01*
X67988152Y-98523809D02*
X68654819Y-98523809D01*
X68083390Y-98523809D02*
X68035771Y-98476190D01*
X68035771Y-98476190D02*
X67988152Y-98380952D01*
X67988152Y-98380952D02*
X67988152Y-98238095D01*
X67988152Y-98238095D02*
X68035771Y-98142857D01*
X68035771Y-98142857D02*
X68131009Y-98095238D01*
X68131009Y-98095238D02*
X68654819Y-98095238D01*
X68654819Y-97095238D02*
X68654819Y-97666666D01*
X68654819Y-97380952D02*
X67654819Y-97380952D01*
X67654819Y-97380952D02*
X67797676Y-97476190D01*
X67797676Y-97476190D02*
X67892914Y-97571428D01*
X67892914Y-97571428D02*
X67940533Y-97666666D01*
X102084819Y-124166666D02*
X101608628Y-124499999D01*
X102084819Y-124738094D02*
X101084819Y-124738094D01*
X101084819Y-124738094D02*
X101084819Y-124357142D01*
X101084819Y-124357142D02*
X101132438Y-124261904D01*
X101132438Y-124261904D02*
X101180057Y-124214285D01*
X101180057Y-124214285D02*
X101275295Y-124166666D01*
X101275295Y-124166666D02*
X101418152Y-124166666D01*
X101418152Y-124166666D02*
X101513390Y-124214285D01*
X101513390Y-124214285D02*
X101561009Y-124261904D01*
X101561009Y-124261904D02*
X101608628Y-124357142D01*
X101608628Y-124357142D02*
X101608628Y-124738094D01*
X101084819Y-123261904D02*
X101084819Y-123738094D01*
X101084819Y-123738094D02*
X101561009Y-123785713D01*
X101561009Y-123785713D02*
X101513390Y-123738094D01*
X101513390Y-123738094D02*
X101465771Y-123642856D01*
X101465771Y-123642856D02*
X101465771Y-123404761D01*
X101465771Y-123404761D02*
X101513390Y-123309523D01*
X101513390Y-123309523D02*
X101561009Y-123261904D01*
X101561009Y-123261904D02*
X101656247Y-123214285D01*
X101656247Y-123214285D02*
X101894342Y-123214285D01*
X101894342Y-123214285D02*
X101989580Y-123261904D01*
X101989580Y-123261904D02*
X102037200Y-123309523D01*
X102037200Y-123309523D02*
X102084819Y-123404761D01*
X102084819Y-123404761D02*
X102084819Y-123642856D01*
X102084819Y-123642856D02*
X102037200Y-123738094D01*
X102037200Y-123738094D02*
X101989580Y-123785713D01*
X102584819Y-79166666D02*
X102108628Y-79499999D01*
X102584819Y-79738094D02*
X101584819Y-79738094D01*
X101584819Y-79738094D02*
X101584819Y-79357142D01*
X101584819Y-79357142D02*
X101632438Y-79261904D01*
X101632438Y-79261904D02*
X101680057Y-79214285D01*
X101680057Y-79214285D02*
X101775295Y-79166666D01*
X101775295Y-79166666D02*
X101918152Y-79166666D01*
X101918152Y-79166666D02*
X102013390Y-79214285D01*
X102013390Y-79214285D02*
X102061009Y-79261904D01*
X102061009Y-79261904D02*
X102108628Y-79357142D01*
X102108628Y-79357142D02*
X102108628Y-79738094D01*
X101918152Y-78309523D02*
X102584819Y-78309523D01*
X101537200Y-78547618D02*
X102251485Y-78785713D01*
X102251485Y-78785713D02*
X102251485Y-78166666D01*
X85833333Y-133584819D02*
X85500000Y-133108628D01*
X85261905Y-133584819D02*
X85261905Y-132584819D01*
X85261905Y-132584819D02*
X85642857Y-132584819D01*
X85642857Y-132584819D02*
X85738095Y-132632438D01*
X85738095Y-132632438D02*
X85785714Y-132680057D01*
X85785714Y-132680057D02*
X85833333Y-132775295D01*
X85833333Y-132775295D02*
X85833333Y-132918152D01*
X85833333Y-132918152D02*
X85785714Y-133013390D01*
X85785714Y-133013390D02*
X85738095Y-133061009D01*
X85738095Y-133061009D02*
X85642857Y-133108628D01*
X85642857Y-133108628D02*
X85261905Y-133108628D01*
X86166667Y-132584819D02*
X86785714Y-132584819D01*
X86785714Y-132584819D02*
X86452381Y-132965771D01*
X86452381Y-132965771D02*
X86595238Y-132965771D01*
X86595238Y-132965771D02*
X86690476Y-133013390D01*
X86690476Y-133013390D02*
X86738095Y-133061009D01*
X86738095Y-133061009D02*
X86785714Y-133156247D01*
X86785714Y-133156247D02*
X86785714Y-133394342D01*
X86785714Y-133394342D02*
X86738095Y-133489580D01*
X86738095Y-133489580D02*
X86690476Y-133537200D01*
X86690476Y-133537200D02*
X86595238Y-133584819D01*
X86595238Y-133584819D02*
X86309524Y-133584819D01*
X86309524Y-133584819D02*
X86214286Y-133537200D01*
X86214286Y-133537200D02*
X86166667Y-133489580D01*
X85333333Y-145584819D02*
X85000000Y-145108628D01*
X84761905Y-145584819D02*
X84761905Y-144584819D01*
X84761905Y-144584819D02*
X85142857Y-144584819D01*
X85142857Y-144584819D02*
X85238095Y-144632438D01*
X85238095Y-144632438D02*
X85285714Y-144680057D01*
X85285714Y-144680057D02*
X85333333Y-144775295D01*
X85333333Y-144775295D02*
X85333333Y-144918152D01*
X85333333Y-144918152D02*
X85285714Y-145013390D01*
X85285714Y-145013390D02*
X85238095Y-145061009D01*
X85238095Y-145061009D02*
X85142857Y-145108628D01*
X85142857Y-145108628D02*
X84761905Y-145108628D01*
X85714286Y-144680057D02*
X85761905Y-144632438D01*
X85761905Y-144632438D02*
X85857143Y-144584819D01*
X85857143Y-144584819D02*
X86095238Y-144584819D01*
X86095238Y-144584819D02*
X86190476Y-144632438D01*
X86190476Y-144632438D02*
X86238095Y-144680057D01*
X86238095Y-144680057D02*
X86285714Y-144775295D01*
X86285714Y-144775295D02*
X86285714Y-144870533D01*
X86285714Y-144870533D02*
X86238095Y-145013390D01*
X86238095Y-145013390D02*
X85666667Y-145584819D01*
X85666667Y-145584819D02*
X86285714Y-145584819D01*
X136828333Y-127334819D02*
X136495000Y-126858628D01*
X136256905Y-127334819D02*
X136256905Y-126334819D01*
X136256905Y-126334819D02*
X136637857Y-126334819D01*
X136637857Y-126334819D02*
X136733095Y-126382438D01*
X136733095Y-126382438D02*
X136780714Y-126430057D01*
X136780714Y-126430057D02*
X136828333Y-126525295D01*
X136828333Y-126525295D02*
X136828333Y-126668152D01*
X136828333Y-126668152D02*
X136780714Y-126763390D01*
X136780714Y-126763390D02*
X136733095Y-126811009D01*
X136733095Y-126811009D02*
X136637857Y-126858628D01*
X136637857Y-126858628D02*
X136256905Y-126858628D01*
X137780714Y-127334819D02*
X137209286Y-127334819D01*
X137495000Y-127334819D02*
X137495000Y-126334819D01*
X137495000Y-126334819D02*
X137399762Y-126477676D01*
X137399762Y-126477676D02*
X137304524Y-126572914D01*
X137304524Y-126572914D02*
X137209286Y-126620533D01*
X132444761Y-103450057D02*
X132349523Y-103402438D01*
X132349523Y-103402438D02*
X132254285Y-103307200D01*
X132254285Y-103307200D02*
X132111428Y-103164342D01*
X132111428Y-103164342D02*
X132016190Y-103116723D01*
X132016190Y-103116723D02*
X131920952Y-103116723D01*
X131968571Y-103354819D02*
X131873333Y-103307200D01*
X131873333Y-103307200D02*
X131778095Y-103211961D01*
X131778095Y-103211961D02*
X131730476Y-103021485D01*
X131730476Y-103021485D02*
X131730476Y-102688152D01*
X131730476Y-102688152D02*
X131778095Y-102497676D01*
X131778095Y-102497676D02*
X131873333Y-102402438D01*
X131873333Y-102402438D02*
X131968571Y-102354819D01*
X131968571Y-102354819D02*
X132159047Y-102354819D01*
X132159047Y-102354819D02*
X132254285Y-102402438D01*
X132254285Y-102402438D02*
X132349523Y-102497676D01*
X132349523Y-102497676D02*
X132397142Y-102688152D01*
X132397142Y-102688152D02*
X132397142Y-103021485D01*
X132397142Y-103021485D02*
X132349523Y-103211961D01*
X132349523Y-103211961D02*
X132254285Y-103307200D01*
X132254285Y-103307200D02*
X132159047Y-103354819D01*
X132159047Y-103354819D02*
X131968571Y-103354819D01*
X132778095Y-102450057D02*
X132825714Y-102402438D01*
X132825714Y-102402438D02*
X132920952Y-102354819D01*
X132920952Y-102354819D02*
X133159047Y-102354819D01*
X133159047Y-102354819D02*
X133254285Y-102402438D01*
X133254285Y-102402438D02*
X133301904Y-102450057D01*
X133301904Y-102450057D02*
X133349523Y-102545295D01*
X133349523Y-102545295D02*
X133349523Y-102640533D01*
X133349523Y-102640533D02*
X133301904Y-102783390D01*
X133301904Y-102783390D02*
X132730476Y-103354819D01*
X132730476Y-103354819D02*
X133349523Y-103354819D01*
X122870057Y-83055238D02*
X122822438Y-83150476D01*
X122822438Y-83150476D02*
X122727200Y-83245714D01*
X122727200Y-83245714D02*
X122584342Y-83388571D01*
X122584342Y-83388571D02*
X122536723Y-83483809D01*
X122536723Y-83483809D02*
X122536723Y-83579047D01*
X122774819Y-83531428D02*
X122727200Y-83626666D01*
X122727200Y-83626666D02*
X122631961Y-83721904D01*
X122631961Y-83721904D02*
X122441485Y-83769523D01*
X122441485Y-83769523D02*
X122108152Y-83769523D01*
X122108152Y-83769523D02*
X121917676Y-83721904D01*
X121917676Y-83721904D02*
X121822438Y-83626666D01*
X121822438Y-83626666D02*
X121774819Y-83531428D01*
X121774819Y-83531428D02*
X121774819Y-83340952D01*
X121774819Y-83340952D02*
X121822438Y-83245714D01*
X121822438Y-83245714D02*
X121917676Y-83150476D01*
X121917676Y-83150476D02*
X122108152Y-83102857D01*
X122108152Y-83102857D02*
X122441485Y-83102857D01*
X122441485Y-83102857D02*
X122631961Y-83150476D01*
X122631961Y-83150476D02*
X122727200Y-83245714D01*
X122727200Y-83245714D02*
X122774819Y-83340952D01*
X122774819Y-83340952D02*
X122774819Y-83531428D01*
X122774819Y-82150476D02*
X122774819Y-82721904D01*
X122774819Y-82436190D02*
X121774819Y-82436190D01*
X121774819Y-82436190D02*
X121917676Y-82531428D01*
X121917676Y-82531428D02*
X122012914Y-82626666D01*
X122012914Y-82626666D02*
X122060533Y-82721904D01*
X119857143Y-55204819D02*
X119857143Y-54204819D01*
X119857143Y-54204819D02*
X120238095Y-54204819D01*
X120238095Y-54204819D02*
X120333333Y-54252438D01*
X120333333Y-54252438D02*
X120380952Y-54300057D01*
X120380952Y-54300057D02*
X120428571Y-54395295D01*
X120428571Y-54395295D02*
X120428571Y-54538152D01*
X120428571Y-54538152D02*
X120380952Y-54633390D01*
X120380952Y-54633390D02*
X120333333Y-54681009D01*
X120333333Y-54681009D02*
X120238095Y-54728628D01*
X120238095Y-54728628D02*
X119857143Y-54728628D01*
X120761905Y-54204819D02*
X121000000Y-55204819D01*
X121000000Y-55204819D02*
X121190476Y-54490533D01*
X121190476Y-54490533D02*
X121380952Y-55204819D01*
X121380952Y-55204819D02*
X121619048Y-54204819D01*
X122000000Y-55204819D02*
X122000000Y-54204819D01*
X122000000Y-54204819D02*
X122333333Y-54919104D01*
X122333333Y-54919104D02*
X122666666Y-54204819D01*
X122666666Y-54204819D02*
X122666666Y-55204819D01*
X122904762Y-55300057D02*
X123666666Y-55300057D01*
X123761905Y-54204819D02*
X124333333Y-54204819D01*
X124047619Y-55204819D02*
X124047619Y-54204819D01*
X124571429Y-54204819D02*
X125190476Y-54204819D01*
X125190476Y-54204819D02*
X124857143Y-54585771D01*
X124857143Y-54585771D02*
X125000000Y-54585771D01*
X125000000Y-54585771D02*
X125095238Y-54633390D01*
X125095238Y-54633390D02*
X125142857Y-54681009D01*
X125142857Y-54681009D02*
X125190476Y-54776247D01*
X125190476Y-54776247D02*
X125190476Y-55014342D01*
X125190476Y-55014342D02*
X125142857Y-55109580D01*
X125142857Y-55109580D02*
X125095238Y-55157200D01*
X125095238Y-55157200D02*
X125000000Y-55204819D01*
X125000000Y-55204819D02*
X124714286Y-55204819D01*
X124714286Y-55204819D02*
X124619048Y-55157200D01*
X124619048Y-55157200D02*
X124571429Y-55109580D01*
X59119048Y-84004819D02*
X59119048Y-83004819D01*
X59119048Y-83004819D02*
X59500000Y-83004819D01*
X59500000Y-83004819D02*
X59595238Y-83052438D01*
X59595238Y-83052438D02*
X59642857Y-83100057D01*
X59642857Y-83100057D02*
X59690476Y-83195295D01*
X59690476Y-83195295D02*
X59690476Y-83338152D01*
X59690476Y-83338152D02*
X59642857Y-83433390D01*
X59642857Y-83433390D02*
X59595238Y-83481009D01*
X59595238Y-83481009D02*
X59500000Y-83528628D01*
X59500000Y-83528628D02*
X59119048Y-83528628D01*
X60023810Y-83004819D02*
X60261905Y-84004819D01*
X60261905Y-84004819D02*
X60452381Y-83290533D01*
X60452381Y-83290533D02*
X60642857Y-84004819D01*
X60642857Y-84004819D02*
X60880953Y-83004819D01*
X61261905Y-84004819D02*
X61261905Y-83004819D01*
X61261905Y-83004819D02*
X61595238Y-83719104D01*
X61595238Y-83719104D02*
X61928571Y-83004819D01*
X61928571Y-83004819D02*
X61928571Y-84004819D01*
X62928571Y-84004819D02*
X62357143Y-84004819D01*
X62642857Y-84004819D02*
X62642857Y-83004819D01*
X62642857Y-83004819D02*
X62547619Y-83147676D01*
X62547619Y-83147676D02*
X62452381Y-83242914D01*
X62452381Y-83242914D02*
X62357143Y-83290533D01*
X56357142Y-130704819D02*
X56547618Y-130704819D01*
X56547618Y-130704819D02*
X56642856Y-130752438D01*
X56642856Y-130752438D02*
X56738094Y-130847676D01*
X56738094Y-130847676D02*
X56785713Y-131038152D01*
X56785713Y-131038152D02*
X56785713Y-131371485D01*
X56785713Y-131371485D02*
X56738094Y-131561961D01*
X56738094Y-131561961D02*
X56642856Y-131657200D01*
X56642856Y-131657200D02*
X56547618Y-131704819D01*
X56547618Y-131704819D02*
X56357142Y-131704819D01*
X56357142Y-131704819D02*
X56261904Y-131657200D01*
X56261904Y-131657200D02*
X56166666Y-131561961D01*
X56166666Y-131561961D02*
X56119047Y-131371485D01*
X56119047Y-131371485D02*
X56119047Y-131038152D01*
X56119047Y-131038152D02*
X56166666Y-130847676D01*
X56166666Y-130847676D02*
X56261904Y-130752438D01*
X56261904Y-130752438D02*
X56357142Y-130704819D01*
X57214285Y-131704819D02*
X57214285Y-130704819D01*
X57214285Y-130704819D02*
X57595237Y-130704819D01*
X57595237Y-130704819D02*
X57690475Y-130752438D01*
X57690475Y-130752438D02*
X57738094Y-130800057D01*
X57738094Y-130800057D02*
X57785713Y-130895295D01*
X57785713Y-130895295D02*
X57785713Y-131038152D01*
X57785713Y-131038152D02*
X57738094Y-131133390D01*
X57738094Y-131133390D02*
X57690475Y-131181009D01*
X57690475Y-131181009D02*
X57595237Y-131228628D01*
X57595237Y-131228628D02*
X57214285Y-131228628D01*
X58166666Y-131419104D02*
X58642856Y-131419104D01*
X58071428Y-131704819D02*
X58404761Y-130704819D01*
X58404761Y-130704819D02*
X58738094Y-131704819D01*
X59071428Y-131704819D02*
X59071428Y-130704819D01*
X59071428Y-130704819D02*
X59404761Y-131419104D01*
X59404761Y-131419104D02*
X59738094Y-130704819D01*
X59738094Y-130704819D02*
X59738094Y-131704819D01*
X60214285Y-131704819D02*
X60214285Y-130704819D01*
X60214285Y-130704819D02*
X60595237Y-130704819D01*
X60595237Y-130704819D02*
X60690475Y-130752438D01*
X60690475Y-130752438D02*
X60738094Y-130800057D01*
X60738094Y-130800057D02*
X60785713Y-130895295D01*
X60785713Y-130895295D02*
X60785713Y-131038152D01*
X60785713Y-131038152D02*
X60738094Y-131133390D01*
X60738094Y-131133390D02*
X60690475Y-131181009D01*
X60690475Y-131181009D02*
X60595237Y-131228628D01*
X60595237Y-131228628D02*
X60214285Y-131228628D01*
X60976190Y-131800057D02*
X61738094Y-131800057D01*
X62166666Y-130704819D02*
X62357142Y-130704819D01*
X62357142Y-130704819D02*
X62452380Y-130752438D01*
X62452380Y-130752438D02*
X62547618Y-130847676D01*
X62547618Y-130847676D02*
X62595237Y-131038152D01*
X62595237Y-131038152D02*
X62595237Y-131371485D01*
X62595237Y-131371485D02*
X62547618Y-131561961D01*
X62547618Y-131561961D02*
X62452380Y-131657200D01*
X62452380Y-131657200D02*
X62357142Y-131704819D01*
X62357142Y-131704819D02*
X62166666Y-131704819D01*
X62166666Y-131704819D02*
X62071428Y-131657200D01*
X62071428Y-131657200D02*
X61976190Y-131561961D01*
X61976190Y-131561961D02*
X61928571Y-131371485D01*
X61928571Y-131371485D02*
X61928571Y-131038152D01*
X61928571Y-131038152D02*
X61976190Y-130847676D01*
X61976190Y-130847676D02*
X62071428Y-130752438D01*
X62071428Y-130752438D02*
X62166666Y-130704819D01*
X63023809Y-130704819D02*
X63023809Y-131514342D01*
X63023809Y-131514342D02*
X63071428Y-131609580D01*
X63071428Y-131609580D02*
X63119047Y-131657200D01*
X63119047Y-131657200D02*
X63214285Y-131704819D01*
X63214285Y-131704819D02*
X63404761Y-131704819D01*
X63404761Y-131704819D02*
X63499999Y-131657200D01*
X63499999Y-131657200D02*
X63547618Y-131609580D01*
X63547618Y-131609580D02*
X63595237Y-131514342D01*
X63595237Y-131514342D02*
X63595237Y-130704819D01*
X63928571Y-130704819D02*
X64499999Y-130704819D01*
X64214285Y-131704819D02*
X64214285Y-130704819D01*
X64595238Y-131800057D02*
X65357142Y-131800057D01*
X65452381Y-130704819D02*
X66023809Y-130704819D01*
X65738095Y-131704819D02*
X65738095Y-130704819D01*
X66500000Y-131133390D02*
X66404762Y-131085771D01*
X66404762Y-131085771D02*
X66357143Y-131038152D01*
X66357143Y-131038152D02*
X66309524Y-130942914D01*
X66309524Y-130942914D02*
X66309524Y-130895295D01*
X66309524Y-130895295D02*
X66357143Y-130800057D01*
X66357143Y-130800057D02*
X66404762Y-130752438D01*
X66404762Y-130752438D02*
X66500000Y-130704819D01*
X66500000Y-130704819D02*
X66690476Y-130704819D01*
X66690476Y-130704819D02*
X66785714Y-130752438D01*
X66785714Y-130752438D02*
X66833333Y-130800057D01*
X66833333Y-130800057D02*
X66880952Y-130895295D01*
X66880952Y-130895295D02*
X66880952Y-130942914D01*
X66880952Y-130942914D02*
X66833333Y-131038152D01*
X66833333Y-131038152D02*
X66785714Y-131085771D01*
X66785714Y-131085771D02*
X66690476Y-131133390D01*
X66690476Y-131133390D02*
X66500000Y-131133390D01*
X66500000Y-131133390D02*
X66404762Y-131181009D01*
X66404762Y-131181009D02*
X66357143Y-131228628D01*
X66357143Y-131228628D02*
X66309524Y-131323866D01*
X66309524Y-131323866D02*
X66309524Y-131514342D01*
X66309524Y-131514342D02*
X66357143Y-131609580D01*
X66357143Y-131609580D02*
X66404762Y-131657200D01*
X66404762Y-131657200D02*
X66500000Y-131704819D01*
X66500000Y-131704819D02*
X66690476Y-131704819D01*
X66690476Y-131704819D02*
X66785714Y-131657200D01*
X66785714Y-131657200D02*
X66833333Y-131609580D01*
X66833333Y-131609580D02*
X66880952Y-131514342D01*
X66880952Y-131514342D02*
X66880952Y-131323866D01*
X66880952Y-131323866D02*
X66833333Y-131228628D01*
X66833333Y-131228628D02*
X66785714Y-131181009D01*
X66785714Y-131181009D02*
X66690476Y-131133390D01*
X159809523Y-55204819D02*
X159333333Y-55204819D01*
X159333333Y-55204819D02*
X159333333Y-54204819D01*
X160333333Y-54204819D02*
X160523809Y-54204819D01*
X160523809Y-54204819D02*
X160619047Y-54252438D01*
X160619047Y-54252438D02*
X160714285Y-54347676D01*
X160714285Y-54347676D02*
X160761904Y-54538152D01*
X160761904Y-54538152D02*
X160761904Y-54871485D01*
X160761904Y-54871485D02*
X160714285Y-55061961D01*
X160714285Y-55061961D02*
X160619047Y-55157200D01*
X160619047Y-55157200D02*
X160523809Y-55204819D01*
X160523809Y-55204819D02*
X160333333Y-55204819D01*
X160333333Y-55204819D02*
X160238095Y-55157200D01*
X160238095Y-55157200D02*
X160142857Y-55061961D01*
X160142857Y-55061961D02*
X160095238Y-54871485D01*
X160095238Y-54871485D02*
X160095238Y-54538152D01*
X160095238Y-54538152D02*
X160142857Y-54347676D01*
X160142857Y-54347676D02*
X160238095Y-54252438D01*
X160238095Y-54252438D02*
X160333333Y-54204819D01*
X161095238Y-54204819D02*
X161333333Y-55204819D01*
X161333333Y-55204819D02*
X161523809Y-54490533D01*
X161523809Y-54490533D02*
X161714285Y-55204819D01*
X161714285Y-55204819D02*
X161952381Y-54204819D01*
X162095238Y-55300057D02*
X162857142Y-55300057D01*
X162952381Y-54204819D02*
X163285714Y-55204819D01*
X163285714Y-55204819D02*
X163619047Y-54204819D01*
X164380952Y-55204819D02*
X164380952Y-54204819D01*
X164380952Y-55157200D02*
X164285714Y-55204819D01*
X164285714Y-55204819D02*
X164095238Y-55204819D01*
X164095238Y-55204819D02*
X164000000Y-55157200D01*
X164000000Y-55157200D02*
X163952381Y-55109580D01*
X163952381Y-55109580D02*
X163904762Y-55014342D01*
X163904762Y-55014342D02*
X163904762Y-54728628D01*
X163904762Y-54728628D02*
X163952381Y-54633390D01*
X163952381Y-54633390D02*
X164000000Y-54585771D01*
X164000000Y-54585771D02*
X164095238Y-54538152D01*
X164095238Y-54538152D02*
X164285714Y-54538152D01*
X164285714Y-54538152D02*
X164380952Y-54585771D01*
X164809524Y-55157200D02*
X164904762Y-55204819D01*
X164904762Y-55204819D02*
X165095238Y-55204819D01*
X165095238Y-55204819D02*
X165190476Y-55157200D01*
X165190476Y-55157200D02*
X165238095Y-55061961D01*
X165238095Y-55061961D02*
X165238095Y-55014342D01*
X165238095Y-55014342D02*
X165190476Y-54919104D01*
X165190476Y-54919104D02*
X165095238Y-54871485D01*
X165095238Y-54871485D02*
X164952381Y-54871485D01*
X164952381Y-54871485D02*
X164857143Y-54823866D01*
X164857143Y-54823866D02*
X164809524Y-54728628D01*
X164809524Y-54728628D02*
X164809524Y-54681009D01*
X164809524Y-54681009D02*
X164857143Y-54585771D01*
X164857143Y-54585771D02*
X164952381Y-54538152D01*
X164952381Y-54538152D02*
X165095238Y-54538152D01*
X165095238Y-54538152D02*
X165190476Y-54585771D01*
X165428572Y-55300057D02*
X166190476Y-55300057D01*
X166285715Y-54204819D02*
X166857143Y-54204819D01*
X166571429Y-55204819D02*
X166571429Y-54204819D01*
X167666667Y-54204819D02*
X167190477Y-54204819D01*
X167190477Y-54204819D02*
X167142858Y-54681009D01*
X167142858Y-54681009D02*
X167190477Y-54633390D01*
X167190477Y-54633390D02*
X167285715Y-54585771D01*
X167285715Y-54585771D02*
X167523810Y-54585771D01*
X167523810Y-54585771D02*
X167619048Y-54633390D01*
X167619048Y-54633390D02*
X167666667Y-54681009D01*
X167666667Y-54681009D02*
X167714286Y-54776247D01*
X167714286Y-54776247D02*
X167714286Y-55014342D01*
X167714286Y-55014342D02*
X167666667Y-55109580D01*
X167666667Y-55109580D02*
X167619048Y-55157200D01*
X167619048Y-55157200D02*
X167523810Y-55204819D01*
X167523810Y-55204819D02*
X167285715Y-55204819D01*
X167285715Y-55204819D02*
X167190477Y-55157200D01*
X167190477Y-55157200D02*
X167142858Y-55109580D01*
X137476190Y-55204819D02*
X137000000Y-55204819D01*
X137000000Y-55204819D02*
X137000000Y-54204819D01*
X138000000Y-54204819D02*
X138190476Y-54204819D01*
X138190476Y-54204819D02*
X138285714Y-54252438D01*
X138285714Y-54252438D02*
X138380952Y-54347676D01*
X138380952Y-54347676D02*
X138428571Y-54538152D01*
X138428571Y-54538152D02*
X138428571Y-54871485D01*
X138428571Y-54871485D02*
X138380952Y-55061961D01*
X138380952Y-55061961D02*
X138285714Y-55157200D01*
X138285714Y-55157200D02*
X138190476Y-55204819D01*
X138190476Y-55204819D02*
X138000000Y-55204819D01*
X138000000Y-55204819D02*
X137904762Y-55157200D01*
X137904762Y-55157200D02*
X137809524Y-55061961D01*
X137809524Y-55061961D02*
X137761905Y-54871485D01*
X137761905Y-54871485D02*
X137761905Y-54538152D01*
X137761905Y-54538152D02*
X137809524Y-54347676D01*
X137809524Y-54347676D02*
X137904762Y-54252438D01*
X137904762Y-54252438D02*
X138000000Y-54204819D01*
X138761905Y-54204819D02*
X139000000Y-55204819D01*
X139000000Y-55204819D02*
X139190476Y-54490533D01*
X139190476Y-54490533D02*
X139380952Y-55204819D01*
X139380952Y-55204819D02*
X139619048Y-54204819D01*
X140000000Y-55204819D02*
X140000000Y-54204819D01*
X140000000Y-54204819D02*
X140238095Y-54204819D01*
X140238095Y-54204819D02*
X140380952Y-54252438D01*
X140380952Y-54252438D02*
X140476190Y-54347676D01*
X140476190Y-54347676D02*
X140523809Y-54442914D01*
X140523809Y-54442914D02*
X140571428Y-54633390D01*
X140571428Y-54633390D02*
X140571428Y-54776247D01*
X140571428Y-54776247D02*
X140523809Y-54966723D01*
X140523809Y-54966723D02*
X140476190Y-55061961D01*
X140476190Y-55061961D02*
X140380952Y-55157200D01*
X140380952Y-55157200D02*
X140238095Y-55204819D01*
X140238095Y-55204819D02*
X140000000Y-55204819D01*
X141571428Y-55204819D02*
X141238095Y-54728628D01*
X141000000Y-55204819D02*
X141000000Y-54204819D01*
X141000000Y-54204819D02*
X141380952Y-54204819D01*
X141380952Y-54204819D02*
X141476190Y-54252438D01*
X141476190Y-54252438D02*
X141523809Y-54300057D01*
X141523809Y-54300057D02*
X141571428Y-54395295D01*
X141571428Y-54395295D02*
X141571428Y-54538152D01*
X141571428Y-54538152D02*
X141523809Y-54633390D01*
X141523809Y-54633390D02*
X141476190Y-54681009D01*
X141476190Y-54681009D02*
X141380952Y-54728628D01*
X141380952Y-54728628D02*
X141000000Y-54728628D01*
X141761905Y-55300057D02*
X142523809Y-55300057D01*
X142619048Y-54204819D02*
X143190476Y-54204819D01*
X142904762Y-55204819D02*
X142904762Y-54204819D01*
X143952381Y-54538152D02*
X143952381Y-55204819D01*
X143714286Y-54157200D02*
X143476191Y-54871485D01*
X143476191Y-54871485D02*
X144095238Y-54871485D01*
D12*
X147788333Y-107574318D02*
X147183571Y-107574318D01*
X147183571Y-107574318D02*
X147183571Y-106304318D01*
X148876905Y-107574318D02*
X148151190Y-107574318D01*
X148514047Y-107574318D02*
X148514047Y-106304318D01*
X148514047Y-106304318D02*
X148393095Y-106485746D01*
X148393095Y-106485746D02*
X148272143Y-106606699D01*
X148272143Y-106606699D02*
X148151190Y-106667175D01*
D11*
X201499999Y-125502438D02*
X201404761Y-125454819D01*
X201404761Y-125454819D02*
X201261904Y-125454819D01*
X201261904Y-125454819D02*
X201119047Y-125502438D01*
X201119047Y-125502438D02*
X201023809Y-125597676D01*
X201023809Y-125597676D02*
X200976190Y-125692914D01*
X200976190Y-125692914D02*
X200928571Y-125883390D01*
X200928571Y-125883390D02*
X200928571Y-126026247D01*
X200928571Y-126026247D02*
X200976190Y-126216723D01*
X200976190Y-126216723D02*
X201023809Y-126311961D01*
X201023809Y-126311961D02*
X201119047Y-126407200D01*
X201119047Y-126407200D02*
X201261904Y-126454819D01*
X201261904Y-126454819D02*
X201357142Y-126454819D01*
X201357142Y-126454819D02*
X201499999Y-126407200D01*
X201499999Y-126407200D02*
X201547618Y-126359580D01*
X201547618Y-126359580D02*
X201547618Y-126026247D01*
X201547618Y-126026247D02*
X201357142Y-126026247D01*
X201976190Y-126454819D02*
X201976190Y-125454819D01*
X201976190Y-125454819D02*
X202547618Y-126454819D01*
X202547618Y-126454819D02*
X202547618Y-125454819D01*
X203023809Y-126454819D02*
X203023809Y-125454819D01*
X203023809Y-125454819D02*
X203261904Y-125454819D01*
X203261904Y-125454819D02*
X203404761Y-125502438D01*
X203404761Y-125502438D02*
X203499999Y-125597676D01*
X203499999Y-125597676D02*
X203547618Y-125692914D01*
X203547618Y-125692914D02*
X203595237Y-125883390D01*
X203595237Y-125883390D02*
X203595237Y-126026247D01*
X203595237Y-126026247D02*
X203547618Y-126216723D01*
X203547618Y-126216723D02*
X203499999Y-126311961D01*
X203499999Y-126311961D02*
X203404761Y-126407200D01*
X203404761Y-126407200D02*
X203261904Y-126454819D01*
X203261904Y-126454819D02*
X203023809Y-126454819D01*
X203785714Y-126550057D02*
X204547618Y-126550057D01*
X204642857Y-125454819D02*
X205214285Y-125454819D01*
X204928571Y-126454819D02*
X204928571Y-125454819D01*
X205452381Y-125454819D02*
X206119047Y-125454819D01*
X206119047Y-125454819D02*
X205690476Y-126454819D01*
X192999999Y-87752438D02*
X192904761Y-87704819D01*
X192904761Y-87704819D02*
X192761904Y-87704819D01*
X192761904Y-87704819D02*
X192619047Y-87752438D01*
X192619047Y-87752438D02*
X192523809Y-87847676D01*
X192523809Y-87847676D02*
X192476190Y-87942914D01*
X192476190Y-87942914D02*
X192428571Y-88133390D01*
X192428571Y-88133390D02*
X192428571Y-88276247D01*
X192428571Y-88276247D02*
X192476190Y-88466723D01*
X192476190Y-88466723D02*
X192523809Y-88561961D01*
X192523809Y-88561961D02*
X192619047Y-88657200D01*
X192619047Y-88657200D02*
X192761904Y-88704819D01*
X192761904Y-88704819D02*
X192857142Y-88704819D01*
X192857142Y-88704819D02*
X192999999Y-88657200D01*
X192999999Y-88657200D02*
X193047618Y-88609580D01*
X193047618Y-88609580D02*
X193047618Y-88276247D01*
X193047618Y-88276247D02*
X192857142Y-88276247D01*
X193476190Y-88704819D02*
X193476190Y-87704819D01*
X193476190Y-87704819D02*
X194047618Y-88704819D01*
X194047618Y-88704819D02*
X194047618Y-87704819D01*
X194523809Y-88704819D02*
X194523809Y-87704819D01*
X194523809Y-87704819D02*
X194761904Y-87704819D01*
X194761904Y-87704819D02*
X194904761Y-87752438D01*
X194904761Y-87752438D02*
X194999999Y-87847676D01*
X194999999Y-87847676D02*
X195047618Y-87942914D01*
X195047618Y-87942914D02*
X195095237Y-88133390D01*
X195095237Y-88133390D02*
X195095237Y-88276247D01*
X195095237Y-88276247D02*
X195047618Y-88466723D01*
X195047618Y-88466723D02*
X194999999Y-88561961D01*
X194999999Y-88561961D02*
X194904761Y-88657200D01*
X194904761Y-88657200D02*
X194761904Y-88704819D01*
X194761904Y-88704819D02*
X194523809Y-88704819D01*
X195285714Y-88800057D02*
X196047618Y-88800057D01*
X196142857Y-87704819D02*
X196714285Y-87704819D01*
X196428571Y-88704819D02*
X196428571Y-87704819D01*
X197476190Y-87704819D02*
X197285714Y-87704819D01*
X197285714Y-87704819D02*
X197190476Y-87752438D01*
X197190476Y-87752438D02*
X197142857Y-87800057D01*
X197142857Y-87800057D02*
X197047619Y-87942914D01*
X197047619Y-87942914D02*
X197000000Y-88133390D01*
X197000000Y-88133390D02*
X197000000Y-88514342D01*
X197000000Y-88514342D02*
X197047619Y-88609580D01*
X197047619Y-88609580D02*
X197095238Y-88657200D01*
X197095238Y-88657200D02*
X197190476Y-88704819D01*
X197190476Y-88704819D02*
X197380952Y-88704819D01*
X197380952Y-88704819D02*
X197476190Y-88657200D01*
X197476190Y-88657200D02*
X197523809Y-88609580D01*
X197523809Y-88609580D02*
X197571428Y-88514342D01*
X197571428Y-88514342D02*
X197571428Y-88276247D01*
X197571428Y-88276247D02*
X197523809Y-88181009D01*
X197523809Y-88181009D02*
X197476190Y-88133390D01*
X197476190Y-88133390D02*
X197380952Y-88085771D01*
X197380952Y-88085771D02*
X197190476Y-88085771D01*
X197190476Y-88085771D02*
X197095238Y-88133390D01*
X197095238Y-88133390D02*
X197047619Y-88181009D01*
X197047619Y-88181009D02*
X197000000Y-88276247D01*
X169999999Y-54252438D02*
X169904761Y-54204819D01*
X169904761Y-54204819D02*
X169761904Y-54204819D01*
X169761904Y-54204819D02*
X169619047Y-54252438D01*
X169619047Y-54252438D02*
X169523809Y-54347676D01*
X169523809Y-54347676D02*
X169476190Y-54442914D01*
X169476190Y-54442914D02*
X169428571Y-54633390D01*
X169428571Y-54633390D02*
X169428571Y-54776247D01*
X169428571Y-54776247D02*
X169476190Y-54966723D01*
X169476190Y-54966723D02*
X169523809Y-55061961D01*
X169523809Y-55061961D02*
X169619047Y-55157200D01*
X169619047Y-55157200D02*
X169761904Y-55204819D01*
X169761904Y-55204819D02*
X169857142Y-55204819D01*
X169857142Y-55204819D02*
X169999999Y-55157200D01*
X169999999Y-55157200D02*
X170047618Y-55109580D01*
X170047618Y-55109580D02*
X170047618Y-54776247D01*
X170047618Y-54776247D02*
X169857142Y-54776247D01*
X170476190Y-55204819D02*
X170476190Y-54204819D01*
X170476190Y-54204819D02*
X171047618Y-55204819D01*
X171047618Y-55204819D02*
X171047618Y-54204819D01*
X171523809Y-55204819D02*
X171523809Y-54204819D01*
X171523809Y-54204819D02*
X171761904Y-54204819D01*
X171761904Y-54204819D02*
X171904761Y-54252438D01*
X171904761Y-54252438D02*
X171999999Y-54347676D01*
X171999999Y-54347676D02*
X172047618Y-54442914D01*
X172047618Y-54442914D02*
X172095237Y-54633390D01*
X172095237Y-54633390D02*
X172095237Y-54776247D01*
X172095237Y-54776247D02*
X172047618Y-54966723D01*
X172047618Y-54966723D02*
X171999999Y-55061961D01*
X171999999Y-55061961D02*
X171904761Y-55157200D01*
X171904761Y-55157200D02*
X171761904Y-55204819D01*
X171761904Y-55204819D02*
X171523809Y-55204819D01*
X172285714Y-55300057D02*
X173047618Y-55300057D01*
X173142857Y-54204819D02*
X173714285Y-54204819D01*
X173428571Y-55204819D02*
X173428571Y-54204819D01*
X174523809Y-54204819D02*
X174047619Y-54204819D01*
X174047619Y-54204819D02*
X174000000Y-54681009D01*
X174000000Y-54681009D02*
X174047619Y-54633390D01*
X174047619Y-54633390D02*
X174142857Y-54585771D01*
X174142857Y-54585771D02*
X174380952Y-54585771D01*
X174380952Y-54585771D02*
X174476190Y-54633390D01*
X174476190Y-54633390D02*
X174523809Y-54681009D01*
X174523809Y-54681009D02*
X174571428Y-54776247D01*
X174571428Y-54776247D02*
X174571428Y-55014342D01*
X174571428Y-55014342D02*
X174523809Y-55109580D01*
X174523809Y-55109580D02*
X174476190Y-55157200D01*
X174476190Y-55157200D02*
X174380952Y-55204819D01*
X174380952Y-55204819D02*
X174142857Y-55204819D01*
X174142857Y-55204819D02*
X174047619Y-55157200D01*
X174047619Y-55157200D02*
X174000000Y-55109580D01*
X146999999Y-54252438D02*
X146904761Y-54204819D01*
X146904761Y-54204819D02*
X146761904Y-54204819D01*
X146761904Y-54204819D02*
X146619047Y-54252438D01*
X146619047Y-54252438D02*
X146523809Y-54347676D01*
X146523809Y-54347676D02*
X146476190Y-54442914D01*
X146476190Y-54442914D02*
X146428571Y-54633390D01*
X146428571Y-54633390D02*
X146428571Y-54776247D01*
X146428571Y-54776247D02*
X146476190Y-54966723D01*
X146476190Y-54966723D02*
X146523809Y-55061961D01*
X146523809Y-55061961D02*
X146619047Y-55157200D01*
X146619047Y-55157200D02*
X146761904Y-55204819D01*
X146761904Y-55204819D02*
X146857142Y-55204819D01*
X146857142Y-55204819D02*
X146999999Y-55157200D01*
X146999999Y-55157200D02*
X147047618Y-55109580D01*
X147047618Y-55109580D02*
X147047618Y-54776247D01*
X147047618Y-54776247D02*
X146857142Y-54776247D01*
X147476190Y-55204819D02*
X147476190Y-54204819D01*
X147476190Y-54204819D02*
X148047618Y-55204819D01*
X148047618Y-55204819D02*
X148047618Y-54204819D01*
X148523809Y-55204819D02*
X148523809Y-54204819D01*
X148523809Y-54204819D02*
X148761904Y-54204819D01*
X148761904Y-54204819D02*
X148904761Y-54252438D01*
X148904761Y-54252438D02*
X148999999Y-54347676D01*
X148999999Y-54347676D02*
X149047618Y-54442914D01*
X149047618Y-54442914D02*
X149095237Y-54633390D01*
X149095237Y-54633390D02*
X149095237Y-54776247D01*
X149095237Y-54776247D02*
X149047618Y-54966723D01*
X149047618Y-54966723D02*
X148999999Y-55061961D01*
X148999999Y-55061961D02*
X148904761Y-55157200D01*
X148904761Y-55157200D02*
X148761904Y-55204819D01*
X148761904Y-55204819D02*
X148523809Y-55204819D01*
X149285714Y-55300057D02*
X150047618Y-55300057D01*
X150142857Y-54204819D02*
X150714285Y-54204819D01*
X150428571Y-55204819D02*
X150428571Y-54204819D01*
X151476190Y-54538152D02*
X151476190Y-55204819D01*
X151238095Y-54157200D02*
X151000000Y-54871485D01*
X151000000Y-54871485D02*
X151619047Y-54871485D01*
X127999999Y-54252438D02*
X127904761Y-54204819D01*
X127904761Y-54204819D02*
X127761904Y-54204819D01*
X127761904Y-54204819D02*
X127619047Y-54252438D01*
X127619047Y-54252438D02*
X127523809Y-54347676D01*
X127523809Y-54347676D02*
X127476190Y-54442914D01*
X127476190Y-54442914D02*
X127428571Y-54633390D01*
X127428571Y-54633390D02*
X127428571Y-54776247D01*
X127428571Y-54776247D02*
X127476190Y-54966723D01*
X127476190Y-54966723D02*
X127523809Y-55061961D01*
X127523809Y-55061961D02*
X127619047Y-55157200D01*
X127619047Y-55157200D02*
X127761904Y-55204819D01*
X127761904Y-55204819D02*
X127857142Y-55204819D01*
X127857142Y-55204819D02*
X127999999Y-55157200D01*
X127999999Y-55157200D02*
X128047618Y-55109580D01*
X128047618Y-55109580D02*
X128047618Y-54776247D01*
X128047618Y-54776247D02*
X127857142Y-54776247D01*
X128476190Y-55204819D02*
X128476190Y-54204819D01*
X128476190Y-54204819D02*
X129047618Y-55204819D01*
X129047618Y-55204819D02*
X129047618Y-54204819D01*
X129523809Y-55204819D02*
X129523809Y-54204819D01*
X129523809Y-54204819D02*
X129761904Y-54204819D01*
X129761904Y-54204819D02*
X129904761Y-54252438D01*
X129904761Y-54252438D02*
X129999999Y-54347676D01*
X129999999Y-54347676D02*
X130047618Y-54442914D01*
X130047618Y-54442914D02*
X130095237Y-54633390D01*
X130095237Y-54633390D02*
X130095237Y-54776247D01*
X130095237Y-54776247D02*
X130047618Y-54966723D01*
X130047618Y-54966723D02*
X129999999Y-55061961D01*
X129999999Y-55061961D02*
X129904761Y-55157200D01*
X129904761Y-55157200D02*
X129761904Y-55204819D01*
X129761904Y-55204819D02*
X129523809Y-55204819D01*
X130285714Y-55300057D02*
X131047618Y-55300057D01*
X131142857Y-54204819D02*
X131714285Y-54204819D01*
X131428571Y-55204819D02*
X131428571Y-54204819D01*
X131952381Y-54204819D02*
X132571428Y-54204819D01*
X132571428Y-54204819D02*
X132238095Y-54585771D01*
X132238095Y-54585771D02*
X132380952Y-54585771D01*
X132380952Y-54585771D02*
X132476190Y-54633390D01*
X132476190Y-54633390D02*
X132523809Y-54681009D01*
X132523809Y-54681009D02*
X132571428Y-54776247D01*
X132571428Y-54776247D02*
X132571428Y-55014342D01*
X132571428Y-55014342D02*
X132523809Y-55109580D01*
X132523809Y-55109580D02*
X132476190Y-55157200D01*
X132476190Y-55157200D02*
X132380952Y-55204819D01*
X132380952Y-55204819D02*
X132095238Y-55204819D01*
X132095238Y-55204819D02*
X132000000Y-55157200D01*
X132000000Y-55157200D02*
X131952381Y-55109580D01*
X110499999Y-54252438D02*
X110404761Y-54204819D01*
X110404761Y-54204819D02*
X110261904Y-54204819D01*
X110261904Y-54204819D02*
X110119047Y-54252438D01*
X110119047Y-54252438D02*
X110023809Y-54347676D01*
X110023809Y-54347676D02*
X109976190Y-54442914D01*
X109976190Y-54442914D02*
X109928571Y-54633390D01*
X109928571Y-54633390D02*
X109928571Y-54776247D01*
X109928571Y-54776247D02*
X109976190Y-54966723D01*
X109976190Y-54966723D02*
X110023809Y-55061961D01*
X110023809Y-55061961D02*
X110119047Y-55157200D01*
X110119047Y-55157200D02*
X110261904Y-55204819D01*
X110261904Y-55204819D02*
X110357142Y-55204819D01*
X110357142Y-55204819D02*
X110499999Y-55157200D01*
X110499999Y-55157200D02*
X110547618Y-55109580D01*
X110547618Y-55109580D02*
X110547618Y-54776247D01*
X110547618Y-54776247D02*
X110357142Y-54776247D01*
X110976190Y-55204819D02*
X110976190Y-54204819D01*
X110976190Y-54204819D02*
X111547618Y-55204819D01*
X111547618Y-55204819D02*
X111547618Y-54204819D01*
X112023809Y-55204819D02*
X112023809Y-54204819D01*
X112023809Y-54204819D02*
X112261904Y-54204819D01*
X112261904Y-54204819D02*
X112404761Y-54252438D01*
X112404761Y-54252438D02*
X112499999Y-54347676D01*
X112499999Y-54347676D02*
X112547618Y-54442914D01*
X112547618Y-54442914D02*
X112595237Y-54633390D01*
X112595237Y-54633390D02*
X112595237Y-54776247D01*
X112595237Y-54776247D02*
X112547618Y-54966723D01*
X112547618Y-54966723D02*
X112499999Y-55061961D01*
X112499999Y-55061961D02*
X112404761Y-55157200D01*
X112404761Y-55157200D02*
X112261904Y-55204819D01*
X112261904Y-55204819D02*
X112023809Y-55204819D01*
X112785714Y-55300057D02*
X113547618Y-55300057D01*
X113642857Y-54204819D02*
X114214285Y-54204819D01*
X113928571Y-55204819D02*
X113928571Y-54204819D01*
X114500000Y-54300057D02*
X114547619Y-54252438D01*
X114547619Y-54252438D02*
X114642857Y-54204819D01*
X114642857Y-54204819D02*
X114880952Y-54204819D01*
X114880952Y-54204819D02*
X114976190Y-54252438D01*
X114976190Y-54252438D02*
X115023809Y-54300057D01*
X115023809Y-54300057D02*
X115071428Y-54395295D01*
X115071428Y-54395295D02*
X115071428Y-54490533D01*
X115071428Y-54490533D02*
X115023809Y-54633390D01*
X115023809Y-54633390D02*
X114452381Y-55204819D01*
X114452381Y-55204819D02*
X115071428Y-55204819D01*
X91499999Y-54252438D02*
X91404761Y-54204819D01*
X91404761Y-54204819D02*
X91261904Y-54204819D01*
X91261904Y-54204819D02*
X91119047Y-54252438D01*
X91119047Y-54252438D02*
X91023809Y-54347676D01*
X91023809Y-54347676D02*
X90976190Y-54442914D01*
X90976190Y-54442914D02*
X90928571Y-54633390D01*
X90928571Y-54633390D02*
X90928571Y-54776247D01*
X90928571Y-54776247D02*
X90976190Y-54966723D01*
X90976190Y-54966723D02*
X91023809Y-55061961D01*
X91023809Y-55061961D02*
X91119047Y-55157200D01*
X91119047Y-55157200D02*
X91261904Y-55204819D01*
X91261904Y-55204819D02*
X91357142Y-55204819D01*
X91357142Y-55204819D02*
X91499999Y-55157200D01*
X91499999Y-55157200D02*
X91547618Y-55109580D01*
X91547618Y-55109580D02*
X91547618Y-54776247D01*
X91547618Y-54776247D02*
X91357142Y-54776247D01*
X91976190Y-55204819D02*
X91976190Y-54204819D01*
X91976190Y-54204819D02*
X92547618Y-55204819D01*
X92547618Y-55204819D02*
X92547618Y-54204819D01*
X93023809Y-55204819D02*
X93023809Y-54204819D01*
X93023809Y-54204819D02*
X93261904Y-54204819D01*
X93261904Y-54204819D02*
X93404761Y-54252438D01*
X93404761Y-54252438D02*
X93499999Y-54347676D01*
X93499999Y-54347676D02*
X93547618Y-54442914D01*
X93547618Y-54442914D02*
X93595237Y-54633390D01*
X93595237Y-54633390D02*
X93595237Y-54776247D01*
X93595237Y-54776247D02*
X93547618Y-54966723D01*
X93547618Y-54966723D02*
X93499999Y-55061961D01*
X93499999Y-55061961D02*
X93404761Y-55157200D01*
X93404761Y-55157200D02*
X93261904Y-55204819D01*
X93261904Y-55204819D02*
X93023809Y-55204819D01*
X93785714Y-55300057D02*
X94547618Y-55300057D01*
X94642857Y-54204819D02*
X95214285Y-54204819D01*
X94928571Y-55204819D02*
X94928571Y-54204819D01*
X96071428Y-55204819D02*
X95500000Y-55204819D01*
X95785714Y-55204819D02*
X95785714Y-54204819D01*
X95785714Y-54204819D02*
X95690476Y-54347676D01*
X95690476Y-54347676D02*
X95595238Y-54442914D01*
X95595238Y-54442914D02*
X95500000Y-54490533D01*
X89283333Y-91809580D02*
X89235714Y-91857200D01*
X89235714Y-91857200D02*
X89092857Y-91904819D01*
X89092857Y-91904819D02*
X88997619Y-91904819D01*
X88997619Y-91904819D02*
X88854762Y-91857200D01*
X88854762Y-91857200D02*
X88759524Y-91761961D01*
X88759524Y-91761961D02*
X88711905Y-91666723D01*
X88711905Y-91666723D02*
X88664286Y-91476247D01*
X88664286Y-91476247D02*
X88664286Y-91333390D01*
X88664286Y-91333390D02*
X88711905Y-91142914D01*
X88711905Y-91142914D02*
X88759524Y-91047676D01*
X88759524Y-91047676D02*
X88854762Y-90952438D01*
X88854762Y-90952438D02*
X88997619Y-90904819D01*
X88997619Y-90904819D02*
X89092857Y-90904819D01*
X89092857Y-90904819D02*
X89235714Y-90952438D01*
X89235714Y-90952438D02*
X89283333Y-91000057D01*
X89616667Y-90904819D02*
X90283333Y-90904819D01*
X90283333Y-90904819D02*
X89854762Y-91904819D01*
X56333333Y-74809580D02*
X56285714Y-74857200D01*
X56285714Y-74857200D02*
X56142857Y-74904819D01*
X56142857Y-74904819D02*
X56047619Y-74904819D01*
X56047619Y-74904819D02*
X55904762Y-74857200D01*
X55904762Y-74857200D02*
X55809524Y-74761961D01*
X55809524Y-74761961D02*
X55761905Y-74666723D01*
X55761905Y-74666723D02*
X55714286Y-74476247D01*
X55714286Y-74476247D02*
X55714286Y-74333390D01*
X55714286Y-74333390D02*
X55761905Y-74142914D01*
X55761905Y-74142914D02*
X55809524Y-74047676D01*
X55809524Y-74047676D02*
X55904762Y-73952438D01*
X55904762Y-73952438D02*
X56047619Y-73904819D01*
X56047619Y-73904819D02*
X56142857Y-73904819D01*
X56142857Y-73904819D02*
X56285714Y-73952438D01*
X56285714Y-73952438D02*
X56333333Y-74000057D01*
X57190476Y-73904819D02*
X57000000Y-73904819D01*
X57000000Y-73904819D02*
X56904762Y-73952438D01*
X56904762Y-73952438D02*
X56857143Y-74000057D01*
X56857143Y-74000057D02*
X56761905Y-74142914D01*
X56761905Y-74142914D02*
X56714286Y-74333390D01*
X56714286Y-74333390D02*
X56714286Y-74714342D01*
X56714286Y-74714342D02*
X56761905Y-74809580D01*
X56761905Y-74809580D02*
X56809524Y-74857200D01*
X56809524Y-74857200D02*
X56904762Y-74904819D01*
X56904762Y-74904819D02*
X57095238Y-74904819D01*
X57095238Y-74904819D02*
X57190476Y-74857200D01*
X57190476Y-74857200D02*
X57238095Y-74809580D01*
X57238095Y-74809580D02*
X57285714Y-74714342D01*
X57285714Y-74714342D02*
X57285714Y-74476247D01*
X57285714Y-74476247D02*
X57238095Y-74381009D01*
X57238095Y-74381009D02*
X57190476Y-74333390D01*
X57190476Y-74333390D02*
X57095238Y-74285771D01*
X57095238Y-74285771D02*
X56904762Y-74285771D01*
X56904762Y-74285771D02*
X56809524Y-74333390D01*
X56809524Y-74333390D02*
X56761905Y-74381009D01*
X56761905Y-74381009D02*
X56714286Y-74476247D01*
X56333333Y-66809580D02*
X56285714Y-66857200D01*
X56285714Y-66857200D02*
X56142857Y-66904819D01*
X56142857Y-66904819D02*
X56047619Y-66904819D01*
X56047619Y-66904819D02*
X55904762Y-66857200D01*
X55904762Y-66857200D02*
X55809524Y-66761961D01*
X55809524Y-66761961D02*
X55761905Y-66666723D01*
X55761905Y-66666723D02*
X55714286Y-66476247D01*
X55714286Y-66476247D02*
X55714286Y-66333390D01*
X55714286Y-66333390D02*
X55761905Y-66142914D01*
X55761905Y-66142914D02*
X55809524Y-66047676D01*
X55809524Y-66047676D02*
X55904762Y-65952438D01*
X55904762Y-65952438D02*
X56047619Y-65904819D01*
X56047619Y-65904819D02*
X56142857Y-65904819D01*
X56142857Y-65904819D02*
X56285714Y-65952438D01*
X56285714Y-65952438D02*
X56333333Y-66000057D01*
X57238095Y-65904819D02*
X56761905Y-65904819D01*
X56761905Y-65904819D02*
X56714286Y-66381009D01*
X56714286Y-66381009D02*
X56761905Y-66333390D01*
X56761905Y-66333390D02*
X56857143Y-66285771D01*
X56857143Y-66285771D02*
X57095238Y-66285771D01*
X57095238Y-66285771D02*
X57190476Y-66333390D01*
X57190476Y-66333390D02*
X57238095Y-66381009D01*
X57238095Y-66381009D02*
X57285714Y-66476247D01*
X57285714Y-66476247D02*
X57285714Y-66714342D01*
X57285714Y-66714342D02*
X57238095Y-66809580D01*
X57238095Y-66809580D02*
X57190476Y-66857200D01*
X57190476Y-66857200D02*
X57095238Y-66904819D01*
X57095238Y-66904819D02*
X56857143Y-66904819D01*
X56857143Y-66904819D02*
X56761905Y-66857200D01*
X56761905Y-66857200D02*
X56714286Y-66809580D01*
X141309580Y-147916666D02*
X141357200Y-147964285D01*
X141357200Y-147964285D02*
X141404819Y-148107142D01*
X141404819Y-148107142D02*
X141404819Y-148202380D01*
X141404819Y-148202380D02*
X141357200Y-148345237D01*
X141357200Y-148345237D02*
X141261961Y-148440475D01*
X141261961Y-148440475D02*
X141166723Y-148488094D01*
X141166723Y-148488094D02*
X140976247Y-148535713D01*
X140976247Y-148535713D02*
X140833390Y-148535713D01*
X140833390Y-148535713D02*
X140642914Y-148488094D01*
X140642914Y-148488094D02*
X140547676Y-148440475D01*
X140547676Y-148440475D02*
X140452438Y-148345237D01*
X140452438Y-148345237D02*
X140404819Y-148202380D01*
X140404819Y-148202380D02*
X140404819Y-148107142D01*
X140404819Y-148107142D02*
X140452438Y-147964285D01*
X140452438Y-147964285D02*
X140500057Y-147916666D01*
X140738152Y-147059523D02*
X141404819Y-147059523D01*
X140357200Y-147297618D02*
X141071485Y-147535713D01*
X141071485Y-147535713D02*
X141071485Y-146916666D01*
X162309580Y-101716666D02*
X162357200Y-101764285D01*
X162357200Y-101764285D02*
X162404819Y-101907142D01*
X162404819Y-101907142D02*
X162404819Y-102002380D01*
X162404819Y-102002380D02*
X162357200Y-102145237D01*
X162357200Y-102145237D02*
X162261961Y-102240475D01*
X162261961Y-102240475D02*
X162166723Y-102288094D01*
X162166723Y-102288094D02*
X161976247Y-102335713D01*
X161976247Y-102335713D02*
X161833390Y-102335713D01*
X161833390Y-102335713D02*
X161642914Y-102288094D01*
X161642914Y-102288094D02*
X161547676Y-102240475D01*
X161547676Y-102240475D02*
X161452438Y-102145237D01*
X161452438Y-102145237D02*
X161404819Y-102002380D01*
X161404819Y-102002380D02*
X161404819Y-101907142D01*
X161404819Y-101907142D02*
X161452438Y-101764285D01*
X161452438Y-101764285D02*
X161500057Y-101716666D01*
X161500057Y-101335713D02*
X161452438Y-101288094D01*
X161452438Y-101288094D02*
X161404819Y-101192856D01*
X161404819Y-101192856D02*
X161404819Y-100954761D01*
X161404819Y-100954761D02*
X161452438Y-100859523D01*
X161452438Y-100859523D02*
X161500057Y-100811904D01*
X161500057Y-100811904D02*
X161595295Y-100764285D01*
X161595295Y-100764285D02*
X161690533Y-100764285D01*
X161690533Y-100764285D02*
X161833390Y-100811904D01*
X161833390Y-100811904D02*
X162404819Y-101383332D01*
X162404819Y-101383332D02*
X162404819Y-100764285D01*
X86333333Y-67309580D02*
X86285714Y-67357200D01*
X86285714Y-67357200D02*
X86142857Y-67404819D01*
X86142857Y-67404819D02*
X86047619Y-67404819D01*
X86047619Y-67404819D02*
X85904762Y-67357200D01*
X85904762Y-67357200D02*
X85809524Y-67261961D01*
X85809524Y-67261961D02*
X85761905Y-67166723D01*
X85761905Y-67166723D02*
X85714286Y-66976247D01*
X85714286Y-66976247D02*
X85714286Y-66833390D01*
X85714286Y-66833390D02*
X85761905Y-66642914D01*
X85761905Y-66642914D02*
X85809524Y-66547676D01*
X85809524Y-66547676D02*
X85904762Y-66452438D01*
X85904762Y-66452438D02*
X86047619Y-66404819D01*
X86047619Y-66404819D02*
X86142857Y-66404819D01*
X86142857Y-66404819D02*
X86285714Y-66452438D01*
X86285714Y-66452438D02*
X86333333Y-66500057D01*
X87285714Y-67404819D02*
X86714286Y-67404819D01*
X87000000Y-67404819D02*
X87000000Y-66404819D01*
X87000000Y-66404819D02*
X86904762Y-66547676D01*
X86904762Y-66547676D02*
X86809524Y-66642914D01*
X86809524Y-66642914D02*
X86714286Y-66690533D01*
X102642856Y-55204819D02*
X102071428Y-55204819D01*
X102357142Y-55204819D02*
X102357142Y-54204819D01*
X102357142Y-54204819D02*
X102261904Y-54347676D01*
X102261904Y-54347676D02*
X102166666Y-54442914D01*
X102166666Y-54442914D02*
X102071428Y-54490533D01*
X103261904Y-54204819D02*
X103357142Y-54204819D01*
X103357142Y-54204819D02*
X103452380Y-54252438D01*
X103452380Y-54252438D02*
X103499999Y-54300057D01*
X103499999Y-54300057D02*
X103547618Y-54395295D01*
X103547618Y-54395295D02*
X103595237Y-54585771D01*
X103595237Y-54585771D02*
X103595237Y-54823866D01*
X103595237Y-54823866D02*
X103547618Y-55014342D01*
X103547618Y-55014342D02*
X103499999Y-55109580D01*
X103499999Y-55109580D02*
X103452380Y-55157200D01*
X103452380Y-55157200D02*
X103357142Y-55204819D01*
X103357142Y-55204819D02*
X103261904Y-55204819D01*
X103261904Y-55204819D02*
X103166666Y-55157200D01*
X103166666Y-55157200D02*
X103119047Y-55109580D01*
X103119047Y-55109580D02*
X103071428Y-55014342D01*
X103071428Y-55014342D02*
X103023809Y-54823866D01*
X103023809Y-54823866D02*
X103023809Y-54585771D01*
X103023809Y-54585771D02*
X103071428Y-54395295D01*
X103071428Y-54395295D02*
X103119047Y-54300057D01*
X103119047Y-54300057D02*
X103166666Y-54252438D01*
X103166666Y-54252438D02*
X103261904Y-54204819D01*
X103880952Y-54204819D02*
X104214285Y-55204819D01*
X104214285Y-55204819D02*
X104547618Y-54204819D01*
X104642857Y-55300057D02*
X105404761Y-55300057D01*
X105500000Y-54204819D02*
X106071428Y-54204819D01*
X105785714Y-55204819D02*
X105785714Y-54204819D01*
X106357143Y-54300057D02*
X106404762Y-54252438D01*
X106404762Y-54252438D02*
X106500000Y-54204819D01*
X106500000Y-54204819D02*
X106738095Y-54204819D01*
X106738095Y-54204819D02*
X106833333Y-54252438D01*
X106833333Y-54252438D02*
X106880952Y-54300057D01*
X106880952Y-54300057D02*
X106928571Y-54395295D01*
X106928571Y-54395295D02*
X106928571Y-54490533D01*
X106928571Y-54490533D02*
X106880952Y-54633390D01*
X106880952Y-54633390D02*
X106309524Y-55204819D01*
X106309524Y-55204819D02*
X106928571Y-55204819D01*
X69932319Y-120595238D02*
X69932319Y-121166666D01*
X69932319Y-120880952D02*
X68932319Y-120880952D01*
X68932319Y-120880952D02*
X69075176Y-120976190D01*
X69075176Y-120976190D02*
X69170414Y-121071428D01*
X69170414Y-121071428D02*
X69218033Y-121166666D01*
X68932319Y-119976190D02*
X68932319Y-119880952D01*
X68932319Y-119880952D02*
X68979938Y-119785714D01*
X68979938Y-119785714D02*
X69027557Y-119738095D01*
X69027557Y-119738095D02*
X69122795Y-119690476D01*
X69122795Y-119690476D02*
X69313271Y-119642857D01*
X69313271Y-119642857D02*
X69551366Y-119642857D01*
X69551366Y-119642857D02*
X69741842Y-119690476D01*
X69741842Y-119690476D02*
X69837080Y-119738095D01*
X69837080Y-119738095D02*
X69884700Y-119785714D01*
X69884700Y-119785714D02*
X69932319Y-119880952D01*
X69932319Y-119880952D02*
X69932319Y-119976190D01*
X69932319Y-119976190D02*
X69884700Y-120071428D01*
X69884700Y-120071428D02*
X69837080Y-120119047D01*
X69837080Y-120119047D02*
X69741842Y-120166666D01*
X69741842Y-120166666D02*
X69551366Y-120214285D01*
X69551366Y-120214285D02*
X69313271Y-120214285D01*
X69313271Y-120214285D02*
X69122795Y-120166666D01*
X69122795Y-120166666D02*
X69027557Y-120119047D01*
X69027557Y-120119047D02*
X68979938Y-120071428D01*
X68979938Y-120071428D02*
X68932319Y-119976190D01*
X68932319Y-119357142D02*
X69932319Y-119023809D01*
X69932319Y-119023809D02*
X68932319Y-118690476D01*
X69932319Y-118357142D02*
X68932319Y-118357142D01*
X68932319Y-118357142D02*
X68932319Y-118119047D01*
X68932319Y-118119047D02*
X68979938Y-117976190D01*
X68979938Y-117976190D02*
X69075176Y-117880952D01*
X69075176Y-117880952D02*
X69170414Y-117833333D01*
X69170414Y-117833333D02*
X69360890Y-117785714D01*
X69360890Y-117785714D02*
X69503747Y-117785714D01*
X69503747Y-117785714D02*
X69694223Y-117833333D01*
X69694223Y-117833333D02*
X69789461Y-117880952D01*
X69789461Y-117880952D02*
X69884700Y-117976190D01*
X69884700Y-117976190D02*
X69932319Y-118119047D01*
X69932319Y-118119047D02*
X69932319Y-118357142D01*
X69932319Y-116833333D02*
X69932319Y-117404761D01*
X69932319Y-117119047D02*
X68932319Y-117119047D01*
X68932319Y-117119047D02*
X69075176Y-117214285D01*
X69075176Y-117214285D02*
X69170414Y-117309523D01*
X69170414Y-117309523D02*
X69218033Y-117404761D01*
D13*
%TO.C,G\u002A\u002A\u002A*%
G36*
X166561478Y-75758019D02*
G01*
X166529568Y-75796733D01*
X166507441Y-75847517D01*
X166493339Y-75924485D01*
X166485507Y-76041756D01*
X166482189Y-76213446D01*
X166481604Y-76400085D01*
X166481604Y-76962276D01*
X166603026Y-77083699D01*
X166677489Y-77151439D01*
X166745699Y-77185484D01*
X166837165Y-77194342D01*
X166964011Y-77187793D01*
X167110459Y-77172708D01*
X167217928Y-77144279D01*
X167292796Y-77091276D01*
X167341439Y-77002468D01*
X167370234Y-76866625D01*
X167385558Y-76672516D01*
X167393263Y-76431834D01*
X167397798Y-76208494D01*
X167398141Y-76050486D01*
X167392600Y-75943309D01*
X167379479Y-75872458D01*
X167357085Y-75823432D01*
X167323724Y-75781727D01*
X167316412Y-75773867D01*
X167226485Y-75678145D01*
X167503022Y-75679415D01*
X167645366Y-75681450D01*
X167719694Y-75688370D01*
X167737854Y-75703884D01*
X167711695Y-75731700D01*
X167699685Y-75740960D01*
X167669069Y-75770597D01*
X167646588Y-75814712D01*
X167630394Y-75886021D01*
X167618642Y-75997246D01*
X167609484Y-76161103D01*
X167601074Y-76390311D01*
X167599843Y-76428605D01*
X167588983Y-76696738D01*
X167575186Y-76894828D01*
X167557364Y-77032685D01*
X167534430Y-77120119D01*
X167519968Y-77149155D01*
X167406390Y-77260568D01*
X167236833Y-77346843D01*
X167032912Y-77401799D01*
X166816240Y-77419256D01*
X166640777Y-77400542D01*
X166442131Y-77331590D01*
X166278146Y-77222107D01*
X166187488Y-77114290D01*
X166160473Y-77052736D01*
X166141727Y-76965866D01*
X166129956Y-76839984D01*
X166123868Y-76661392D01*
X166122170Y-76422359D01*
X166121453Y-76194269D01*
X166118083Y-76032163D01*
X166110228Y-75922157D01*
X166096057Y-75850366D01*
X166073739Y-75802904D01*
X166041443Y-75765887D01*
X166034765Y-75759575D01*
X165947360Y-75678145D01*
X166294356Y-75678145D01*
X166641352Y-75678145D01*
X166561478Y-75758019D01*
G37*
G36*
X170005920Y-75757413D02*
G01*
X169973278Y-75791364D01*
X169949689Y-75831423D01*
X169933686Y-75890152D01*
X169923802Y-75980111D01*
X169918570Y-76113858D01*
X169916525Y-76303955D01*
X169916195Y-76525790D01*
X169916738Y-76776034D01*
X169919315Y-76959134D01*
X169925349Y-77087818D01*
X169936262Y-77174814D01*
X169953475Y-77232850D01*
X169978410Y-77274655D01*
X170003031Y-77303008D01*
X170089866Y-77395440D01*
X169743439Y-77395440D01*
X169588309Y-77393313D01*
X169469080Y-77387628D01*
X169403902Y-77379432D01*
X169397012Y-77375472D01*
X169422141Y-77335836D01*
X169476887Y-77275629D01*
X169512568Y-77231033D01*
X169535847Y-77171665D01*
X169549272Y-77080961D01*
X169555392Y-76942354D01*
X169556761Y-76756447D01*
X169555362Y-76579911D01*
X169551569Y-76437244D01*
X169545987Y-76344568D01*
X169540263Y-76317138D01*
X169516569Y-76350326D01*
X169461762Y-76442021D01*
X169382627Y-76580423D01*
X169285954Y-76753729D01*
X169218698Y-76876258D01*
X169114640Y-77065527D01*
X169024144Y-77227388D01*
X168953925Y-77350048D01*
X168910699Y-77421716D01*
X168900324Y-77435377D01*
X168871500Y-77406024D01*
X168828832Y-77345519D01*
X168788742Y-77277546D01*
X168720258Y-77155208D01*
X168632344Y-76994739D01*
X168533959Y-76812377D01*
X168514727Y-76776415D01*
X168258805Y-76297170D01*
X168247457Y-76752421D01*
X168243623Y-76951460D01*
X168245455Y-77087415D01*
X168255293Y-77177003D01*
X168275477Y-77236946D01*
X168308346Y-77283964D01*
X168324308Y-77301556D01*
X168412508Y-77395440D01*
X168145955Y-77395440D01*
X167993386Y-77388523D01*
X167901911Y-77369581D01*
X167877481Y-77341330D01*
X167926046Y-77306488D01*
X167939308Y-77301124D01*
X167964108Y-77253217D01*
X167983202Y-77140920D01*
X167996649Y-76979509D01*
X168004511Y-76784258D01*
X168006849Y-76570443D01*
X168003723Y-76353339D01*
X167995196Y-76148222D01*
X167981328Y-75970367D01*
X167962179Y-75835050D01*
X167937811Y-75757546D01*
X167933118Y-75751179D01*
X167903162Y-75712991D01*
X167908664Y-75691139D01*
X167962718Y-75681078D01*
X168078415Y-75678261D01*
X168143473Y-75678145D01*
X168419924Y-75678145D01*
X168691345Y-76222752D01*
X168804038Y-76443731D01*
X168888812Y-76597353D01*
X168949437Y-76689585D01*
X168989678Y-76726391D01*
X169007218Y-76722908D01*
X169041706Y-76672921D01*
X169105463Y-76566657D01*
X169190237Y-76418350D01*
X169287778Y-76242236D01*
X169317117Y-76188285D01*
X169582566Y-75698113D01*
X169839105Y-75685968D01*
X170095644Y-75673822D01*
X170005920Y-75757413D01*
G37*
G36*
X158920590Y-75119897D02*
G01*
X159019974Y-75124633D01*
X159064366Y-75136412D01*
X159066205Y-75158414D01*
X159039523Y-75192060D01*
X159018666Y-75223475D01*
X159002639Y-75272363D01*
X158990829Y-75348508D01*
X158982622Y-75461692D01*
X158977406Y-75621699D01*
X158974570Y-75838312D01*
X158973499Y-76121314D01*
X158973427Y-76247540D01*
X158974127Y-76561820D01*
X158976581Y-76805523D01*
X158981324Y-76987934D01*
X158988889Y-77118341D01*
X158999810Y-77206031D01*
X159014621Y-77260292D01*
X159033333Y-77289892D01*
X159081834Y-77347860D01*
X159093239Y-77372619D01*
X159056245Y-77382575D01*
X158957021Y-77390331D01*
X158813203Y-77394789D01*
X158726274Y-77395440D01*
X158359310Y-77395440D01*
X158446714Y-77314010D01*
X158473840Y-77286198D01*
X158494681Y-77252949D01*
X158510066Y-77204181D01*
X158520822Y-77129811D01*
X158527776Y-77019757D01*
X158531755Y-76863937D01*
X158533587Y-76652267D01*
X158534099Y-76374665D01*
X158534119Y-76248837D01*
X158533557Y-75937985D01*
X158531464Y-75697226D01*
X158527228Y-75516784D01*
X158520238Y-75386882D01*
X158509882Y-75297745D01*
X158495549Y-75239596D01*
X158476627Y-75202659D01*
X158468024Y-75192060D01*
X158440740Y-75157269D01*
X158444080Y-75135749D01*
X158490483Y-75124322D01*
X158592390Y-75119807D01*
X158753773Y-75119025D01*
X158920590Y-75119897D01*
G37*
G36*
X160215072Y-76135672D02*
G01*
X160358033Y-76292015D01*
X160483612Y-76422663D01*
X160581944Y-76517872D01*
X160643162Y-76567896D01*
X160657429Y-76572624D01*
X160672727Y-76525840D01*
X160684318Y-76419313D01*
X160690302Y-76273151D01*
X160690723Y-76220324D01*
X160687229Y-76044152D01*
X160673995Y-75925855D01*
X160646891Y-75843630D01*
X160607950Y-75783373D01*
X160525177Y-75678145D01*
X160794629Y-75678145D01*
X161064080Y-75678145D01*
X160977244Y-75770577D01*
X160947177Y-75806315D01*
X160924983Y-75848178D01*
X160909473Y-75907994D01*
X160899454Y-75997596D01*
X160893733Y-76128812D01*
X160891121Y-76313474D01*
X160890423Y-76563412D01*
X160890409Y-76632553D01*
X160888571Y-76893420D01*
X160883342Y-77108027D01*
X160875147Y-77267692D01*
X160864412Y-77363735D01*
X160853335Y-77388784D01*
X160815457Y-77356888D01*
X160731978Y-77275963D01*
X160612000Y-77155182D01*
X160464627Y-77003717D01*
X160298959Y-76830742D01*
X160285286Y-76816352D01*
X160118953Y-76642162D01*
X159970701Y-76488723D01*
X159849518Y-76365191D01*
X159764395Y-76280723D01*
X159724319Y-76244474D01*
X159723303Y-76243920D01*
X159711845Y-76276271D01*
X159702299Y-76374223D01*
X159695531Y-76523509D01*
X159692407Y-76709865D01*
X159692295Y-76754372D01*
X159693834Y-76974925D01*
X159699334Y-77127775D01*
X159710125Y-77225050D01*
X159727537Y-77278877D01*
X159752201Y-77301124D01*
X159811288Y-77336933D01*
X159797160Y-77366907D01*
X159716443Y-77387567D01*
X159575763Y-77395437D01*
X159572484Y-77395440D01*
X159446088Y-77391984D01*
X159359259Y-77383000D01*
X159332861Y-77372619D01*
X159357711Y-77329293D01*
X159392767Y-77289892D01*
X159417845Y-77224727D01*
X159436953Y-77096294D01*
X159450116Y-76920975D01*
X159457359Y-76715151D01*
X159458704Y-76495203D01*
X159454177Y-76277512D01*
X159443803Y-76078461D01*
X159427605Y-75914429D01*
X159405608Y-75801799D01*
X159390502Y-75766905D01*
X159359191Y-75717713D01*
X159362621Y-75691197D01*
X159414742Y-75680349D01*
X159529502Y-75678160D01*
X159567170Y-75678145D01*
X159806008Y-75678145D01*
X160215072Y-76135672D01*
G37*
G36*
X162072346Y-75651175D02*
G01*
X162387924Y-75670314D01*
X162421001Y-75837573D01*
X162437505Y-75944193D01*
X162439563Y-76012769D01*
X162436082Y-76022828D01*
X162394144Y-76015639D01*
X162310182Y-75976200D01*
X162272148Y-75954719D01*
X162118190Y-75894862D01*
X161937382Y-75869105D01*
X161763916Y-75879594D01*
X161652805Y-75915845D01*
X161584871Y-75982797D01*
X161576930Y-76069962D01*
X161595843Y-76135919D01*
X161646808Y-76184194D01*
X161748867Y-76229604D01*
X161808962Y-76250520D01*
X162034767Y-76327415D01*
X162198285Y-76386903D01*
X162313463Y-76435410D01*
X162394251Y-76479361D01*
X162454596Y-76525181D01*
X162497877Y-76567874D01*
X162571512Y-76666573D01*
X162603047Y-76777087D01*
X162607704Y-76875096D01*
X162582778Y-77058340D01*
X162505020Y-77198705D01*
X162369963Y-77298727D01*
X162173139Y-77360942D01*
X161910079Y-77387887D01*
X161704533Y-77387782D01*
X161293851Y-77375472D01*
X161213513Y-77157574D01*
X161172607Y-77038449D01*
X161149153Y-76953656D01*
X161147185Y-76925666D01*
X161184468Y-76938936D01*
X161266131Y-76987822D01*
X161343708Y-77040304D01*
X161511454Y-77135800D01*
X161688737Y-77181076D01*
X161747264Y-77187281D01*
X161926106Y-77187014D01*
X162074305Y-77158340D01*
X162175483Y-77106399D01*
X162213065Y-77041145D01*
X162211824Y-76938747D01*
X162182677Y-76862283D01*
X162113404Y-76801564D01*
X161991789Y-76746401D01*
X161805611Y-76686605D01*
X161778362Y-76678637D01*
X161583365Y-76608956D01*
X161424174Y-76527043D01*
X161358942Y-76478950D01*
X161278955Y-76396329D01*
X161240924Y-76313656D01*
X161230080Y-76194878D01*
X161229874Y-76163883D01*
X161263165Y-75970334D01*
X161361923Y-75821071D01*
X161524472Y-75717113D01*
X161749139Y-75659478D01*
X162034249Y-75649186D01*
X162072346Y-75651175D01*
G37*
G36*
X164169840Y-75855744D02*
G01*
X164209508Y-75986940D01*
X164208898Y-76050070D01*
X164167306Y-76046449D01*
X164097739Y-75990496D01*
X163994660Y-75926264D01*
X163851376Y-75901347D01*
X163815217Y-75900272D01*
X163626100Y-75897799D01*
X163615169Y-76587604D01*
X163612036Y-76842365D01*
X163612428Y-77028208D01*
X163617109Y-77156039D01*
X163626841Y-77236765D01*
X163642389Y-77281295D01*
X163664517Y-77300536D01*
X163665091Y-77300760D01*
X163725770Y-77336174D01*
X163711259Y-77364733D01*
X163626072Y-77384787D01*
X163474721Y-77394682D01*
X163406446Y-77395440D01*
X163258068Y-77392813D01*
X163146337Y-77385831D01*
X163090154Y-77375845D01*
X163086949Y-77372619D01*
X163111820Y-77329374D01*
X163147804Y-77288944D01*
X163170707Y-77253644D01*
X163186596Y-77193313D01*
X163196274Y-77096266D01*
X163200544Y-76950818D01*
X163200210Y-76745285D01*
X163197725Y-76562944D01*
X163186792Y-75897799D01*
X163061047Y-75885586D01*
X162951748Y-75891427D01*
X162830929Y-75921060D01*
X162724370Y-75964987D01*
X162657850Y-76013710D01*
X162647641Y-76037898D01*
X162624712Y-76065083D01*
X162611856Y-76060113D01*
X162599943Y-76011062D01*
X162614403Y-75912526D01*
X162626214Y-75868055D01*
X162676358Y-75698113D01*
X163390857Y-75687267D01*
X164105355Y-75676420D01*
X164169840Y-75855744D01*
G37*
G36*
X165092799Y-75682030D02*
G01*
X165303487Y-75693044D01*
X165460646Y-75715171D01*
X165577349Y-75751129D01*
X165666669Y-75803635D01*
X165737870Y-75871100D01*
X165810766Y-76005820D01*
X165818961Y-76154944D01*
X165770018Y-76298847D01*
X165671499Y-76417905D01*
X165530967Y-76492494D01*
X165495120Y-76500996D01*
X165360090Y-76526327D01*
X165519221Y-76662538D01*
X165629937Y-76776575D01*
X165743153Y-76922954D01*
X165803484Y-77017455D01*
X165881986Y-77140114D01*
X165958505Y-77236096D01*
X166006543Y-77277868D01*
X166062671Y-77326110D01*
X166045687Y-77365393D01*
X165962288Y-77389949D01*
X165870206Y-77395291D01*
X165690374Y-77368720D01*
X165539947Y-77283855D01*
X165407560Y-77132440D01*
X165330364Y-77003038D01*
X165235320Y-76833991D01*
X165158248Y-76725631D01*
X165085639Y-76665241D01*
X165003983Y-76640101D01*
X164941172Y-76636635D01*
X164804245Y-76636635D01*
X164804245Y-76943003D01*
X164809707Y-77122573D01*
X164828095Y-77240130D01*
X164862414Y-77312919D01*
X164870340Y-77322406D01*
X164897625Y-77357197D01*
X164894284Y-77378716D01*
X164847881Y-77390143D01*
X164745974Y-77394658D01*
X164584591Y-77395440D01*
X164232746Y-77395440D01*
X164308826Y-77311319D01*
X164336280Y-77274375D01*
X164356258Y-77225237D01*
X164369925Y-77151687D01*
X164378448Y-77041505D01*
X164382994Y-76882472D01*
X164384728Y-76662371D01*
X164384905Y-76514270D01*
X164384762Y-76446841D01*
X164804245Y-76446841D01*
X165024206Y-76428600D01*
X165194619Y-76400126D01*
X165312697Y-76342863D01*
X165343703Y-76316850D01*
X165425359Y-76211847D01*
X165432566Y-76109018D01*
X165366370Y-75990592D01*
X165363206Y-75986542D01*
X165258065Y-75906107D01*
X165111195Y-75855338D01*
X164958188Y-75843870D01*
X164885804Y-75857327D01*
X164842676Y-75880092D01*
X164818013Y-75926574D01*
X164806856Y-76015480D01*
X164804245Y-76165027D01*
X164804245Y-76446841D01*
X164384762Y-76446841D01*
X164384362Y-76258312D01*
X164383147Y-76165027D01*
X164381914Y-76070371D01*
X164376338Y-75938592D01*
X164366408Y-75851120D01*
X164350901Y-75796101D01*
X164328592Y-75761681D01*
X164305031Y-75741014D01*
X164280614Y-75717710D01*
X164285787Y-75701224D01*
X164330500Y-75690355D01*
X164424702Y-75683903D01*
X164578342Y-75680667D01*
X164801368Y-75679447D01*
X164815512Y-75679415D01*
X165092799Y-75682030D01*
G37*
G36*
X171667106Y-75832542D02*
G01*
X171701281Y-75953599D01*
X171706340Y-76009685D01*
X171677422Y-76011933D01*
X171609669Y-75971475D01*
X171607172Y-75969840D01*
X171517172Y-75929768D01*
X171386955Y-75907228D01*
X171197902Y-75899150D01*
X171177848Y-75899029D01*
X170854717Y-75897799D01*
X170842827Y-76147406D01*
X170830937Y-76397013D01*
X171062481Y-76396767D01*
X171211534Y-76386682D01*
X171344468Y-76361070D01*
X171403852Y-76339229D01*
X171513679Y-76281938D01*
X171513679Y-76505413D01*
X171512044Y-76630384D01*
X171502990Y-76688894D01*
X171480297Y-76694352D01*
X171440644Y-76662794D01*
X171362802Y-76621589D01*
X171234412Y-76600799D01*
X171101179Y-76596698D01*
X170834748Y-76596698D01*
X170834748Y-76875497D01*
X170836551Y-77022120D01*
X170846273Y-77108014D01*
X170870387Y-77152311D01*
X170915363Y-77174143D01*
X170937805Y-77180162D01*
X171066051Y-77195192D01*
X171232680Y-77192285D01*
X171409541Y-77174486D01*
X171568484Y-77144842D01*
X171681358Y-77106401D01*
X171695595Y-77098144D01*
X171772622Y-77055153D01*
X171815546Y-77045129D01*
X171816243Y-77045698D01*
X171812690Y-77088947D01*
X171785081Y-77179569D01*
X171766783Y-77228606D01*
X171701248Y-77395440D01*
X170985540Y-77395440D01*
X170269831Y-77395440D01*
X170352604Y-77290212D01*
X170383180Y-77245686D01*
X170405171Y-77193198D01*
X170419975Y-77119618D01*
X170428990Y-77011820D01*
X170433614Y-76856676D01*
X170435246Y-76641056D01*
X170435377Y-76512994D01*
X170434856Y-76265802D01*
X170432311Y-76085808D01*
X170426273Y-75960336D01*
X170415271Y-75876713D01*
X170397834Y-75822265D01*
X170372493Y-75784315D01*
X170347972Y-75759575D01*
X170260568Y-75678145D01*
X170940707Y-75678145D01*
X171620847Y-75678145D01*
X171667106Y-75832542D01*
G37*
G36*
X172794443Y-76127437D02*
G01*
X172938359Y-76284628D01*
X173064634Y-76419622D01*
X173163088Y-76521760D01*
X173223537Y-76580381D01*
X173236330Y-76590042D01*
X173251541Y-76559239D01*
X173263342Y-76465570D01*
X173270024Y-76326028D01*
X173270912Y-76245978D01*
X173268020Y-76064442D01*
X173256889Y-75942074D01*
X173233839Y-75858300D01*
X173195188Y-75792545D01*
X173188139Y-75783373D01*
X173105366Y-75678145D01*
X173374046Y-75678145D01*
X173642725Y-75678145D01*
X173566646Y-75762107D01*
X173540014Y-75798318D01*
X173519979Y-75847731D01*
X173505348Y-75921929D01*
X173494927Y-76032491D01*
X173487524Y-76190999D01*
X173481946Y-76409033D01*
X173478208Y-76620755D01*
X173473671Y-76859635D01*
X173468311Y-77068627D01*
X173462555Y-77235594D01*
X173456831Y-77348395D01*
X173451563Y-77394892D01*
X173450994Y-77395440D01*
X173419793Y-77368260D01*
X173343718Y-77293704D01*
X173232967Y-77182252D01*
X173097739Y-77044380D01*
X172948230Y-76890567D01*
X172794639Y-76731291D01*
X172647165Y-76577030D01*
X172516004Y-76438263D01*
X172440393Y-76357075D01*
X172274481Y-76177358D01*
X172273483Y-76703673D01*
X172274989Y-76931834D01*
X172281360Y-77092795D01*
X172293862Y-77199148D01*
X172313759Y-77263486D01*
X172332390Y-77289892D01*
X172380891Y-77347860D01*
X172392295Y-77372619D01*
X172355814Y-77384107D01*
X172260163Y-77392305D01*
X172126034Y-77395440D01*
X172125743Y-77395440D01*
X171859190Y-77395440D01*
X171946026Y-77303008D01*
X171977299Y-77265573D01*
X172000011Y-77221592D01*
X172015523Y-77158558D01*
X172025201Y-77063965D01*
X172030406Y-76925305D01*
X172032504Y-76730072D01*
X172032861Y-76506530D01*
X172032463Y-76253463D01*
X172030344Y-76068284D01*
X172025115Y-75939005D01*
X172015386Y-75853641D01*
X171999771Y-75800205D01*
X171976881Y-75766712D01*
X171945326Y-75741174D01*
X171944101Y-75740315D01*
X171902276Y-75707407D01*
X171902670Y-75688778D01*
X171956792Y-75680388D01*
X172076152Y-75678197D01*
X172121240Y-75678145D01*
X172387139Y-75678145D01*
X172794443Y-76127437D01*
G37*
G36*
X175228500Y-75779749D02*
G01*
X175269080Y-75899898D01*
X175292271Y-75981525D01*
X175317413Y-76081697D01*
X175167205Y-75979764D01*
X175036944Y-75913674D01*
X174902020Y-75880211D01*
X174784617Y-75881185D01*
X174706918Y-75918412D01*
X174692952Y-75941002D01*
X174684399Y-76001798D01*
X174677170Y-76126596D01*
X174671848Y-76299531D01*
X174669017Y-76504733D01*
X174668710Y-76599964D01*
X174669570Y-76832737D01*
X174673221Y-76999253D01*
X174681272Y-77113124D01*
X174695332Y-77187958D01*
X174717010Y-77237367D01*
X174747916Y-77274959D01*
X174748585Y-77275629D01*
X174806614Y-77339941D01*
X174828459Y-77375472D01*
X174791581Y-77384496D01*
X174693174Y-77391398D01*
X174551572Y-77395098D01*
X174488993Y-77395440D01*
X174335594Y-77391567D01*
X174218272Y-77381230D01*
X174155358Y-77366355D01*
X174149528Y-77359776D01*
X174181351Y-77316248D01*
X174210381Y-77300760D01*
X174232663Y-77281959D01*
X174248349Y-77238112D01*
X174258203Y-77158311D01*
X174262988Y-77031649D01*
X174263467Y-76847219D01*
X174260405Y-76594112D01*
X174260302Y-76587604D01*
X174249371Y-75897799D01*
X174060255Y-75900272D01*
X173910452Y-75916936D01*
X173802874Y-75969676D01*
X173770711Y-75997092D01*
X173708332Y-76052160D01*
X173678790Y-76060787D01*
X173678407Y-76013641D01*
X173703505Y-75901387D01*
X173714961Y-75855578D01*
X173759639Y-75678145D01*
X174474755Y-75678145D01*
X175189870Y-75678145D01*
X175228500Y-75779749D01*
G37*
G36*
X176547016Y-75658176D02*
G01*
X176586100Y-75797956D01*
X176617630Y-75925647D01*
X176615403Y-75987718D01*
X176571605Y-75994092D01*
X176478418Y-75954695D01*
X176467058Y-75949103D01*
X176300965Y-75889865D01*
X176128909Y-75866126D01*
X175970190Y-75876291D01*
X175844106Y-75918767D01*
X175769955Y-75991958D01*
X175763950Y-76007190D01*
X175769777Y-76097590D01*
X175849255Y-76179628D01*
X176004744Y-76255146D01*
X176136640Y-76298424D01*
X176393169Y-76386567D01*
X176578078Y-76484592D01*
X176699595Y-76600239D01*
X176765945Y-76741247D01*
X176785377Y-76908826D01*
X176754211Y-77086263D01*
X176659617Y-77222250D01*
X176499946Y-77317672D01*
X176273554Y-77373417D01*
X175978794Y-77390370D01*
X175894202Y-77388650D01*
X175707373Y-77380231D01*
X175584973Y-77367936D01*
X175511561Y-77348731D01*
X175471697Y-77319582D01*
X175461205Y-77303572D01*
X175422473Y-77219691D01*
X175381499Y-77114035D01*
X175346903Y-77011725D01*
X175327307Y-76937886D01*
X175328277Y-76916195D01*
X175367566Y-76937304D01*
X175450979Y-76991739D01*
X175526820Y-77044138D01*
X175659631Y-77124782D01*
X175790761Y-77168200D01*
X175957312Y-77187782D01*
X176106987Y-77192175D01*
X176206320Y-77178342D01*
X176283843Y-77140643D01*
X176316116Y-77116846D01*
X176390158Y-77045274D01*
X176425456Y-76985264D01*
X176425943Y-76980164D01*
X176387726Y-76897358D01*
X176279155Y-76812386D01*
X176109352Y-76731052D01*
X175948586Y-76676312D01*
X175698885Y-76579733D01*
X175521053Y-76459931D01*
X175416722Y-76319459D01*
X175387524Y-76160873D01*
X175435091Y-75986725D01*
X175468667Y-75925035D01*
X175598300Y-75782884D01*
X175784816Y-75690770D01*
X176031029Y-75647658D01*
X176228565Y-75645582D01*
X176547016Y-75658176D01*
G37*
G36*
X171140647Y-73405521D02*
G01*
X171506452Y-73411221D01*
X171574201Y-73588619D01*
X171615271Y-73719718D01*
X171613687Y-73784952D01*
X171569866Y-73783468D01*
X171503537Y-73732630D01*
X171383425Y-73649521D01*
X171236817Y-73606234D01*
X171055989Y-73594759D01*
X170874743Y-73612273D01*
X170763816Y-73665459D01*
X170721587Y-73755285D01*
X170722528Y-73793802D01*
X170734947Y-73845212D01*
X170768005Y-73886536D01*
X170835957Y-73926337D01*
X170953057Y-73973176D01*
X171114308Y-74029122D01*
X171376741Y-74132449D01*
X171565319Y-74242313D01*
X171686050Y-74363982D01*
X171744943Y-74502726D01*
X171753152Y-74589272D01*
X171716075Y-74779438D01*
X171613886Y-74941161D01*
X171464714Y-75051251D01*
X171294745Y-75105914D01*
X171088147Y-75135949D01*
X170884213Y-75137677D01*
X170754874Y-75117714D01*
X170634523Y-75097471D01*
X170531844Y-75099034D01*
X170526482Y-75100118D01*
X170473703Y-75102441D01*
X170435752Y-75069857D01*
X170400371Y-74986130D01*
X170373023Y-74896858D01*
X170335641Y-74746430D01*
X170332600Y-74665581D01*
X170365119Y-74651204D01*
X170434418Y-74700194D01*
X170446064Y-74710934D01*
X170596068Y-74815410D01*
X170773686Y-74884081D01*
X170959485Y-74915408D01*
X171134032Y-74907854D01*
X171277894Y-74859878D01*
X171363303Y-74783565D01*
X171393192Y-74688701D01*
X171350475Y-74599142D01*
X171233102Y-74513114D01*
X171039025Y-74428843D01*
X170900616Y-74383140D01*
X170686026Y-74307234D01*
X170537775Y-74225879D01*
X170442539Y-74127846D01*
X170386992Y-74001903D01*
X170372263Y-73937825D01*
X170380141Y-73775757D01*
X170457741Y-73623610D01*
X170595250Y-73498658D01*
X170635063Y-73475181D01*
X170726182Y-73436492D01*
X170836503Y-73414199D01*
X170987979Y-73405276D01*
X171140647Y-73405521D01*
G37*
G36*
X160451100Y-71475494D02*
G01*
X160457678Y-71665759D01*
X160480784Y-71789050D01*
X160525477Y-71857438D01*
X160596816Y-71882995D01*
X160622347Y-71884119D01*
X160668092Y-71893548D01*
X160683048Y-71935690D01*
X160672962Y-72031332D01*
X160669263Y-72053852D01*
X160636315Y-72221314D01*
X160598843Y-72325177D01*
X160545905Y-72381456D01*
X160466562Y-72406167D01*
X160425478Y-72410759D01*
X160336328Y-72423303D01*
X160284663Y-72455842D01*
X160250454Y-72529533D01*
X160224614Y-72622956D01*
X160190008Y-72760995D01*
X160179846Y-72838687D01*
X160199912Y-72873353D01*
X160255992Y-72882309D01*
X160311321Y-72882547D01*
X160403711Y-72892574D01*
X160449893Y-72917228D01*
X160451100Y-72922467D01*
X160444660Y-72977308D01*
X160427402Y-73090923D01*
X160402418Y-73243433D01*
X160388042Y-73327790D01*
X160359120Y-73505028D01*
X160345818Y-73627003D01*
X160348287Y-73716813D01*
X160366675Y-73797557D01*
X160391519Y-73867414D01*
X160462691Y-74007094D01*
X160557272Y-74087997D01*
X160695383Y-74122741D01*
X160805023Y-74126702D01*
X161038877Y-74107297D01*
X161210406Y-74048627D01*
X161330432Y-73943506D01*
X161409779Y-73784752D01*
X161430929Y-73711242D01*
X161442896Y-73638601D01*
X161416432Y-73608050D01*
X161332250Y-73601458D01*
X161314078Y-73601415D01*
X161240817Y-73599623D01*
X161196297Y-73584939D01*
X161177871Y-73543405D01*
X161182895Y-73461060D01*
X161208723Y-73323946D01*
X161236675Y-73192972D01*
X161303382Y-72882547D01*
X161457318Y-72882547D01*
X161551390Y-72874526D01*
X161613843Y-72840122D01*
X161656356Y-72763821D01*
X161690604Y-72630112D01*
X161705339Y-72553066D01*
X161732707Y-72403302D01*
X161585892Y-72403302D01*
X161439077Y-72403302D01*
X161463832Y-72253538D01*
X161480477Y-72135535D01*
X161488821Y-72042658D01*
X161489026Y-72033884D01*
X161500890Y-71995342D01*
X161547263Y-71974012D01*
X161645230Y-71965212D01*
X161744064Y-71963994D01*
X161901496Y-71967975D01*
X162045441Y-71978275D01*
X162123467Y-71988954D01*
X162196888Y-72008669D01*
X162233964Y-72044806D01*
X162247269Y-72120330D01*
X162249223Y-72218593D01*
X162268588Y-72478787D01*
X162322404Y-72683332D01*
X162404683Y-72819091D01*
X162450629Y-72883202D01*
X162476245Y-72967887D01*
X162486714Y-73096371D01*
X162487893Y-73192034D01*
X162480573Y-73403246D01*
X162455442Y-73548139D01*
X162407743Y-73639194D01*
X162332718Y-73688892D01*
X162294325Y-73699914D01*
X162186430Y-73739274D01*
X162039847Y-73812481D01*
X161879516Y-73905099D01*
X161730378Y-74002691D01*
X161617371Y-74090819D01*
X161614482Y-74093458D01*
X161446828Y-74290677D01*
X161343737Y-74508742D01*
X161312816Y-74699686D01*
X161315092Y-74839485D01*
X161324160Y-74961479D01*
X161329818Y-74999214D01*
X161335674Y-75060885D01*
X161308205Y-75091785D01*
X161228440Y-75104877D01*
X161169968Y-75108437D01*
X161010646Y-75097918D01*
X160875303Y-75056388D01*
X160870440Y-75053859D01*
X160719358Y-74954103D01*
X160582364Y-74818855D01*
X160449266Y-74635463D01*
X160309869Y-74391274D01*
X160263313Y-74300314D01*
X160172747Y-74123883D01*
X160089318Y-73968961D01*
X160022334Y-73852359D01*
X159981310Y-73791116D01*
X159877535Y-73728999D01*
X159743695Y-73726687D01*
X159600088Y-73781992D01*
X159518680Y-73841038D01*
X159422495Y-73913972D01*
X159341112Y-73956438D01*
X159319161Y-73960849D01*
X159229819Y-73923823D01*
X159130956Y-73819945D01*
X159031766Y-73660010D01*
X158990529Y-73574975D01*
X158902523Y-73422048D01*
X158786335Y-73271575D01*
X158731828Y-73215541D01*
X158584079Y-73057848D01*
X158488549Y-72909916D01*
X158454248Y-72785732D01*
X158454245Y-72784688D01*
X158464664Y-72759004D01*
X158503947Y-72741416D01*
X158584135Y-72730488D01*
X158717268Y-72724781D01*
X158915385Y-72722857D01*
X158972565Y-72722799D01*
X159490885Y-72722799D01*
X159501732Y-71954009D01*
X159512578Y-71185220D01*
X159981839Y-71173968D01*
X160451100Y-71162717D01*
X160451100Y-71475494D01*
G37*
G36*
X165443628Y-72943476D02*
G01*
X165483459Y-73060672D01*
X165506333Y-73140625D01*
X165530128Y-73235431D01*
X165371227Y-73156813D01*
X165235527Y-73106761D01*
X165079058Y-73088311D01*
X164958364Y-73090198D01*
X164704402Y-73102201D01*
X164693638Y-73996622D01*
X164690838Y-74296783D01*
X164690927Y-74527378D01*
X164694424Y-74698682D01*
X164701851Y-74820966D01*
X164713725Y-74904506D01*
X164730568Y-74959574D01*
X164743560Y-74983660D01*
X164788122Y-75058573D01*
X164804245Y-75097651D01*
X164767368Y-75107311D01*
X164668961Y-75114698D01*
X164527362Y-75118659D01*
X164464780Y-75119025D01*
X164311367Y-75116856D01*
X164194041Y-75111067D01*
X164131136Y-75102738D01*
X164125314Y-75099057D01*
X164150443Y-75059420D01*
X164205188Y-74999214D01*
X164231649Y-74968229D01*
X164251534Y-74928112D01*
X164265777Y-74867937D01*
X164275311Y-74776780D01*
X164281068Y-74643717D01*
X164283982Y-74457824D01*
X164284986Y-74208177D01*
X164285063Y-74063958D01*
X164283968Y-73807451D01*
X164280907Y-73575709D01*
X164276217Y-73381452D01*
X164270232Y-73237397D01*
X164263288Y-73156262D01*
X164260821Y-73145405D01*
X164207566Y-73107042D01*
X164098829Y-73085809D01*
X163957162Y-73081803D01*
X163805120Y-73095118D01*
X163665256Y-73125853D01*
X163618686Y-73142663D01*
X163523769Y-73177791D01*
X163465935Y-73190679D01*
X163460061Y-73189097D01*
X163463128Y-73146447D01*
X163487656Y-73056492D01*
X163500142Y-73018840D01*
X163554217Y-72862579D01*
X164479468Y-72851857D01*
X165404718Y-72841134D01*
X165443628Y-72943476D01*
G37*
G36*
X166500547Y-73519558D02*
G01*
X166556491Y-73645715D01*
X166560861Y-73712433D01*
X166511848Y-73722749D01*
X166407646Y-73679698D01*
X166405787Y-73678731D01*
X166289268Y-73630904D01*
X166159146Y-73609429D01*
X165983630Y-73609178D01*
X165976463Y-73609482D01*
X165702830Y-73621384D01*
X165690853Y-73851022D01*
X165678875Y-74080660D01*
X165978040Y-74080660D01*
X166125369Y-74075678D01*
X166239606Y-74062519D01*
X166299026Y-74043861D01*
X166301887Y-74040723D01*
X166347144Y-73998938D01*
X166380882Y-74030678D01*
X166399368Y-74129974D01*
X166401729Y-74200472D01*
X166391958Y-74330303D01*
X166365132Y-74395465D01*
X166324981Y-74389989D01*
X166301887Y-74360220D01*
X166252637Y-74340905D01*
X166145366Y-74326726D01*
X166001888Y-74320390D01*
X165980033Y-74320283D01*
X165682861Y-74320283D01*
X165682861Y-74599843D01*
X165682861Y-74879403D01*
X166074599Y-74879403D01*
X166287152Y-74874885D01*
X166432189Y-74860340D01*
X166521610Y-74834282D01*
X166543860Y-74820767D01*
X166620617Y-74771078D01*
X166653819Y-74777976D01*
X166648498Y-74848022D01*
X166627110Y-74929324D01*
X166578002Y-75099057D01*
X165840887Y-75107501D01*
X165582748Y-75110020D01*
X165395295Y-75110266D01*
X165269353Y-75107461D01*
X165195748Y-75100830D01*
X165165306Y-75089595D01*
X165168853Y-75072980D01*
X165193632Y-75052708D01*
X165225352Y-75027534D01*
X165248567Y-74995443D01*
X165264602Y-74944703D01*
X165274786Y-74863579D01*
X165280442Y-74740340D01*
X165282899Y-74563253D01*
X165283482Y-74320585D01*
X165283490Y-74257771D01*
X165283125Y-73999162D01*
X165281156Y-73808709D01*
X165276273Y-73674693D01*
X165267166Y-73585395D01*
X165252524Y-73529096D01*
X165231038Y-73494079D01*
X165201396Y-73468625D01*
X165194730Y-73463900D01*
X165167672Y-73441122D01*
X165167881Y-73424680D01*
X165204848Y-73413553D01*
X165288063Y-73406721D01*
X165427014Y-73403162D01*
X165631193Y-73401857D01*
X165772792Y-73401730D01*
X166439615Y-73401730D01*
X166500547Y-73519558D01*
G37*
G36*
X169796383Y-74127720D02*
G01*
X169896519Y-74363576D01*
X169994620Y-74581389D01*
X170083937Y-74767137D01*
X170157724Y-74906796D01*
X170209235Y-74986346D01*
X170209876Y-74987094D01*
X170323840Y-75119025D01*
X169960269Y-75119025D01*
X169786634Y-75114880D01*
X169662594Y-75103393D01*
X169601076Y-75085983D01*
X169596698Y-75079088D01*
X169627089Y-75040311D01*
X169636635Y-75039151D01*
X169671354Y-75005814D01*
X169668500Y-74913072D01*
X169628612Y-74772411D01*
X169580652Y-74639780D01*
X169214463Y-74639780D01*
X168848273Y-74639780D01*
X168795842Y-74827046D01*
X168767650Y-74947638D01*
X168769480Y-75010662D01*
X168790652Y-75030060D01*
X168835141Y-75069216D01*
X168837893Y-75082416D01*
X168800246Y-75095865D01*
X168696432Y-75106816D01*
X168540143Y-75114389D01*
X168345071Y-75117702D01*
X168288758Y-75117755D01*
X168069885Y-75116240D01*
X167921130Y-75112149D01*
X167832747Y-75104377D01*
X167794993Y-75091819D01*
X167798125Y-75073372D01*
X167809512Y-75063431D01*
X167865934Y-75001437D01*
X167879402Y-74963821D01*
X167857485Y-74911275D01*
X167802083Y-74821597D01*
X167728722Y-74716230D01*
X167652924Y-74616613D01*
X167590216Y-74544187D01*
X167558019Y-74519969D01*
X167524636Y-74550372D01*
X167460817Y-74630121D01*
X167380312Y-74742021D01*
X167379476Y-74743235D01*
X167297918Y-74867899D01*
X167259184Y-74949066D01*
X167256499Y-75005849D01*
X167273333Y-75042763D01*
X167291994Y-75080036D01*
X167281691Y-75102555D01*
X167228894Y-75113917D01*
X167120075Y-75117715D01*
X166991140Y-75117755D01*
X166831960Y-75115885D01*
X166741080Y-75109961D01*
X166706934Y-75097239D01*
X166717960Y-75074973D01*
X166738844Y-75057849D01*
X166809338Y-75012432D01*
X166844655Y-74999214D01*
X166877719Y-74969282D01*
X166945070Y-74890026D01*
X167034760Y-74777254D01*
X167134842Y-74646777D01*
X167233370Y-74514402D01*
X167318396Y-74395938D01*
X167377973Y-74307196D01*
X167400157Y-74264140D01*
X167375893Y-74215905D01*
X167311154Y-74122527D01*
X167218024Y-73999009D01*
X167108585Y-73860357D01*
X166994919Y-73721575D01*
X166889108Y-73597666D01*
X166803235Y-73503636D01*
X166749381Y-73454488D01*
X166747034Y-73453066D01*
X166718622Y-73430643D01*
X166735065Y-73416078D01*
X166806258Y-73407715D01*
X166942093Y-73403897D01*
X167045169Y-73403145D01*
X167429018Y-73401730D01*
X167410161Y-73500372D01*
X167424161Y-73616765D01*
X167500514Y-73771808D01*
X167505558Y-73779861D01*
X167572905Y-73880601D01*
X167623921Y-73946285D01*
X167641557Y-73960778D01*
X167681480Y-73930147D01*
X167746966Y-73852561D01*
X167822719Y-73749696D01*
X167893443Y-73643229D01*
X167943841Y-73554837D01*
X167959277Y-73510533D01*
X167931601Y-73443715D01*
X167909355Y-73428179D01*
X167922879Y-73419061D01*
X168001368Y-73411754D01*
X168129919Y-73407368D01*
X168198899Y-73406648D01*
X168538365Y-73405260D01*
X168391926Y-73482617D01*
X168314320Y-73542503D01*
X168213072Y-73645778D01*
X168102201Y-73774714D01*
X167995728Y-73911583D01*
X167907669Y-74038659D01*
X167852045Y-74138214D01*
X167839903Y-74180665D01*
X167861691Y-74227222D01*
X167919859Y-74321531D01*
X168003051Y-74447304D01*
X168099908Y-74588253D01*
X168199075Y-74728092D01*
X168289193Y-74850532D01*
X168358905Y-74939286D01*
X168395368Y-74977257D01*
X168444904Y-74963611D01*
X168513101Y-74875579D01*
X168598250Y-74716008D01*
X168698642Y-74487743D01*
X168717992Y-74440094D01*
X168754485Y-74350236D01*
X168968964Y-74350236D01*
X168980408Y-74378513D01*
X169049429Y-74394429D01*
X169186221Y-74400069D01*
X169213023Y-74400157D01*
X169346451Y-74397288D01*
X169441335Y-74389771D01*
X169476887Y-74379395D01*
X169462940Y-74334522D01*
X169426437Y-74237212D01*
X169377044Y-74112918D01*
X169325730Y-73979046D01*
X169289701Y-73870556D01*
X169277201Y-73814184D01*
X169257414Y-73765561D01*
X169244352Y-73761164D01*
X169212147Y-73798332D01*
X169155976Y-73907290D01*
X169077624Y-74084220D01*
X168978877Y-74325303D01*
X168968964Y-74350236D01*
X168754485Y-74350236D01*
X168802709Y-74231493D01*
X168899470Y-73996597D01*
X168988852Y-73782523D01*
X168997867Y-73761164D01*
X169141350Y-73421698D01*
X169319103Y-73410988D01*
X169496855Y-73400277D01*
X169796383Y-74127720D01*
G37*
G36*
X161165929Y-72135498D02*
G01*
X161209279Y-72171886D01*
X161209905Y-72178903D01*
X161202192Y-72231941D01*
X161181227Y-72346887D01*
X161150279Y-72507504D01*
X161112613Y-72697551D01*
X161071495Y-72900791D01*
X161030191Y-73100983D01*
X160991967Y-73281890D01*
X160960091Y-73427271D01*
X160949900Y-73471619D01*
X160921773Y-73531202D01*
X160858688Y-73556939D01*
X160769836Y-73561478D01*
X160664171Y-73553877D01*
X160618064Y-73525218D01*
X160610849Y-73489384D01*
X160618941Y-73429454D01*
X160641146Y-73306752D01*
X160674356Y-73136502D01*
X160715463Y-72933927D01*
X160761361Y-72714252D01*
X160808942Y-72492701D01*
X160855098Y-72284497D01*
X160871259Y-72213601D01*
X160899032Y-72154049D01*
X160961769Y-72128308D01*
X161050918Y-72123742D01*
X161165929Y-72135498D01*
G37*
G36*
X161266085Y-71609816D02*
G01*
X161329730Y-71686496D01*
X161343171Y-71787794D01*
X161311666Y-71866829D01*
X161220773Y-71947123D01*
X161114141Y-71959096D01*
X161016004Y-71902526D01*
X160990266Y-71869778D01*
X160950793Y-71754154D01*
X160987884Y-71654629D01*
X161056364Y-71601238D01*
X161169282Y-71575486D01*
X161266085Y-71609816D01*
G37*
D14*
%TO.C,GND_T8*%
X71250000Y-148000000D02*
G75*
G02*
X67750000Y-148000000I-1750000J0D01*
G01*
X67750000Y-148000000D02*
G75*
G02*
X71250000Y-148000000I1750000J0D01*
G01*
%TO.C,U1*%
X116875000Y-144630000D02*
X116635000Y-144300000D01*
X117115000Y-144300000D01*
X116875000Y-144630000D01*
G36*
X116875000Y-144630000D02*
G01*
X116635000Y-144300000D01*
X117115000Y-144300000D01*
X116875000Y-144630000D01*
G37*
X119575000Y-149655000D02*
X121525000Y-149655000D01*
X119575000Y-149655000D02*
X117625000Y-149655000D01*
X119575000Y-144535000D02*
X121525000Y-144535000D01*
X119575000Y-144535000D02*
X117625000Y-144535000D01*
%TO.C,IC2*%
X108300000Y-102035000D02*
X108060000Y-101705000D01*
X108540000Y-101705000D01*
X108300000Y-102035000D01*
G36*
X108300000Y-102035000D02*
G01*
X108060000Y-101705000D01*
X108540000Y-101705000D01*
X108300000Y-102035000D01*
G37*
X111000000Y-107060000D02*
X112950000Y-107060000D01*
X111000000Y-107060000D02*
X109050000Y-107060000D01*
X111000000Y-101940000D02*
X112950000Y-101940000D01*
X111000000Y-101940000D02*
X109050000Y-101940000D01*
%TO.C,C3*%
X89770000Y-111420000D02*
X85730000Y-111420000D01*
X89770000Y-110699000D02*
X89770000Y-111420000D01*
X89770000Y-108580000D02*
X89770000Y-109301000D01*
X85730000Y-111420000D02*
X85730000Y-110699000D01*
X85730000Y-109301000D02*
X85730000Y-108580000D01*
X85730000Y-108580000D02*
X89770000Y-108580000D01*
%TO.C,V_1L_T7*%
X198250000Y-119000000D02*
G75*
G02*
X194750000Y-119000000I-1750000J0D01*
G01*
X194750000Y-119000000D02*
G75*
G02*
X198250000Y-119000000I1750000J0D01*
G01*
%TO.C,Vout_T6*%
X196750000Y-82500000D02*
G75*
G02*
X193250000Y-82500000I-1750000J0D01*
G01*
X193250000Y-82500000D02*
G75*
G02*
X196750000Y-82500000I1750000J0D01*
G01*
%TO.C,Vout1*%
X174612500Y-110110000D02*
X186832500Y-110110000D01*
X183532500Y-110110000D02*
X183532500Y-97890000D01*
X185332500Y-110110000D02*
X183532500Y-110110000D01*
X186832500Y-110110000D02*
X186832500Y-97890000D01*
X186832500Y-107500000D02*
X186832500Y-105500000D01*
X185332500Y-107250000D02*
X186832500Y-107500000D01*
X173812500Y-106800000D02*
X173812500Y-106200000D01*
X174412500Y-106500000D02*
X173812500Y-106800000D01*
X173812500Y-106200000D02*
X174412500Y-106500000D01*
X185332500Y-105750000D02*
X185332500Y-107250000D01*
X186832500Y-105500000D02*
X185332500Y-105750000D01*
X186832500Y-102500000D02*
X186832500Y-100500000D01*
X185332500Y-102250000D02*
X186832500Y-102500000D01*
X185332500Y-100750000D02*
X185332500Y-102250000D01*
X186832500Y-100500000D02*
X185332500Y-100750000D01*
X174612500Y-97890000D02*
X174612500Y-110110000D01*
X183532500Y-97890000D02*
X185332500Y-97890000D01*
X185332500Y-97890000D02*
X185332500Y-110110000D01*
X186832500Y-97890000D02*
X174612500Y-97890000D01*
%TO.C,Vin_T1*%
X87250000Y-57000000D02*
G75*
G02*
X83750000Y-57000000I-1750000J0D01*
G01*
X83750000Y-57000000D02*
G75*
G02*
X87250000Y-57000000I1750000J0D01*
G01*
%TO.C,Vin1*%
X67110000Y-92390000D02*
X54890000Y-92390000D01*
X58190000Y-92390000D02*
X58190000Y-104610000D01*
X56390000Y-92390000D02*
X58190000Y-92390000D01*
X54890000Y-92390000D02*
X54890000Y-104610000D01*
X54890000Y-95000000D02*
X54890000Y-97000000D01*
X56390000Y-95250000D02*
X54890000Y-95000000D01*
X67910000Y-95700000D02*
X67910000Y-96300000D01*
X67310000Y-96000000D02*
X67910000Y-95700000D01*
X67910000Y-96300000D02*
X67310000Y-96000000D01*
X56390000Y-96750000D02*
X56390000Y-95250000D01*
X54890000Y-97000000D02*
X56390000Y-96750000D01*
X54890000Y-100000000D02*
X54890000Y-102000000D01*
X56390000Y-100250000D02*
X54890000Y-100000000D01*
X56390000Y-101750000D02*
X56390000Y-100250000D01*
X54890000Y-102000000D02*
X56390000Y-101750000D01*
X67110000Y-104610000D02*
X67110000Y-92390000D01*
X58190000Y-104610000D02*
X56390000Y-104610000D01*
X56390000Y-104610000D02*
X56390000Y-92390000D01*
X54890000Y-104610000D02*
X67110000Y-104610000D01*
%TO.C,R5*%
X104000000Y-128040000D02*
X104000000Y-127270000D01*
X104000000Y-119960000D02*
X104000000Y-120730000D01*
X102630000Y-127270000D02*
X105370000Y-127270000D01*
X105370000Y-120730000D01*
X102630000Y-120730000D01*
X102630000Y-127270000D01*
%TO.C,R4*%
X104500000Y-83040000D02*
X104500000Y-82270000D01*
X104500000Y-74960000D02*
X104500000Y-75730000D01*
X103130000Y-82270000D02*
X105870000Y-82270000D01*
X105870000Y-75730000D01*
X103130000Y-75730000D01*
X103130000Y-82270000D01*
%TO.C,R3*%
X81960000Y-135500000D02*
X82730000Y-135500000D01*
X90040000Y-135500000D02*
X89270000Y-135500000D01*
X82730000Y-134130000D02*
X89270000Y-134130000D01*
X89270000Y-136870000D01*
X82730000Y-136870000D01*
X82730000Y-134130000D01*
%TO.C,R2*%
X81460000Y-147500000D02*
X82230000Y-147500000D01*
X89540000Y-147500000D02*
X88770000Y-147500000D01*
X82230000Y-146130000D02*
X88770000Y-146130000D01*
X88770000Y-148870000D01*
X82230000Y-148870000D01*
X82230000Y-146130000D01*
%TO.C,R1*%
X123195000Y-132500000D02*
X126875000Y-132500000D01*
X150795000Y-132500000D02*
X147115000Y-132500000D01*
X126875000Y-127880000D02*
X147115000Y-127880000D01*
X147115000Y-137120000D01*
X126875000Y-137120000D01*
X126875000Y-127880000D01*
%TO.C,Q2*%
X127430000Y-103740000D02*
X137650000Y-103740000D01*
X127430000Y-105120000D02*
X137650000Y-105120000D01*
X127430000Y-108360000D02*
X127430000Y-103740000D01*
X130690000Y-103740000D02*
X130690000Y-105120000D01*
X134390000Y-103740000D02*
X134390000Y-105120000D01*
X137650000Y-103740000D02*
X137650000Y-108360000D01*
X137650000Y-108360000D02*
X127430000Y-108360000D01*
%TO.C,Q1*%
X123160000Y-88070000D02*
X123160000Y-77850000D01*
X124540000Y-88070000D02*
X124540000Y-77850000D01*
X127780000Y-88070000D02*
X123160000Y-88070000D01*
X123160000Y-84810000D02*
X124540000Y-84810000D01*
X123160000Y-81110000D02*
X124540000Y-81110000D01*
X123160000Y-77850000D02*
X127780000Y-77850000D01*
X127780000Y-77850000D02*
X127780000Y-88070000D01*
%TO.C,PWM_T3*%
X124250000Y-57500000D02*
G75*
G02*
X120750000Y-57500000I-1750000J0D01*
G01*
X120750000Y-57500000D02*
G75*
G02*
X124250000Y-57500000I1750000J0D01*
G01*
%TO.C,PWM1*%
X53500000Y-66850000D02*
X68500000Y-66850000D01*
X53500000Y-81850000D02*
X53500000Y-66850000D01*
X61000000Y-67050000D02*
X60000000Y-68050000D01*
X61000000Y-67050000D02*
X62000000Y-68050000D01*
X68500000Y-66850000D02*
X68500000Y-81850000D01*
X68500000Y-81850000D02*
X53500000Y-81850000D01*
%TO.C,OPAMP_OUT_T8*%
X63250000Y-134000000D02*
G75*
G02*
X59750000Y-134000000I-1750000J0D01*
G01*
X59750000Y-134000000D02*
G75*
G02*
X63250000Y-134000000I1750000J0D01*
G01*
%TO.C,LOW_Vds_T5*%
X165250000Y-57500000D02*
G75*
G02*
X161750000Y-57500000I-1750000J0D01*
G01*
X161750000Y-57500000D02*
G75*
G02*
X165250000Y-57500000I1750000J0D01*
G01*
%TO.C,LOWDR_T4*%
X142250000Y-57500000D02*
G75*
G02*
X138750000Y-57500000I-1750000J0D01*
G01*
X138750000Y-57500000D02*
G75*
G02*
X142250000Y-57500000I1750000J0D01*
G01*
D15*
%TO.C,L1*%
X142500000Y-107000000D02*
X142500000Y-107000000D01*
D10*
X142200000Y-109000000D02*
X142200000Y-109000000D01*
D15*
X153500000Y-107000000D02*
X153500000Y-107000000D01*
D10*
X142300000Y-109000000D02*
X142300000Y-109000000D01*
D15*
X153500000Y-107000000D02*
G75*
G02*
X142500000Y-107000000I-5500000J0D01*
G01*
X142500000Y-107000000D02*
G75*
G02*
X153500000Y-107000000I5500000J0D01*
G01*
D10*
X142300000Y-109000000D02*
G75*
G02*
X142200000Y-109000000I-50000J0D01*
G01*
X142200000Y-109000000D02*
G75*
G02*
X142300000Y-109000000I50000J0D01*
G01*
D14*
%TO.C,GND_T7*%
X198250000Y-128500000D02*
G75*
G02*
X194750000Y-128500000I-1750000J0D01*
G01*
X194750000Y-128500000D02*
G75*
G02*
X198250000Y-128500000I1750000J0D01*
G01*
%TO.C,GND_T6*%
X196750000Y-91000000D02*
G75*
G02*
X193250000Y-91000000I-1750000J0D01*
G01*
X193250000Y-91000000D02*
G75*
G02*
X196750000Y-91000000I1750000J0D01*
G01*
%TO.C,GND_T5*%
X173750000Y-57500000D02*
G75*
G02*
X170250000Y-57500000I-1750000J0D01*
G01*
X170250000Y-57500000D02*
G75*
G02*
X173750000Y-57500000I1750000J0D01*
G01*
%TO.C,GND_T4*%
X150750000Y-57500000D02*
G75*
G02*
X147250000Y-57500000I-1750000J0D01*
G01*
X147250000Y-57500000D02*
G75*
G02*
X150750000Y-57500000I1750000J0D01*
G01*
%TO.C,GND_T3*%
X131750000Y-57500000D02*
G75*
G02*
X128250000Y-57500000I-1750000J0D01*
G01*
X128250000Y-57500000D02*
G75*
G02*
X131750000Y-57500000I1750000J0D01*
G01*
%TO.C,GND_T2*%
X114250000Y-57500000D02*
G75*
G02*
X110750000Y-57500000I-1750000J0D01*
G01*
X110750000Y-57500000D02*
G75*
G02*
X114250000Y-57500000I1750000J0D01*
G01*
%TO.C,GND_T1*%
X95250000Y-57500000D02*
G75*
G02*
X91750000Y-57500000I-1750000J0D01*
G01*
X91750000Y-57500000D02*
G75*
G02*
X95250000Y-57500000I1750000J0D01*
G01*
%TO.C,C7*%
X84480000Y-91580000D02*
X88520000Y-91580000D01*
X84480000Y-92301000D02*
X84480000Y-91580000D01*
X84480000Y-94420000D02*
X84480000Y-93699000D01*
X88520000Y-91580000D02*
X88520000Y-92301000D01*
X88520000Y-93699000D02*
X88520000Y-94420000D01*
X88520000Y-94420000D02*
X84480000Y-94420000D01*
%TO.C,C6*%
X84480000Y-85080000D02*
X88520000Y-85080000D01*
X84480000Y-85801000D02*
X84480000Y-85080000D01*
X84480000Y-87920000D02*
X84480000Y-87199000D01*
X88520000Y-85080000D02*
X88520000Y-85801000D01*
X88520000Y-87199000D02*
X88520000Y-87920000D01*
X88520000Y-87920000D02*
X84480000Y-87920000D01*
%TO.C,C5*%
X84480000Y-77080000D02*
X88520000Y-77080000D01*
X84480000Y-77801000D02*
X84480000Y-77080000D01*
X84480000Y-79920000D02*
X84480000Y-79199000D01*
X88520000Y-77080000D02*
X88520000Y-77801000D01*
X88520000Y-79199000D02*
X88520000Y-79920000D01*
X88520000Y-79920000D02*
X84480000Y-79920000D01*
%TO.C,C4*%
X142080000Y-149770000D02*
X142080000Y-145730000D01*
X142801000Y-149770000D02*
X142080000Y-149770000D01*
X144920000Y-149770000D02*
X144199000Y-149770000D01*
X142080000Y-145730000D02*
X142801000Y-145730000D01*
X144199000Y-145730000D02*
X144920000Y-145730000D01*
X144920000Y-145730000D02*
X144920000Y-149770000D01*
%TO.C,C2*%
X162080000Y-106520000D02*
X162080000Y-102480000D01*
X162801000Y-106520000D02*
X162080000Y-106520000D01*
X164920000Y-106520000D02*
X164199000Y-106520000D01*
X162080000Y-102480000D02*
X162801000Y-102480000D01*
X164199000Y-102480000D02*
X164920000Y-102480000D01*
X164920000Y-102480000D02*
X164920000Y-106520000D01*
%TO.C,C1*%
X84480000Y-68080000D02*
X88520000Y-68080000D01*
X84480000Y-68801000D02*
X84480000Y-68080000D01*
X84480000Y-70920000D02*
X84480000Y-70199000D01*
X88520000Y-68080000D02*
X88520000Y-68801000D01*
X88520000Y-70199000D02*
X88520000Y-70920000D01*
X88520000Y-70920000D02*
X84480000Y-70920000D01*
%TO.C,10V_T2*%
X106250000Y-57500000D02*
G75*
G02*
X102750000Y-57500000I-1750000J0D01*
G01*
X102750000Y-57500000D02*
G75*
G02*
X106250000Y-57500000I1750000J0D01*
G01*
%TO.C,10VD1*%
X68387500Y-112890000D02*
X56167500Y-112890000D01*
X59467500Y-112890000D02*
X59467500Y-125110000D01*
X57667500Y-112890000D02*
X59467500Y-112890000D01*
X56167500Y-112890000D02*
X56167500Y-125110000D01*
X56167500Y-115500000D02*
X56167500Y-117500000D01*
X57667500Y-115750000D02*
X56167500Y-115500000D01*
X69187500Y-116200000D02*
X69187500Y-116800000D01*
X68587500Y-116500000D02*
X69187500Y-116200000D01*
X69187500Y-116800000D02*
X68587500Y-116500000D01*
X57667500Y-117250000D02*
X57667500Y-115750000D01*
X56167500Y-117500000D02*
X57667500Y-117250000D01*
X56167500Y-120500000D02*
X56167500Y-122500000D01*
X57667500Y-120750000D02*
X56167500Y-120500000D01*
X57667500Y-122250000D02*
X57667500Y-120750000D01*
X56167500Y-122500000D02*
X57667500Y-122250000D01*
X68387500Y-125110000D02*
X68387500Y-112890000D01*
X59467500Y-125110000D02*
X57667500Y-125110000D01*
X57667500Y-125110000D02*
X57667500Y-112890000D01*
X56167500Y-125110000D02*
X68387500Y-125110000D01*
%TD*%
M02*
