%TF.GenerationSoftware,KiCad,Pcbnew,9.0.4*%
%TF.CreationDate,2025-10-14T11:36:06-05:00*%
%TF.ProjectId,Prelab7,5072656c-6162-4372-9e6b-696361645f70,rev?*%
%TF.SameCoordinates,Original*%
%TF.FileFunction,Copper,L1,Top*%
%TF.FilePolarity,Positive*%
%FSLAX46Y46*%
G04 Gerber Fmt 4.6, Leading zero omitted, Abs format (unit mm)*
G04 Created by KiCad (PCBNEW 9.0.4) date 2025-10-14 11:36:06*
%MOMM*%
%LPD*%
G01*
G04 APERTURE LIST*
G04 Aperture macros list*
%AMRoundRect*
0 Rectangle with rounded corners*
0 $1 Rounding radius*
0 $2 $3 $4 $5 $6 $7 $8 $9 X,Y pos of 4 corners*
0 Add a 4 corners polygon primitive as box body*
4,1,4,$2,$3,$4,$5,$6,$7,$8,$9,$2,$3,0*
0 Add four circle primitives for the rounded corners*
1,1,$1+$1,$2,$3*
1,1,$1+$1,$4,$5*
1,1,$1+$1,$6,$7*
1,1,$1+$1,$8,$9*
0 Add four rect primitives between the rounded corners*
20,1,$1+$1,$2,$3,$4,$5,0*
20,1,$1+$1,$4,$5,$6,$7,0*
20,1,$1+$1,$6,$7,$8,$9,0*
20,1,$1+$1,$8,$9,$2,$3,0*%
G04 Aperture macros list end*
%ADD10C,0.300000*%
%TA.AperFunction,NonConductor*%
%ADD11C,0.300000*%
%TD*%
%TA.AperFunction,ComponentPad*%
%ADD12C,2.800000*%
%TD*%
%TA.AperFunction,SMDPad,CuDef*%
%ADD13RoundRect,0.150000X-0.725000X-0.150000X0.725000X-0.150000X0.725000X0.150000X-0.725000X0.150000X0*%
%TD*%
%TA.AperFunction,ComponentPad*%
%ADD14C,1.600000*%
%TD*%
%TA.AperFunction,ComponentPad*%
%ADD15RoundRect,0.250000X1.550000X-0.750000X1.550000X0.750000X-1.550000X0.750000X-1.550000X-0.750000X0*%
%TD*%
%TA.AperFunction,ComponentPad*%
%ADD16O,3.600000X2.000000*%
%TD*%
%TA.AperFunction,ComponentPad*%
%ADD17RoundRect,0.250000X-1.550000X0.750000X-1.550000X-0.750000X1.550000X-0.750000X1.550000X0.750000X0*%
%TD*%
%TA.AperFunction,ComponentPad*%
%ADD18C,2.400000*%
%TD*%
%TA.AperFunction,ComponentPad*%
%ADD19R,1.905000X2.000000*%
%TD*%
%TA.AperFunction,ComponentPad*%
%ADD20O,1.905000X2.000000*%
%TD*%
%TA.AperFunction,ComponentPad*%
%ADD21R,2.000000X1.905000*%
%TD*%
%TA.AperFunction,ComponentPad*%
%ADD22O,2.000000X1.905000*%
%TD*%
%TA.AperFunction,ComponentPad*%
%ADD23O,1.600000X2.500000*%
%TD*%
%TA.AperFunction,ComponentPad*%
%ADD24O,3.500000X7.000000*%
%TD*%
%TA.AperFunction,ComponentPad*%
%ADD25R,1.800000X1.800000*%
%TD*%
%TA.AperFunction,ComponentPad*%
%ADD26C,1.800000*%
%TD*%
%TA.AperFunction,ViaPad*%
%ADD27C,4.000000*%
%TD*%
%TA.AperFunction,Conductor*%
%ADD28C,0.700000*%
%TD*%
%TA.AperFunction,Conductor*%
%ADD29C,0.900000*%
%TD*%
G04 APERTURE END LIST*
D10*
D11*
X185768796Y-173474400D02*
X186197368Y-173617257D01*
X186197368Y-173617257D02*
X186911653Y-173617257D01*
X186911653Y-173617257D02*
X187197368Y-173474400D01*
X187197368Y-173474400D02*
X187340225Y-173331542D01*
X187340225Y-173331542D02*
X187483082Y-173045828D01*
X187483082Y-173045828D02*
X187483082Y-172760114D01*
X187483082Y-172760114D02*
X187340225Y-172474400D01*
X187340225Y-172474400D02*
X187197368Y-172331542D01*
X187197368Y-172331542D02*
X186911653Y-172188685D01*
X186911653Y-172188685D02*
X186340225Y-172045828D01*
X186340225Y-172045828D02*
X186054510Y-171902971D01*
X186054510Y-171902971D02*
X185911653Y-171760114D01*
X185911653Y-171760114D02*
X185768796Y-171474400D01*
X185768796Y-171474400D02*
X185768796Y-171188685D01*
X185768796Y-171188685D02*
X185911653Y-170902971D01*
X185911653Y-170902971D02*
X186054510Y-170760114D01*
X186054510Y-170760114D02*
X186340225Y-170617257D01*
X186340225Y-170617257D02*
X187054510Y-170617257D01*
X187054510Y-170617257D02*
X187483082Y-170760114D01*
X188768796Y-173617257D02*
X188768796Y-170617257D01*
X190054511Y-173617257D02*
X190054511Y-172045828D01*
X190054511Y-172045828D02*
X189911653Y-171760114D01*
X189911653Y-171760114D02*
X189625939Y-171617257D01*
X189625939Y-171617257D02*
X189197368Y-171617257D01*
X189197368Y-171617257D02*
X188911653Y-171760114D01*
X188911653Y-171760114D02*
X188768796Y-171902971D01*
X192768797Y-173617257D02*
X192768797Y-172045828D01*
X192768797Y-172045828D02*
X192625939Y-171760114D01*
X192625939Y-171760114D02*
X192340225Y-171617257D01*
X192340225Y-171617257D02*
X191768797Y-171617257D01*
X191768797Y-171617257D02*
X191483082Y-171760114D01*
X192768797Y-173474400D02*
X192483082Y-173617257D01*
X192483082Y-173617257D02*
X191768797Y-173617257D01*
X191768797Y-173617257D02*
X191483082Y-173474400D01*
X191483082Y-173474400D02*
X191340225Y-173188685D01*
X191340225Y-173188685D02*
X191340225Y-172902971D01*
X191340225Y-172902971D02*
X191483082Y-172617257D01*
X191483082Y-172617257D02*
X191768797Y-172474400D01*
X191768797Y-172474400D02*
X192483082Y-172474400D01*
X192483082Y-172474400D02*
X192768797Y-172331542D01*
X193768797Y-171617257D02*
X194911654Y-171617257D01*
X194197368Y-173617257D02*
X194197368Y-171045828D01*
X194197368Y-171045828D02*
X194340225Y-170760114D01*
X194340225Y-170760114D02*
X194625940Y-170617257D01*
X194625940Y-170617257D02*
X194911654Y-170617257D01*
X195911654Y-173617257D02*
X195911654Y-171617257D01*
X195911654Y-170617257D02*
X195768797Y-170760114D01*
X195768797Y-170760114D02*
X195911654Y-170902971D01*
X195911654Y-170902971D02*
X196054511Y-170760114D01*
X196054511Y-170760114D02*
X195911654Y-170617257D01*
X195911654Y-170617257D02*
X195911654Y-170902971D01*
X197340225Y-171617257D02*
X197340225Y-173617257D01*
X197340225Y-171902971D02*
X197483082Y-171760114D01*
X197483082Y-171760114D02*
X197768797Y-171617257D01*
X197768797Y-171617257D02*
X198197368Y-171617257D01*
X198197368Y-171617257D02*
X198483082Y-171760114D01*
X198483082Y-171760114D02*
X198625940Y-172045828D01*
X198625940Y-172045828D02*
X198625940Y-173617257D01*
X202340225Y-170617257D02*
X202340225Y-173045828D01*
X202340225Y-173045828D02*
X202483082Y-173331542D01*
X202483082Y-173331542D02*
X202625940Y-173474400D01*
X202625940Y-173474400D02*
X202911654Y-173617257D01*
X202911654Y-173617257D02*
X203483082Y-173617257D01*
X203483082Y-173617257D02*
X203768797Y-173474400D01*
X203768797Y-173474400D02*
X203911654Y-173331542D01*
X203911654Y-173331542D02*
X204054511Y-173045828D01*
X204054511Y-173045828D02*
X204054511Y-170617257D01*
X205911654Y-173617257D02*
X205625939Y-173474400D01*
X205625939Y-173474400D02*
X205483082Y-173188685D01*
X205483082Y-173188685D02*
X205483082Y-170617257D01*
X208340226Y-173617257D02*
X208340226Y-172045828D01*
X208340226Y-172045828D02*
X208197368Y-171760114D01*
X208197368Y-171760114D02*
X207911654Y-171617257D01*
X207911654Y-171617257D02*
X207340226Y-171617257D01*
X207340226Y-171617257D02*
X207054511Y-171760114D01*
X208340226Y-173474400D02*
X208054511Y-173617257D01*
X208054511Y-173617257D02*
X207340226Y-173617257D01*
X207340226Y-173617257D02*
X207054511Y-173474400D01*
X207054511Y-173474400D02*
X206911654Y-173188685D01*
X206911654Y-173188685D02*
X206911654Y-172902971D01*
X206911654Y-172902971D02*
X207054511Y-172617257D01*
X207054511Y-172617257D02*
X207340226Y-172474400D01*
X207340226Y-172474400D02*
X208054511Y-172474400D01*
X208054511Y-172474400D02*
X208340226Y-172331542D01*
X213340226Y-173617257D02*
X213340226Y-172045828D01*
X213340226Y-172045828D02*
X213197368Y-171760114D01*
X213197368Y-171760114D02*
X212911654Y-171617257D01*
X212911654Y-171617257D02*
X212340226Y-171617257D01*
X212340226Y-171617257D02*
X212054511Y-171760114D01*
X213340226Y-173474400D02*
X213054511Y-173617257D01*
X213054511Y-173617257D02*
X212340226Y-173617257D01*
X212340226Y-173617257D02*
X212054511Y-173474400D01*
X212054511Y-173474400D02*
X211911654Y-173188685D01*
X211911654Y-173188685D02*
X211911654Y-172902971D01*
X211911654Y-172902971D02*
X212054511Y-172617257D01*
X212054511Y-172617257D02*
X212340226Y-172474400D01*
X212340226Y-172474400D02*
X213054511Y-172474400D01*
X213054511Y-172474400D02*
X213340226Y-172331542D01*
X214768797Y-171617257D02*
X214768797Y-173617257D01*
X214768797Y-171902971D02*
X214911654Y-171760114D01*
X214911654Y-171760114D02*
X215197369Y-171617257D01*
X215197369Y-171617257D02*
X215625940Y-171617257D01*
X215625940Y-171617257D02*
X215911654Y-171760114D01*
X215911654Y-171760114D02*
X216054512Y-172045828D01*
X216054512Y-172045828D02*
X216054512Y-173617257D01*
X218768798Y-173617257D02*
X218768798Y-170617257D01*
X218768798Y-173474400D02*
X218483083Y-173617257D01*
X218483083Y-173617257D02*
X217911655Y-173617257D01*
X217911655Y-173617257D02*
X217625940Y-173474400D01*
X217625940Y-173474400D02*
X217483083Y-173331542D01*
X217483083Y-173331542D02*
X217340226Y-173045828D01*
X217340226Y-173045828D02*
X217340226Y-172188685D01*
X217340226Y-172188685D02*
X217483083Y-171902971D01*
X217483083Y-171902971D02*
X217625940Y-171760114D01*
X217625940Y-171760114D02*
X217911655Y-171617257D01*
X217911655Y-171617257D02*
X218483083Y-171617257D01*
X218483083Y-171617257D02*
X218768798Y-171760114D01*
X222483083Y-173617257D02*
X222483083Y-170617257D01*
X222483083Y-170617257D02*
X223483083Y-172760114D01*
X223483083Y-172760114D02*
X224483083Y-170617257D01*
X224483083Y-170617257D02*
X224483083Y-173617257D01*
X227197369Y-173617257D02*
X227197369Y-172045828D01*
X227197369Y-172045828D02*
X227054511Y-171760114D01*
X227054511Y-171760114D02*
X226768797Y-171617257D01*
X226768797Y-171617257D02*
X226197369Y-171617257D01*
X226197369Y-171617257D02*
X225911654Y-171760114D01*
X227197369Y-173474400D02*
X226911654Y-173617257D01*
X226911654Y-173617257D02*
X226197369Y-173617257D01*
X226197369Y-173617257D02*
X225911654Y-173474400D01*
X225911654Y-173474400D02*
X225768797Y-173188685D01*
X225768797Y-173188685D02*
X225768797Y-172902971D01*
X225768797Y-172902971D02*
X225911654Y-172617257D01*
X225911654Y-172617257D02*
X226197369Y-172474400D01*
X226197369Y-172474400D02*
X226911654Y-172474400D01*
X226911654Y-172474400D02*
X227197369Y-172331542D01*
X228340226Y-171617257D02*
X229054512Y-173617257D01*
X229768797Y-171617257D02*
X229054512Y-173617257D01*
X229054512Y-173617257D02*
X228768797Y-174331542D01*
X228768797Y-174331542D02*
X228625940Y-174474400D01*
X228625940Y-174474400D02*
X228340226Y-174617257D01*
X232197369Y-173617257D02*
X232197369Y-172045828D01*
X232197369Y-172045828D02*
X232054511Y-171760114D01*
X232054511Y-171760114D02*
X231768797Y-171617257D01*
X231768797Y-171617257D02*
X231197369Y-171617257D01*
X231197369Y-171617257D02*
X230911654Y-171760114D01*
X232197369Y-173474400D02*
X231911654Y-173617257D01*
X231911654Y-173617257D02*
X231197369Y-173617257D01*
X231197369Y-173617257D02*
X230911654Y-173474400D01*
X230911654Y-173474400D02*
X230768797Y-173188685D01*
X230768797Y-173188685D02*
X230768797Y-172902971D01*
X230768797Y-172902971D02*
X230911654Y-172617257D01*
X230911654Y-172617257D02*
X231197369Y-172474400D01*
X231197369Y-172474400D02*
X231911654Y-172474400D01*
X231911654Y-172474400D02*
X232197369Y-172331542D01*
X233625940Y-171617257D02*
X233625940Y-173617257D01*
X233625940Y-171902971D02*
X233768797Y-171760114D01*
X233768797Y-171760114D02*
X234054512Y-171617257D01*
X234054512Y-171617257D02*
X234483083Y-171617257D01*
X234483083Y-171617257D02*
X234768797Y-171760114D01*
X234768797Y-171760114D02*
X234911655Y-172045828D01*
X234911655Y-172045828D02*
X234911655Y-173617257D01*
X236340226Y-173617257D02*
X236340226Y-170617257D01*
X236625941Y-172474400D02*
X237483083Y-173617257D01*
X237483083Y-171617257D02*
X236340226Y-172760114D01*
X241054511Y-173617257D02*
X241054511Y-170617257D01*
X242768797Y-173617257D02*
X241483083Y-171902971D01*
X242768797Y-170617257D02*
X241054511Y-172331542D01*
X244483083Y-173617257D02*
X244197368Y-173474400D01*
X244197368Y-173474400D02*
X244054511Y-173331542D01*
X244054511Y-173331542D02*
X243911654Y-173045828D01*
X243911654Y-173045828D02*
X243911654Y-172188685D01*
X243911654Y-172188685D02*
X244054511Y-171902971D01*
X244054511Y-171902971D02*
X244197368Y-171760114D01*
X244197368Y-171760114D02*
X244483083Y-171617257D01*
X244483083Y-171617257D02*
X244911654Y-171617257D01*
X244911654Y-171617257D02*
X245197368Y-171760114D01*
X245197368Y-171760114D02*
X245340226Y-171902971D01*
X245340226Y-171902971D02*
X245483083Y-172188685D01*
X245483083Y-172188685D02*
X245483083Y-173045828D01*
X245483083Y-173045828D02*
X245340226Y-173331542D01*
X245340226Y-173331542D02*
X245197368Y-173474400D01*
X245197368Y-173474400D02*
X244911654Y-173617257D01*
X244911654Y-173617257D02*
X244483083Y-173617257D01*
X246768797Y-171617257D02*
X246768797Y-173617257D01*
X246768797Y-171902971D02*
X246911654Y-171760114D01*
X246911654Y-171760114D02*
X247197369Y-171617257D01*
X247197369Y-171617257D02*
X247625940Y-171617257D01*
X247625940Y-171617257D02*
X247911654Y-171760114D01*
X247911654Y-171760114D02*
X248054512Y-172045828D01*
X248054512Y-172045828D02*
X248054512Y-173617257D01*
X250768798Y-173617257D02*
X250768798Y-170617257D01*
X250768798Y-173474400D02*
X250483083Y-173617257D01*
X250483083Y-173617257D02*
X249911655Y-173617257D01*
X249911655Y-173617257D02*
X249625940Y-173474400D01*
X249625940Y-173474400D02*
X249483083Y-173331542D01*
X249483083Y-173331542D02*
X249340226Y-173045828D01*
X249340226Y-173045828D02*
X249340226Y-172188685D01*
X249340226Y-172188685D02*
X249483083Y-171902971D01*
X249483083Y-171902971D02*
X249625940Y-171760114D01*
X249625940Y-171760114D02*
X249911655Y-171617257D01*
X249911655Y-171617257D02*
X250483083Y-171617257D01*
X250483083Y-171617257D02*
X250768798Y-171760114D01*
X253483084Y-171617257D02*
X253483084Y-173617257D01*
X252197369Y-171617257D02*
X252197369Y-173188685D01*
X252197369Y-173188685D02*
X252340226Y-173474400D01*
X252340226Y-173474400D02*
X252625941Y-173617257D01*
X252625941Y-173617257D02*
X253054512Y-173617257D01*
X253054512Y-173617257D02*
X253340226Y-173474400D01*
X253340226Y-173474400D02*
X253483084Y-173331542D01*
X254911655Y-173617257D02*
X254911655Y-171617257D01*
X254911655Y-172188685D02*
X255054512Y-171902971D01*
X255054512Y-171902971D02*
X255197370Y-171760114D01*
X255197370Y-171760114D02*
X255483084Y-171617257D01*
X255483084Y-171617257D02*
X255768798Y-171617257D01*
X256768798Y-173617257D02*
X256768798Y-171617257D01*
X256768798Y-170617257D02*
X256625941Y-170760114D01*
X256625941Y-170760114D02*
X256768798Y-170902971D01*
X256768798Y-170902971D02*
X256911655Y-170760114D01*
X256911655Y-170760114D02*
X256768798Y-170617257D01*
X256768798Y-170617257D02*
X256768798Y-170902971D01*
D12*
%TO.P,GND_T8,1,1*%
%TO.N,GND*%
X69500000Y-148000000D03*
%TD*%
D13*
%TO.P,U1,8,V+*%
%TO.N,10V*%
X122150000Y-145190000D03*
%TO.P,U1,7*%
%TO.N,unconnected-(U1-Pad7)*%
X122150000Y-146460000D03*
%TO.P,U1,6,-*%
%TO.N,unconnected-(U1B---Pad6)*%
X122150000Y-147730000D03*
%TO.P,U1,5,+*%
%TO.N,unconnected-(U1B-+-Pad5)*%
X122150000Y-149000000D03*
%TO.P,U1,4,V-*%
%TO.N,GND*%
X117000000Y-149000000D03*
%TO.P,U1,3,+*%
%TO.N,Vout-*%
X117000000Y-147730000D03*
%TO.P,U1,2,-*%
%TO.N,Net-(U1A--)*%
X117000000Y-146460000D03*
%TO.P,U1,1*%
%TO.N,OPAMP_OUT*%
X117000000Y-145190000D03*
%TD*%
%TO.P,IC2,8,BOOT*%
%TO.N,BOOT*%
X113575000Y-102595000D03*
%TO.P,IC2,7,HIGHDR*%
%TO.N,HIGHDR*%
X113575000Y-103865000D03*
%TO.P,IC2,6,BOOTLO*%
%TO.N,SW*%
X113575000Y-105135000D03*
%TO.P,IC2,5,LOWDR*%
%TO.N,LOWDR*%
X113575000Y-106405000D03*
%TO.P,IC2,4,VCC*%
%TO.N,10V*%
X108425000Y-106405000D03*
%TO.P,IC2,3,DT*%
%TO.N,SW*%
X108425000Y-105135000D03*
%TO.P,IC2,2,PGND*%
%TO.N,GND*%
X108425000Y-103865000D03*
%TO.P,IC2,1,IN*%
%TO.N,PWM*%
X108425000Y-102595000D03*
%TD*%
D14*
%TO.P,C3,2*%
%TO.N,GND*%
X89000000Y-110000000D03*
%TO.P,C3,1*%
%TO.N,10V*%
X86500000Y-110000000D03*
%TD*%
D12*
%TO.P,V_1L_T7,1,1*%
%TO.N,Vout-*%
X196500000Y-119000000D03*
%TD*%
%TO.P,Vout_T6,1,1*%
%TO.N,Vout+*%
X195000000Y-82500000D03*
%TD*%
D15*
%TO.P,Vout1,1,Pin_1*%
%TO.N,Vout+*%
X176722500Y-106500000D03*
D16*
%TO.P,Vout1,2,Pin_2*%
%TO.N,Vout-*%
X176722500Y-101500000D03*
%TD*%
D12*
%TO.P,Vin_T1,1,1*%
%TO.N,Vin+*%
X85500000Y-57000000D03*
%TD*%
D17*
%TO.P,Vin1,1,Pin_1*%
%TO.N,Vin+*%
X65000000Y-96000000D03*
D16*
%TO.P,Vin1,2,Pin_2*%
%TO.N,GND*%
X65000000Y-101000000D03*
%TD*%
D14*
%TO.P,R5,1*%
%TO.N,LOWDR*%
X104000000Y-129080000D03*
%TO.P,R5,2*%
%TO.N,Net-(Q2-G)*%
X104000000Y-118920000D03*
%TD*%
%TO.P,R4,1*%
%TO.N,HIGHDR*%
X104500000Y-84080000D03*
%TO.P,R4,2*%
%TO.N,Net-(Q1-G)*%
X104500000Y-73920000D03*
%TD*%
%TO.P,R3,1*%
%TO.N,Net-(U1A--)*%
X80920000Y-135500000D03*
%TO.P,R3,2*%
%TO.N,OPAMP_OUT*%
X91080000Y-135500000D03*
%TD*%
%TO.P,R2,1*%
%TO.N,GND*%
X80420000Y-147500000D03*
%TO.P,R2,2*%
%TO.N,Net-(U1A--)*%
X90580000Y-147500000D03*
%TD*%
D18*
%TO.P,R1,1*%
%TO.N,GND*%
X121755000Y-132500000D03*
%TO.P,R1,2*%
%TO.N,Vout-*%
X152235000Y-132500000D03*
%TD*%
D19*
%TO.P,Q2,1,G*%
%TO.N,Net-(Q2-G)*%
X130000000Y-107000000D03*
D20*
%TO.P,Q2,2,D*%
%TO.N,SW*%
X132540000Y-107000000D03*
%TO.P,Q2,3,S*%
%TO.N,GND*%
X135080000Y-107000000D03*
%TD*%
D21*
%TO.P,Q1,1,G*%
%TO.N,Net-(Q1-G)*%
X126420000Y-85500000D03*
D22*
%TO.P,Q1,2,D*%
%TO.N,Vin+*%
X126420000Y-82960000D03*
%TO.P,Q1,3,S*%
%TO.N,SW*%
X126420000Y-80420000D03*
%TD*%
D12*
%TO.P,PWM_T3,1,1*%
%TO.N,PWM*%
X122500000Y-57500000D03*
%TD*%
D23*
%TO.P,PWM1,1,In*%
%TO.N,PWM*%
X61000000Y-79550000D03*
D24*
%TO.P,PWM1,2,Ext*%
%TO.N,GND*%
X55920000Y-74470000D03*
D23*
X58460000Y-79550000D03*
D24*
X66080000Y-74470000D03*
%TD*%
D12*
%TO.P,OPAMP_OUT_T8,1,1*%
%TO.N,OPAMP_OUT*%
X61500000Y-134000000D03*
%TD*%
%TO.P,LOW_Vds_T5,1,1*%
%TO.N,SW*%
X163500000Y-57500000D03*
%TD*%
%TO.P,LOWDR_T4,1,1*%
%TO.N,LOWDR*%
X140500000Y-57500000D03*
%TD*%
D25*
%TO.P,L1,1,1*%
%TO.N,unconnected-(L1-Pad1)*%
X145500000Y-109000000D03*
D26*
%TO.P,L1,2,2*%
%TO.N,SW*%
X150500000Y-109000000D03*
%TO.P,L1,3,3*%
%TO.N,Vout+*%
X145500000Y-105000000D03*
%TO.P,L1,4,4*%
%TO.N,unconnected-(L1-Pad4)*%
X150500000Y-105000000D03*
%TD*%
D12*
%TO.P,GND_T7,1,1*%
%TO.N,GND*%
X196500000Y-128500000D03*
%TD*%
%TO.P,GND_T6,1,1*%
%TO.N,GND*%
X195000000Y-91000000D03*
%TD*%
%TO.P,GND_T5,1,1*%
%TO.N,GND*%
X172000000Y-57500000D03*
%TD*%
%TO.P,GND_T4,1,1*%
%TO.N,GND*%
X149000000Y-57500000D03*
%TD*%
%TO.P,GND_T3,1,1*%
%TO.N,GND*%
X130000000Y-57500000D03*
%TD*%
%TO.P,GND_T2,1,1*%
%TO.N,GND*%
X112500000Y-57500000D03*
%TD*%
%TO.P,GND_T1,1,1*%
%TO.N,GND*%
X93500000Y-57500000D03*
%TD*%
D14*
%TO.P,C7,1*%
%TO.N,Vin+*%
X85250000Y-93000000D03*
%TO.P,C7,2*%
%TO.N,GND*%
X87750000Y-93000000D03*
%TD*%
%TO.P,C6,1*%
%TO.N,Vin+*%
X85250000Y-86500000D03*
%TO.P,C6,2*%
%TO.N,GND*%
X87750000Y-86500000D03*
%TD*%
%TO.P,C5,1*%
%TO.N,BOOT*%
X85250000Y-78500000D03*
%TO.P,C5,2*%
%TO.N,SW*%
X87750000Y-78500000D03*
%TD*%
%TO.P,C4,1*%
%TO.N,10V*%
X143500000Y-149000000D03*
%TO.P,C4,2*%
%TO.N,GND*%
X143500000Y-146500000D03*
%TD*%
%TO.P,C2,1*%
%TO.N,Vout+*%
X163500000Y-105750000D03*
%TO.P,C2,2*%
%TO.N,Vout-*%
X163500000Y-103250000D03*
%TD*%
%TO.P,C1,1*%
%TO.N,Vin+*%
X85250000Y-69500000D03*
%TO.P,C1,2*%
%TO.N,GND*%
X87750000Y-69500000D03*
%TD*%
D12*
%TO.P,10V_T2,1,1*%
%TO.N,10V*%
X104500000Y-57500000D03*
%TD*%
D17*
%TO.P,10VD1,1,Pin_1*%
%TO.N,10V*%
X66277500Y-116500000D03*
D16*
%TO.P,10VD1,2,Pin_2*%
%TO.N,GND*%
X66277500Y-121500000D03*
%TD*%
D27*
%TO.N,*%
X196500000Y-43000000D03*
X195000000Y-148000000D03*
X59500000Y-149000000D03*
X61000000Y-41500000D03*
%TD*%
D28*
%TO.N,10V*%
X62096229Y-128096229D02*
X62463457Y-127729000D01*
D29*
X66277500Y-116500000D02*
X62096229Y-120681271D01*
X62096229Y-120681271D02*
X62096229Y-128096229D01*
D28*
X86622000Y-127729000D02*
X103000000Y-111351000D01*
X62463457Y-127729000D02*
X86622000Y-127729000D01*
X57747002Y-132445455D02*
X62096229Y-128096229D01*
X57747002Y-139006133D02*
X57747002Y-132445455D01*
X68691869Y-149951000D02*
X57747002Y-139006133D01*
X142021288Y-145190000D02*
X137260288Y-149951000D01*
X122150000Y-145190000D02*
X142021288Y-145190000D01*
X137260288Y-149951000D02*
X68691869Y-149951000D01*
X103000000Y-111351000D02*
X87796895Y-111351000D01*
%TO.N,GND*%
X60318663Y-131148000D02*
X120403000Y-131148000D01*
X120403000Y-131148000D02*
X121755000Y-132500000D01*
X58648001Y-132818662D02*
X60318663Y-131148000D01*
X58648000Y-135181337D02*
X58648001Y-132818662D01*
X72466663Y-149000000D02*
X58648000Y-135181337D01*
X117000000Y-149000000D02*
X72466663Y-149000000D01*
%TO.N,Vout-*%
X117739478Y-147730000D02*
X132969478Y-132500000D01*
X132969478Y-132500000D02*
X152235000Y-132500000D01*
X117000000Y-147730000D02*
X117739478Y-147730000D01*
%TO.N,10V*%
X139690000Y-145190000D02*
X122150000Y-145190000D01*
X143500000Y-149000000D02*
X139690000Y-145190000D01*
%TO.N,Net-(U1A--)*%
X90580000Y-147500000D02*
X91620000Y-146460000D01*
X91620000Y-146460000D02*
X117000000Y-146460000D01*
X70889869Y-146149000D02*
X89229000Y-146149000D01*
X59549000Y-134808131D02*
X70889869Y-146149000D01*
X89229000Y-146149000D02*
X90580000Y-147500000D01*
X59549000Y-133191869D02*
X59549000Y-134808131D01*
X60691869Y-132049000D02*
X59549000Y-133191869D01*
X80920000Y-135500000D02*
X77469000Y-132049000D01*
X77469000Y-132049000D02*
X60691869Y-132049000D01*
%TO.N,OPAMP_OUT*%
X64351000Y-136851000D02*
X61500000Y-134000000D01*
X89729000Y-136851000D02*
X64351000Y-136851000D01*
X91080000Y-135500000D02*
X89729000Y-136851000D01*
X117000000Y-145190000D02*
X100770000Y-145190000D01*
X100770000Y-145190000D02*
X91080000Y-135500000D01*
%TO.N,BOOT*%
X88428999Y-77149000D02*
X86601000Y-77149000D01*
X113575000Y-102295001D02*
X88428999Y-77149000D01*
X113575000Y-102595000D02*
X113575000Y-102295001D01*
X86601000Y-77149000D02*
X85250000Y-78500000D01*
%TO.N,HIGHDR*%
X115001000Y-94581000D02*
X104500000Y-84080000D01*
X114175522Y-103865000D02*
X115001000Y-103039522D01*
X113575000Y-103865000D02*
X114175522Y-103865000D01*
X115001000Y-103039522D02*
X115001000Y-94581000D01*
%TO.N,LOWDR*%
X142451000Y-55549000D02*
X140500000Y-57500000D01*
X165451000Y-56691869D02*
X164308131Y-55549000D01*
X165451000Y-58308131D02*
X165451000Y-56691869D01*
X113575000Y-106405000D02*
X117354131Y-106405000D01*
X117354131Y-106405000D02*
X165451000Y-58308131D01*
X164308131Y-55549000D02*
X142451000Y-55549000D01*
%TO.N,10V*%
X98565191Y-62000000D02*
X103065191Y-57500000D01*
X73394105Y-62000000D02*
X98565191Y-62000000D01*
X56873105Y-80427210D02*
X56873105Y-78521000D01*
X56873105Y-78521000D02*
X73394105Y-62000000D01*
X103479000Y-111351000D02*
X103000000Y-111351000D01*
X87796895Y-111351000D02*
X56873105Y-80427210D01*
X108425000Y-106405000D02*
X103479000Y-111351000D01*
X103065191Y-57500000D02*
X104500000Y-57500000D01*
%TO.N,SW*%
X115865000Y-105135000D02*
X163500000Y-57500000D01*
X108425000Y-105135000D02*
X115865000Y-105135000D01*
%TO.N,PWM*%
X120549000Y-59451000D02*
X122500000Y-57500000D01*
X102388397Y-59451000D02*
X120549000Y-59451000D01*
X83899000Y-79059603D02*
X83899000Y-77940397D01*
X107434397Y-102595000D02*
X83899000Y-79059603D01*
X83899000Y-77940397D02*
X102388397Y-59451000D01*
X108425000Y-102595000D02*
X107434397Y-102595000D01*
%TO.N,LOWDR*%
X113575000Y-119505000D02*
X104000000Y-129080000D01*
X113575000Y-106405000D02*
X113575000Y-119505000D01*
%TO.N,10V*%
X87851000Y-111351000D02*
X86500000Y-110000000D01*
X103479000Y-111351000D02*
X87851000Y-111351000D01*
%TO.N,SW*%
X109851000Y-104309522D02*
X109851000Y-100601000D01*
X109851000Y-100601000D02*
X87750000Y-78500000D01*
X108425000Y-105135000D02*
X109025522Y-105135000D01*
X109025522Y-105135000D02*
X109851000Y-104309522D01*
%TO.N,GND*%
X95135000Y-103865000D02*
X89000000Y-110000000D01*
X108425000Y-103865000D02*
X95135000Y-103865000D01*
%TO.N,PWM*%
X84045000Y-102595000D02*
X61000000Y-79550000D01*
X108425000Y-102595000D02*
X84045000Y-102595000D01*
%TO.N,SW*%
X113575000Y-105135000D02*
X114449999Y-105135000D01*
X124869000Y-81971000D02*
X126420000Y-80420000D01*
X124869000Y-94715999D02*
X124869000Y-81971000D01*
X114449999Y-105135000D02*
X124869000Y-94715999D01*
%TD*%
M02*
