%TF.GenerationSoftware,KiCad,Pcbnew,9.0.4*%
%TF.CreationDate,2025-10-14T11:36:06-05:00*%
%TF.ProjectId,Prelab7,5072656c-6162-4372-9e6b-696361645f70,rev?*%
%TF.SameCoordinates,Original*%
%TF.FileFunction,Soldermask,Top*%
%TF.FilePolarity,Negative*%
%FSLAX46Y46*%
G04 Gerber Fmt 4.6, Leading zero omitted, Abs format (unit mm)*
G04 Created by KiCad (PCBNEW 9.0.4) date 2025-10-14 11:36:06*
%MOMM*%
%LPD*%
G01*
G04 APERTURE LIST*
G04 Aperture macros list*
%AMRoundRect*
0 Rectangle with rounded corners*
0 $1 Rounding radius*
0 $2 $3 $4 $5 $6 $7 $8 $9 X,Y pos of 4 corners*
0 Add a 4 corners polygon primitive as box body*
4,1,4,$2,$3,$4,$5,$6,$7,$8,$9,$2,$3,0*
0 Add four circle primitives for the rounded corners*
1,1,$1+$1,$2,$3*
1,1,$1+$1,$4,$5*
1,1,$1+$1,$6,$7*
1,1,$1+$1,$8,$9*
0 Add four rect primitives between the rounded corners*
20,1,$1+$1,$2,$3,$4,$5,0*
20,1,$1+$1,$4,$5,$6,$7,0*
20,1,$1+$1,$6,$7,$8,$9,0*
20,1,$1+$1,$8,$9,$2,$3,0*%
G04 Aperture macros list end*
%ADD10C,2.800000*%
%ADD11RoundRect,0.150000X-0.725000X-0.150000X0.725000X-0.150000X0.725000X0.150000X-0.725000X0.150000X0*%
%ADD12C,1.600000*%
%ADD13RoundRect,0.250000X1.550000X-0.750000X1.550000X0.750000X-1.550000X0.750000X-1.550000X-0.750000X0*%
%ADD14O,3.600000X2.000000*%
%ADD15RoundRect,0.250000X-1.550000X0.750000X-1.550000X-0.750000X1.550000X-0.750000X1.550000X0.750000X0*%
%ADD16C,2.400000*%
%ADD17R,1.905000X2.000000*%
%ADD18O,1.905000X2.000000*%
%ADD19R,2.000000X1.905000*%
%ADD20O,2.000000X1.905000*%
%ADD21O,1.600000X2.500000*%
%ADD22O,3.500000X7.000000*%
%ADD23R,1.800000X1.800000*%
%ADD24C,1.800000*%
G04 APERTURE END LIST*
D10*
%TO.C,GND_T8*%
X69500000Y-148000000D03*
%TD*%
D11*
%TO.C,U1*%
X122150000Y-145190000D03*
X122150000Y-146460000D03*
X122150000Y-147730000D03*
X122150000Y-149000000D03*
X117000000Y-149000000D03*
X117000000Y-147730000D03*
X117000000Y-146460000D03*
X117000000Y-145190000D03*
%TD*%
%TO.C,IC2*%
X113575000Y-102595000D03*
X113575000Y-103865000D03*
X113575000Y-105135000D03*
X113575000Y-106405000D03*
X108425000Y-106405000D03*
X108425000Y-105135000D03*
X108425000Y-103865000D03*
X108425000Y-102595000D03*
%TD*%
D12*
%TO.C,C3*%
X89000000Y-110000000D03*
X86500000Y-110000000D03*
%TD*%
D10*
%TO.C,V_1L_T7*%
X196500000Y-119000000D03*
%TD*%
%TO.C,Vout_T6*%
X195000000Y-82500000D03*
%TD*%
D13*
%TO.C,Vout1*%
X176722500Y-106500000D03*
D14*
X176722500Y-101500000D03*
%TD*%
D10*
%TO.C,Vin_T1*%
X85500000Y-57000000D03*
%TD*%
D15*
%TO.C,Vin1*%
X65000000Y-96000000D03*
D14*
X65000000Y-101000000D03*
%TD*%
D12*
%TO.C,R5*%
X104000000Y-129080000D03*
X104000000Y-118920000D03*
%TD*%
%TO.C,R4*%
X104500000Y-84080000D03*
X104500000Y-73920000D03*
%TD*%
%TO.C,R3*%
X80920000Y-135500000D03*
X91080000Y-135500000D03*
%TD*%
%TO.C,R2*%
X80420000Y-147500000D03*
X90580000Y-147500000D03*
%TD*%
D16*
%TO.C,R1*%
X121755000Y-132500000D03*
X152235000Y-132500000D03*
%TD*%
D17*
%TO.C,Q2*%
X130000000Y-107000000D03*
D18*
X132540000Y-107000000D03*
X135080000Y-107000000D03*
%TD*%
D19*
%TO.C,Q1*%
X126420000Y-85500000D03*
D20*
X126420000Y-82960000D03*
X126420000Y-80420000D03*
%TD*%
D10*
%TO.C,PWM_T3*%
X122500000Y-57500000D03*
%TD*%
D21*
%TO.C,PWM1*%
X61000000Y-79550000D03*
D22*
X55920000Y-74470000D03*
D21*
X58460000Y-79550000D03*
D22*
X66080000Y-74470000D03*
%TD*%
D10*
%TO.C,OPAMP_OUT_T8*%
X61500000Y-134000000D03*
%TD*%
%TO.C,LOW_Vds_T5*%
X163500000Y-57500000D03*
%TD*%
%TO.C,LOWDR_T4*%
X140500000Y-57500000D03*
%TD*%
D23*
%TO.C,L1*%
X145500000Y-109000000D03*
D24*
X150500000Y-109000000D03*
X145500000Y-105000000D03*
X150500000Y-105000000D03*
%TD*%
D10*
%TO.C,GND_T7*%
X196500000Y-128500000D03*
%TD*%
%TO.C,GND_T6*%
X195000000Y-91000000D03*
%TD*%
%TO.C,GND_T5*%
X172000000Y-57500000D03*
%TD*%
%TO.C,GND_T4*%
X149000000Y-57500000D03*
%TD*%
%TO.C,GND_T3*%
X130000000Y-57500000D03*
%TD*%
%TO.C,GND_T2*%
X112500000Y-57500000D03*
%TD*%
%TO.C,GND_T1*%
X93500000Y-57500000D03*
%TD*%
D12*
%TO.C,C7*%
X85250000Y-93000000D03*
X87750000Y-93000000D03*
%TD*%
%TO.C,C6*%
X85250000Y-86500000D03*
X87750000Y-86500000D03*
%TD*%
%TO.C,C5*%
X85250000Y-78500000D03*
X87750000Y-78500000D03*
%TD*%
%TO.C,C4*%
X143500000Y-149000000D03*
X143500000Y-146500000D03*
%TD*%
%TO.C,C2*%
X163500000Y-105750000D03*
X163500000Y-103250000D03*
%TD*%
%TO.C,C1*%
X85250000Y-69500000D03*
X87750000Y-69500000D03*
%TD*%
D10*
%TO.C,10V_T2*%
X104500000Y-57500000D03*
%TD*%
D15*
%TO.C,10VD1*%
X66277500Y-116500000D03*
D14*
X66277500Y-121500000D03*
%TD*%
M02*
